M48
INCH
T01C0.0118
T02C0.0354
T03C0.038
T04C0.0394
%
T01
X+015787Y+024752
X+015379Y+025520
X+016437Y+025520
X+016890Y+025028
X+017520Y+025520
X+015064Y+028205
X+015379Y+029929
X+014749Y+030929
X+013969Y+032929
X+013969Y+033437
X+015064Y+034520
X+015787Y+034205
X+016437Y+034846
X+017795Y+033752
X+015064Y+036437
X+014559Y+036929
X+015787Y+037437
X+015379Y+038437
X+013929Y+039929
X+012906Y+043984
X+010929Y+043945
X+010437Y+043205
X+010813Y+047929
X+012941Y+048929
X+014559Y+048244
X+014244Y+035260
X+011425Y+033929
X+012449Y+021437
X+012764Y+018437
X+013122Y+016618
X+013122Y+015969
X+014297Y+017287
X+015064Y+017929
X+015787Y+017248
X+016929Y+017813
X+017244Y+018063
X+017244Y+017122
X+016929Y+016343
X+015379Y+020437
X+013969Y+012437
X+015379Y+010323
X+008812Y+009437
X+009222Y+007669
X+007969Y+011437
X+008283Y+012437
T02
X+011937Y+051062
X+010437Y+051437
X+010437Y+050437
X+010437Y+049437
X+010437Y+048437
X+010437Y+047437
X+010437Y+046437
X+010437Y+045437
X+010437Y+044437
X+011937Y+044687
X+013437Y+044437
X+013437Y+045437
X+013437Y+046437
X+013437Y+047437
X+013437Y+048437
X+013437Y+049437
X+013437Y+050437
X+013437Y+051437
X+011937Y+049062
X+011937Y+046687
X+010437Y+042437
X+010437Y+041437
X+010437Y+040437
X+010437Y+039437
X+010437Y+038437
X+010437Y+037437
X+010437Y+036437
X+010437Y+035437
X+011937Y+035687
X+013437Y+035437
X+013437Y+036437
X+013437Y+037437
X+013437Y+038437
X+013437Y+039437
X+013437Y+040437
X+013437Y+041437
X+013437Y+042437
X+011937Y+042062
X+011937Y+040062
X+011937Y+037687
X+010437Y+033437
X+010437Y+032437
X+010437Y+031437
X+010437Y+030437
X+010437Y+029437
X+010437Y+028437
X+010437Y+027437
X+010437Y+026437
X+011937Y+026625
X+013437Y+026437
X+013437Y+027437
X+013437Y+028437
X+013437Y+029437
X+013437Y+030437
X+013437Y+031437
X+013437Y+032437
X+013437Y+033437
X+011937Y+033062
X+011937Y+031062
X+011937Y+028625
X+013437Y+024437
X+013437Y+023437
X+013437Y+022437
X+013437Y+021437
X+013437Y+020437
X+013437Y+019437
X+013437Y+018437
X+013437Y+017437
X+011937Y+017687
X+010437Y+017437
X+010437Y+018437
X+010437Y+019437
X+010437Y+020437
X+010437Y+021437
X+010437Y+022437
X+010437Y+023437
X+010437Y+024437
X+011937Y+024000
X+011937Y+022000
X+011937Y+019687
X+013437Y+015437
X+013437Y+014437
X+013437Y+013437
X+013437Y+012437
X+013437Y+011437
X+013437Y+010437
X+013437Y+009437
X+013437Y+008437
X+011937Y+008625
X+010437Y+008437
X+010437Y+009437
X+010437Y+010437
X+010437Y+011437
X+010437Y+012437
X+010437Y+013437
X+010437Y+014437
X+010437Y+015437
X+011937Y+014937
X+011937Y+012937
X+011937Y+010625
X+016437Y+010437
X+016437Y+009437
X+016437Y+008437
X+016437Y+011437
X+016437Y+012437
X+016437Y+013437
X+016437Y+014437
X+016437Y+015437
X+016437Y+017437
X+016437Y+018437
X+016437Y+019437
X+016437Y+020437
X+016437Y+021437
X+016437Y+022437
X+016437Y+023437
X+016437Y+024437
X+016437Y+026437
X+016437Y+027437
X+016437Y+028437
X+016437Y+029437
X+016437Y+030437
X+016437Y+031437
X+016437Y+032437
X+016437Y+033437
X+016437Y+035437
X+016437Y+036437
X+016437Y+037437
X+016437Y+038437
X+016437Y+039437
X+016437Y+040437
X+016437Y+041437
X+016437Y+042437
X+016437Y+044437
X+016437Y+045437
X+016437Y+046437
X+016437Y+047437
X+016437Y+048437
X+016437Y+049437
X+016437Y+050437
X+016437Y+051437
X+007437Y+051437
X+007437Y+050437
X+007437Y+049437
X+007437Y+048437
X+007437Y+047437
X+007437Y+046437
X+007437Y+045437
X+007437Y+044437
X+007437Y+042437
X+007437Y+041437
X+007437Y+040437
X+007437Y+039437
X+007437Y+038437
X+007437Y+037437
X+007437Y+036437
X+007437Y+035437
X+007437Y+033437
X+007437Y+032437
X+007437Y+031437
X+007437Y+030437
X+007437Y+029437
X+007437Y+028437
X+007437Y+027437
X+007437Y+026437
X+007437Y+024437
X+007437Y+023437
X+007437Y+022437
X+007437Y+021437
X+007437Y+020437
X+007437Y+019437
X+007437Y+018437
X+007437Y+017437
X+007437Y+015437
X+007437Y+014437
X+007437Y+013437
X+007437Y+012437
X+007437Y+011437
X+007437Y+010437
X+007437Y+009437
X+007437Y+008437
T03
X+018437Y+007125
X+013437Y+007125
T04
X+005437Y+015437
X+005437Y+014437
X+005437Y+013437
X+005437Y+012437
X+005437Y+011437
X+005437Y+010437
X+005437Y+009437
X+005437Y+008437
X+005812Y+006250
X+006812Y+006250
X+007812Y+006250
X+008812Y+006250
X+009812Y+006250
X+010812Y+006250
X+011812Y+006250
X+018437Y+008437
X+018437Y+009437
X+018437Y+010437
X+018437Y+011437
X+018437Y+012437
X+018437Y+013437
X+018437Y+014437
X+018437Y+015437
X+018437Y+017437
X+018437Y+018437
X+018437Y+019437
X+018437Y+020437
X+018437Y+021437
X+018437Y+022437
X+018437Y+023437
X+018437Y+024437
X+018437Y+026437
X+018437Y+027437
X+018437Y+028437
X+018437Y+029437
X+018437Y+030437
X+018437Y+031437
X+018437Y+032437
X+018437Y+033437
X+018437Y+035437
X+018437Y+036437
X+018437Y+037437
X+018437Y+038437
X+018437Y+039437
X+018437Y+040437
X+018437Y+041437
X+018437Y+042437
X+018437Y+044437
X+018437Y+045437
X+018437Y+046437
X+018437Y+047437
X+018437Y+048437
X+018437Y+049437
X+018437Y+050437
X+018437Y+051437
X+005437Y+051437
X+005437Y+050437
X+005437Y+049437
X+005437Y+048437
X+005437Y+047437
X+005437Y+046437
X+005437Y+045437
X+005437Y+044437
X+005437Y+042437
X+005437Y+041437
X+005437Y+040437
X+005437Y+039437
X+005437Y+038437
X+005437Y+037437
X+005437Y+036437
X+005437Y+035437
X+005437Y+033437
X+005437Y+032437
X+005437Y+031437
X+005437Y+030437
X+005437Y+029437
X+005437Y+028437
X+005437Y+027437
X+005437Y+026437
X+005437Y+024437
X+005437Y+023437
X+005437Y+022437
X+005437Y+021437
X+005437Y+020437
X+005437Y+019437
X+005437Y+018437
X+005437Y+017437
X+004812Y+006250
T00
M30
