G04 DipTrace 2.4.0.2*
%INshift10.bottomsilkscreen.ger*%
%MOIN*%
%ADD48C,0.0108*%
%FSLAX44Y44*%
G04*
G70*
G90*
G75*
G01*
%LNBotSilk*%
%LPD*%
X8656Y49867D2*
D48*
X8589Y49933D1*
X8555Y50034D1*
Y50168D1*
X8589Y50268D1*
X8656Y50336D1*
X8723D1*
X8790Y50302D1*
X8823Y50268D1*
X8856Y50202D1*
X8924Y50001D1*
X8957Y49933D1*
X8991Y49900D1*
X9058Y49867D1*
X9158D1*
X9225Y49933D1*
X9259Y50034D1*
Y50168D1*
X9225Y50268D1*
X9158Y50336D1*
X8555Y49651D2*
X9259D1*
X8924D2*
X8823Y49550D1*
X8790Y49483D1*
Y49382D1*
X8823Y49315D1*
X8924Y49282D1*
X9259D1*
X8555Y49066D2*
X8589Y49033D1*
X8555Y48999D1*
X8521Y49033D1*
X8555Y49066D1*
X8790Y49033D2*
X9259D1*
X8555Y48515D2*
Y48581D1*
X8589Y48649D1*
X8689Y48682D1*
X9259D1*
X8790Y48783D2*
Y48548D1*
X8555Y48198D2*
X9125D1*
X9225Y48165D1*
X9259Y48098D1*
Y48031D1*
X8790Y48299D2*
Y48064D1*
Y47815D2*
X9259D1*
X8991D2*
X8891Y47781D1*
X8823Y47714D1*
X8790Y47647D1*
Y47546D1*
X8991Y47330D2*
Y46929D1*
X8924D1*
X8856Y46962D1*
X8823Y46995D1*
X8790Y47062D1*
Y47163D1*
X8823Y47230D1*
X8891Y47297D1*
X8991Y47330D1*
X9058D1*
X9158Y47297D1*
X9225Y47230D1*
X9259Y47163D1*
Y47062D1*
X9225Y46995D1*
X9158Y46929D1*
X8823Y46311D2*
X9359D1*
X9459Y46344D1*
X9493Y46377D1*
X9527Y46445D1*
Y46545D1*
X9493Y46612D1*
X8924Y46311D2*
X8857Y46377D1*
X8823Y46445D1*
Y46545D1*
X8857Y46612D1*
X8924Y46679D1*
X9024Y46712D1*
X9092D1*
X9192Y46679D1*
X9259Y46612D1*
X9292Y46545D1*
Y46445D1*
X9259Y46377D1*
X9192Y46311D1*
X8555Y46095D2*
X8589Y46061D1*
X8555Y46027D1*
X8521Y46061D1*
X8555Y46095D1*
X8790Y46061D2*
X9259D1*
X8891Y45443D2*
X8823Y45476D1*
X8790Y45577D1*
Y45677D1*
X8823Y45778D1*
X8891Y45811D1*
X8957Y45778D1*
X8991Y45711D1*
X9024Y45544D1*
X9058Y45476D1*
X9125Y45443D1*
X9158D1*
X9225Y45476D1*
X9259Y45577D1*
Y45677D1*
X9225Y45778D1*
X9158Y45811D1*
X8555Y45126D2*
X9125D1*
X9225Y45093D1*
X9259Y45026D1*
Y44959D1*
X8790Y45227D2*
Y44992D1*
X8991Y44743D2*
Y44341D1*
X8924D1*
X8856Y44375D1*
X8823Y44408D1*
X8790Y44475D1*
Y44576D1*
X8823Y44642D1*
X8891Y44710D1*
X8991Y44743D1*
X9058D1*
X9158Y44710D1*
X9225Y44642D1*
X9259Y44576D1*
Y44475D1*
X9225Y44408D1*
X9158Y44341D1*
X8790Y44125D2*
X9259D1*
X8991D2*
X8891Y44091D1*
X8823Y44025D1*
X8790Y43957D1*
Y43857D1*
X8556Y42793D2*
X8590Y42893D1*
X8656Y42927D1*
X8723D1*
X8790Y42893D1*
X8824Y42826D1*
X8857Y42692D1*
X8891Y42592D1*
X8958Y42525D1*
X9024Y42492D1*
X9125D1*
X9192Y42525D1*
X9226Y42559D1*
X9259Y42659D1*
Y42793D1*
X9226Y42893D1*
X9192Y42927D1*
X9125Y42960D1*
X9024D1*
X8958Y42927D1*
X8891Y42860D1*
X8857Y42760D1*
X8824Y42626D1*
X8790Y42559D1*
X8723Y42525D1*
X8656D1*
X8590Y42559D1*
X8556Y42659D1*
Y42793D1*
Y42075D2*
X8590Y42175D1*
X8690Y42243D1*
X8857Y42276D1*
X8958D1*
X9125Y42243D1*
X9226Y42175D1*
X9259Y42075D1*
Y42008D1*
X9226Y41908D1*
X9125Y41841D1*
X8958Y41807D1*
X8857D1*
X8690Y41841D1*
X8590Y41908D1*
X8556Y42008D1*
Y42075D1*
X8690Y41841D2*
X9125Y42243D1*
X8790Y41591D2*
X9259Y41222D1*
X8790D2*
X9259Y41591D1*
X14372Y51023D2*
X14439Y51091D1*
X14539Y51157D1*
X14673Y51225D1*
X14841Y51258D1*
X14975D1*
X15142Y51225D1*
X15276Y51157D1*
X15376Y51091D1*
X15443Y51023D1*
X14891Y50405D2*
X14823Y50472D1*
X14790Y50540D1*
Y50639D1*
X14823Y50707D1*
X14891Y50773D1*
X14991Y50807D1*
X15058D1*
X15158Y50773D1*
X15225Y50707D1*
X15259Y50639D1*
Y50540D1*
X15225Y50472D1*
X15158Y50405D1*
X14372Y50189D2*
X14439Y50121D1*
X14539Y50055D1*
X14673Y49988D1*
X14841Y49954D1*
X14975D1*
X15142Y49988D1*
X15276Y50055D1*
X15376Y50121D1*
X15443Y50189D1*
X14790Y49058D2*
X15259Y48924D1*
X14790Y48790D1*
X15259Y48656D1*
X14790Y48522D1*
Y48306D2*
X15259Y48172D1*
X14790Y48038D1*
X15259Y47905D1*
X14790Y47771D1*
Y47555D2*
X15259Y47421D1*
X14790Y47287D1*
X15259Y47153D1*
X14790Y47019D1*
X15192Y46770D2*
X15226Y46803D1*
X15259Y46770D1*
X15226Y46736D1*
X15192Y46770D1*
X14790Y46118D2*
X15259D1*
X14891D2*
X14823Y46184D1*
X14790Y46252D1*
Y46352D1*
X14823Y46419D1*
X14891Y46485D1*
X14991Y46520D1*
X15058D1*
X15158Y46485D1*
X15225Y46419D1*
X15259Y46352D1*
Y46252D1*
X15225Y46184D1*
X15158Y46118D1*
X14555Y45902D2*
X15259D1*
X14790Y45284D2*
X15259D1*
X14891D2*
X14823Y45351D1*
X14790Y45418D1*
Y45518D1*
X14823Y45585D1*
X14891Y45652D1*
X14991Y45686D1*
X15058D1*
X15158Y45652D1*
X15225Y45585D1*
X15259Y45518D1*
Y45418D1*
X15225Y45351D1*
X15158Y45284D1*
X14555Y45068D2*
X14589Y45035D1*
X14555Y45001D1*
X14521Y45035D1*
X14555Y45068D1*
X14790Y45035D2*
X15259D1*
X14790Y44784D2*
X15259D1*
X14924D2*
X14823Y44684D1*
X14790Y44617D1*
Y44517D1*
X14823Y44449D1*
X14924Y44416D1*
X15259D1*
X14891Y43832D2*
X14823Y43865D1*
X14790Y43965D1*
Y44066D1*
X14823Y44167D1*
X14891Y44200D1*
X14957Y44167D1*
X14991Y44099D1*
X15024Y43932D1*
X15058Y43865D1*
X15125Y43832D1*
X15158D1*
X15225Y43865D1*
X15259Y43965D1*
Y44066D1*
X15225Y44167D1*
X15158Y44200D1*
X14790Y43615D2*
X15493D1*
X14891D2*
X14824Y43548D1*
X14790Y43482D1*
Y43381D1*
X14824Y43314D1*
X14891Y43247D1*
X14991Y43213D1*
X15058D1*
X15158Y43247D1*
X15226Y43314D1*
X15259Y43381D1*
Y43482D1*
X15226Y43548D1*
X15158Y43615D1*
X14790Y42997D2*
X15259D1*
X14991D2*
X14891Y42963D1*
X14823Y42896D1*
X14790Y42829D1*
Y42728D1*
Y42345D2*
X14823Y42412D1*
X14891Y42479D1*
X14991Y42512D1*
X15058D1*
X15158Y42479D1*
X15225Y42412D1*
X15259Y42345D1*
Y42245D1*
X15225Y42177D1*
X15158Y42111D1*
X15058Y42077D1*
X14991D1*
X14891Y42111D1*
X14823Y42177D1*
X14790Y42245D1*
Y42345D1*
X14555Y41727D2*
X14588Y41693D1*
X14555Y41659D1*
X14521Y41693D1*
X14555Y41727D1*
X14789Y41693D2*
X15359D1*
X15459Y41727D1*
X15493Y41793D1*
Y41861D1*
X14991Y41443D2*
Y41042D1*
X14924D1*
X14856Y41075D1*
X14823Y41108D1*
X14790Y41175D1*
Y41276D1*
X14823Y41343D1*
X14891Y41410D1*
X14991Y41443D1*
X15058D1*
X15158Y41410D1*
X15225Y41343D1*
X15259Y41276D1*
Y41175D1*
X15225Y41108D1*
X15158Y41042D1*
X14891Y40423D2*
X14823Y40490D1*
X14790Y40558D1*
Y40658D1*
X14823Y40725D1*
X14891Y40791D1*
X14991Y40825D1*
X15058D1*
X15158Y40791D1*
X15225Y40725D1*
X15259Y40658D1*
Y40558D1*
X15225Y40490D1*
X15158Y40423D1*
X14555Y40106D2*
X15125D1*
X15225Y40073D1*
X15259Y40006D1*
Y39939D1*
X14790Y40207D2*
Y39973D1*
X14891Y39355D2*
X14823Y39388D1*
X14790Y39489D1*
Y39589D1*
X14823Y39690D1*
X14891Y39723D1*
X14957Y39690D1*
X14991Y39622D1*
X15024Y39455D1*
X15058Y39388D1*
X15125Y39355D1*
X15158D1*
X15225Y39388D1*
X15259Y39489D1*
Y39589D1*
X15225Y39690D1*
X15158Y39723D1*
X15192Y39105D2*
X15226Y39139D1*
X15259Y39105D1*
X15226Y39071D1*
X15192Y39105D1*
X14891Y38453D2*
X14823Y38520D1*
X14790Y38587D1*
Y38687D1*
X14823Y38755D1*
X14891Y38821D1*
X14991Y38855D1*
X15058D1*
X15158Y38821D1*
X15225Y38755D1*
X15259Y38687D1*
Y38587D1*
X15225Y38520D1*
X15158Y38453D1*
X14790Y38070D2*
X14823Y38136D1*
X14891Y38203D1*
X14991Y38237D1*
X15058D1*
X15158Y38203D1*
X15225Y38136D1*
X15259Y38070D1*
Y37969D1*
X15225Y37902D1*
X15158Y37835D1*
X15058Y37801D1*
X14991D1*
X14891Y37835D1*
X14823Y37902D1*
X14790Y37969D1*
Y38070D1*
Y37585D2*
X15259D1*
X14924D2*
X14823Y37484D1*
X14790Y37417D1*
Y37317D1*
X14823Y37250D1*
X14924Y37217D1*
X15259D1*
X14924D2*
X14823Y37116D1*
X14790Y37049D1*
Y36949D1*
X14823Y36881D1*
X14924Y36847D1*
X15259D1*
M02*
