G04 DipTrace 2.4.0.2*
%INshift10.bottomlayer.ger*%
%MOIN*%
%ADD14C,0.0157*%
%ADD15C,0.025*%
%ADD17C,0.063*%
%ADD18R,0.063X0.063*%
%ADD19R,0.0787X0.0787*%
%ADD20C,0.0787*%
%ADD21C,0.06*%
%ADD22C,0.06*%
%ADD23R,0.0591X0.0591*%
%ADD24C,0.0591*%
%ADD25C,0.0236*%
%FSLAX44Y44*%
G04*
G70*
G90*
G75*
G01*
%LNBottom*%
%LPD*%
X16437Y46437D2*
D14*
X15787Y45787D1*
Y37437D1*
Y24752D2*
Y20205D1*
X16063Y19929D1*
X16437D1*
Y19437D1*
X16063Y19929D2*
X15787Y19654D1*
Y17248D1*
X16437Y28437D2*
X15787Y27787D1*
Y24752D1*
Y34205D2*
Y29087D1*
X16437Y28437D1*
X15787Y37437D2*
Y34205D1*
Y17248D2*
Y11087D1*
X16437Y10437D1*
X10812Y6250D2*
Y6840D1*
X10929Y6957D1*
Y12945D1*
X10437Y13437D1*
X11812Y6250D2*
X18752D1*
X19028Y6525D1*
Y43028D1*
X17846D1*
X16437Y44437D1*
X13437Y26437D2*
X12724Y25724D1*
Y23339D1*
X11937Y22551D1*
Y22000D1*
Y26625D2*
X11205Y27357D1*
Y29633D1*
X11937Y30365D1*
Y31062D1*
Y49062D2*
X12449Y48550D1*
Y45199D1*
X11937Y44687D1*
X9222Y7669D2*
X9812Y7079D1*
Y6250D1*
X11937Y12937D2*
X12940Y11934D1*
Y8934D1*
X13437Y8437D1*
X11937Y17687D2*
Y17156D1*
X12449Y16644D1*
Y14256D1*
X11937Y13744D1*
Y12937D1*
Y22000D2*
Y20730D1*
X12449Y20219D1*
Y18199D1*
X11937Y17687D1*
Y40062D2*
Y40753D1*
X10929Y41761D1*
Y43945D1*
X11937Y35687D2*
X11205Y36419D1*
Y39330D1*
X11937Y40062D1*
X11425Y33929D2*
X11937Y34441D1*
Y35687D1*
Y31062D2*
X11425Y31574D1*
Y33929D1*
X11937Y44687D2*
Y43945D1*
X12213Y43669D1*
X13161D1*
X13437Y43945D1*
Y44437D1*
X14559Y48244D2*
Y47437D1*
X14835Y47161D1*
X15379D1*
Y38437D1*
X10813Y47929D2*
X10555D1*
X10437Y47811D1*
Y47437D1*
X15379Y47161D2*
X15654Y47437D1*
X16437D1*
X7969Y11437D2*
Y8208D1*
X6812Y7052D1*
Y6250D1*
X15379Y10323D2*
X15772Y9929D1*
X16654D1*
X16929Y10205D1*
Y10945D1*
X16437Y11437D1*
X15379Y20437D2*
Y10323D1*
Y25520D2*
Y20437D1*
Y29929D2*
Y25520D1*
X14559Y36929D2*
X15103D1*
X15379Y36654D1*
Y29929D1*
Y38437D2*
Y37749D1*
X14559Y36929D1*
X10437Y8437D2*
X9945Y8929D1*
Y21945D1*
X10437Y22437D1*
Y17437D2*
X10929Y17929D1*
Y30945D1*
X10437Y31437D1*
Y26437D2*
X9669Y27205D1*
Y33929D1*
X10929Y35189D1*
Y39945D1*
X10437Y40437D1*
Y35437D2*
X9394Y36480D1*
Y48394D1*
X10437Y49437D1*
Y43205D2*
Y44437D1*
X16929Y16343D2*
Y13929D1*
X16437Y13437D1*
X17244Y17122D2*
Y9244D1*
X16437Y8437D1*
X17244Y18063D2*
Y21630D1*
X16437Y22437D1*
Y17437D2*
X17283D1*
X17559Y17713D1*
Y22535D1*
X17205Y22890D1*
Y30669D1*
X16437Y31437D1*
Y25520D2*
Y26437D1*
X17520Y25520D2*
X17480Y25559D1*
Y39394D1*
X16437Y40437D1*
X14244Y35260D2*
Y49161D1*
X14520Y49437D1*
X16437D1*
Y34846D2*
Y35437D1*
X18437Y50437D2*
X17451D1*
X16959Y50929D1*
X13945D1*
X13437Y51437D1*
X18437Y47437D2*
X17508Y48366D1*
Y49654D1*
X17233Y49929D1*
X14205D1*
X13929Y49654D1*
Y48929D1*
X13437Y48437D1*
X12906Y43984D2*
Y44906D1*
X13437Y45437D1*
X18437Y42437D2*
X17437D1*
X16437Y41437D1*
X17795Y33752D2*
Y32831D1*
X18189Y32437D1*
X18437D1*
X13969Y32929D2*
X13437D1*
Y33437D1*
X16890Y25028D2*
X16929Y24988D1*
Y23929D1*
X16437Y23437D1*
X13437Y10437D2*
X15977Y7897D1*
X16897D1*
X18437Y9437D1*
Y8437D2*
Y7621D1*
X15253D1*
X13437Y9437D1*
X5437Y50437D2*
X5634D1*
X6634Y51437D1*
X7437D1*
X5437Y49437D2*
X6437Y50437D1*
X7437D1*
X5437Y47437D2*
X6437Y48437D1*
X7437D1*
X5437Y45437D2*
X6437Y46437D1*
X7437D1*
X5437Y41437D2*
X5634D1*
X6634Y42437D1*
X7437D1*
X5437Y40437D2*
X6437Y41437D1*
X7437D1*
X5437Y38437D2*
X6437Y39437D1*
X7437D1*
X5437Y36437D2*
X6437D1*
X7437Y37437D1*
X5437Y32437D2*
X5634D1*
X6634Y33437D1*
X7437D1*
X5437Y30437D2*
X6437Y31437D1*
X7437D1*
X5437Y28437D2*
X6437Y29437D1*
X7437D1*
X5437Y27437D2*
X6437Y28437D1*
X7437D1*
X5437Y23437D2*
X5634D1*
X6634Y24437D1*
X7437D1*
X5437Y22437D2*
X6437Y23437D1*
X7437D1*
X5437Y20437D2*
X6437Y21437D1*
X7437D1*
X5437Y18437D2*
X6437D1*
X7437Y19437D1*
X5437Y14437D2*
X5634D1*
X6634Y15437D1*
X7437D1*
X5437Y12437D2*
X6437Y13437D1*
X7437D1*
X5437Y9437D2*
X6437Y10437D1*
X7437D1*
X5437Y8437D2*
X6437Y9437D1*
X7437D1*
X12941Y48929D2*
Y48205D1*
X13217Y47929D1*
X13654D1*
X13929Y47654D1*
Y39929D1*
X16929Y17813D2*
Y20945D1*
X16437Y21437D1*
X13122Y15969D2*
X13969D1*
Y12437D1*
X14749Y30929D2*
Y23024D1*
X13654Y21929D1*
X13929Y21654D1*
Y17655D1*
X14297Y17287D1*
X8283Y12437D2*
Y7311D1*
X7812Y6840D1*
Y6250D1*
X14297Y17287D2*
X13628Y16618D1*
X13122D1*
X13654Y21929D2*
X12941D1*
X12449Y21437D1*
X13929Y39929D2*
Y34615D1*
X14749Y33795D1*
Y30929D1*
X16437Y9437D2*
X15339D1*
X15064Y9713D1*
Y16028D1*
X14788Y16303D1*
X12764D1*
Y18437D1*
X10437Y45437D2*
X9945Y44945D1*
Y36929D1*
X10437Y36437D1*
X14788Y16303D2*
X15064Y16579D1*
Y17929D1*
X8812Y9437D2*
Y6250D1*
X15064Y34520D2*
Y36437D1*
Y28205D2*
Y34520D1*
Y17929D2*
Y28205D1*
X11937Y51062D2*
X11425Y50550D1*
Y47199D1*
X11937Y46687D1*
Y14937D2*
X10937D1*
X10437Y15437D1*
X11937Y37687D2*
X12724Y36900D1*
Y34205D1*
X13000Y33929D1*
X12804D1*
X11937Y33062D1*
Y10625D2*
X12449Y10113D1*
Y8113D1*
X13437Y7125D1*
X11937Y14937D2*
X11205Y14205D1*
Y11357D1*
X11937Y10625D1*
Y19687D2*
X11205Y18955D1*
Y16715D1*
X11937Y15982D1*
Y14937D1*
Y24000D2*
X11205Y23267D1*
Y20419D1*
X11937Y19687D1*
Y33062D2*
X12449Y32550D1*
Y28624D1*
Y24511D1*
X11937Y24000D1*
X13000Y33929D2*
X13969D1*
Y33437D1*
X11937Y42062D2*
X12449Y41550D1*
Y38199D1*
X11937Y37687D1*
Y46687D2*
X11425Y46175D1*
Y42574D1*
X11937Y42062D1*
Y28625D2*
X12449Y28624D1*
D25*
X15787Y24752D3*
Y17248D3*
Y34205D3*
Y37437D3*
X9222Y7669D3*
X11425Y33929D3*
X10929Y43945D3*
X14559Y48244D3*
X10813Y47929D3*
X14559Y36929D3*
X7969Y11437D3*
X15379Y10323D3*
Y25520D3*
Y38437D3*
Y29929D3*
Y20437D3*
X10437Y43205D3*
X16929Y16343D3*
X17244Y17122D3*
Y18063D3*
X17520Y25520D3*
X16437D3*
X14244Y35260D3*
X16437Y34846D3*
X12906Y43984D3*
X17795Y33752D3*
X13969Y32929D3*
X16890Y25028D3*
X16929Y17813D3*
X13969Y12437D3*
X13122Y15969D3*
Y16618D3*
X12449Y21437D3*
X8283Y12437D3*
X14297Y17287D3*
X13929Y39929D3*
X12941Y48929D3*
X14749Y30929D3*
X8812Y9437D3*
X12764Y18437D3*
X15064Y34520D3*
Y36437D3*
Y28205D3*
Y17929D3*
X13969Y33437D3*
X4347Y52303D2*
D15*
X19525D1*
X4347Y52055D2*
X4752D1*
X6122D2*
X17752D1*
X19122D2*
X19525D1*
X4347Y51806D2*
X4752D1*
X6122D2*
X6853D1*
X8021D2*
X9990D1*
X10884D2*
X12853D1*
X14021D2*
X15990D1*
X16884D2*
X17752D1*
X19122D2*
X19525D1*
X4347Y51557D2*
X4752D1*
X6122D2*
X6244D1*
X8021D2*
X9865D1*
X11009D2*
X11611D1*
X12263D2*
X12853D1*
X14021D2*
X15865D1*
X17009D2*
X17752D1*
X19122D2*
X19525D1*
X4347Y51309D2*
X4752D1*
X8021D2*
X9865D1*
X11009D2*
X11389D1*
X12486D2*
X12853D1*
X14075D2*
X15865D1*
X17009D2*
X17752D1*
X19122D2*
X19525D1*
X4347Y51060D2*
X4752D1*
X6767D2*
X6855D1*
X8021D2*
X9998D1*
X10876D2*
X11334D1*
X12540D2*
X12853D1*
X17337D2*
X17752D1*
X19122D2*
X19525D1*
X4347Y50811D2*
X4752D1*
X6521D2*
X6994D1*
X7880D2*
X9994D1*
X10880D2*
X11174D1*
X12486D2*
X12994D1*
X17587D2*
X17752D1*
X19122D2*
X19525D1*
X4347Y50563D2*
X4768D1*
X8009D2*
X9865D1*
X12255D2*
X12865D1*
X14009D2*
X15865D1*
X19107D2*
X19525D1*
X4347Y50314D2*
X4764D1*
X8009D2*
X9865D1*
X11794D2*
X12865D1*
X14009D2*
X15865D1*
X19111D2*
X19525D1*
X4347Y50065D2*
X4869D1*
X6575D2*
X6994D1*
X7880D2*
X9994D1*
X10880D2*
X11057D1*
X11794D2*
X12994D1*
X17607D2*
X17869D1*
X19005D2*
X19525D1*
X4347Y49817D2*
X4873D1*
X6329D2*
X7002D1*
X7872D2*
X10002D1*
X10872D2*
X11057D1*
X11794D2*
X13002D1*
X19001D2*
X19525D1*
X4347Y49568D2*
X4768D1*
X6107D2*
X6869D1*
X8005D2*
X9869D1*
X12540D2*
X12869D1*
X17005D2*
X17080D1*
X19107D2*
X19525D1*
X4347Y49319D2*
X4764D1*
X6111D2*
X6865D1*
X8009D2*
X9807D1*
X12540D2*
X12865D1*
X17009D2*
X17142D1*
X19111D2*
X19525D1*
X4347Y49071D2*
X4865D1*
X6009D2*
X6990D1*
X7884D2*
X9561D1*
X10884D2*
X11057D1*
X14665D2*
X15990D1*
X16884D2*
X17139D1*
X19009D2*
X19525D1*
X4347Y48822D2*
X4877D1*
X5997D2*
X7006D1*
X7868D2*
X9311D1*
X10868D2*
X11057D1*
X14614D2*
X16006D1*
X16868D2*
X17139D1*
X18997D2*
X19525D1*
X4347Y48573D2*
X4768D1*
X8005D2*
X9076D1*
X14778D2*
X15869D1*
X17005D2*
X17141D1*
X19107D2*
X19525D1*
X4347Y48324D2*
X4764D1*
X8009D2*
X9025D1*
X11794D2*
X12080D1*
X14958D2*
X15865D1*
X17009D2*
X17142D1*
X19111D2*
X19525D1*
X4347Y48076D2*
X4861D1*
X6587D2*
X6982D1*
X7892D2*
X9025D1*
X9763D2*
X9982D1*
X11794D2*
X12080D1*
X14927D2*
X15982D1*
X16892D2*
X17287D1*
X19013D2*
X19525D1*
X4347Y47827D2*
X4881D1*
X6337D2*
X7010D1*
X7864D2*
X9025D1*
X9763D2*
X10010D1*
X11794D2*
X12080D1*
X14927D2*
X16010D1*
X16864D2*
X17537D1*
X18993D2*
X19525D1*
X4347Y47578D2*
X4768D1*
X6107D2*
X6869D1*
X8005D2*
X9025D1*
X9763D2*
X9873D1*
X11794D2*
X12080D1*
X14927D2*
X15283D1*
X17005D2*
X17768D1*
X19107D2*
X19525D1*
X4347Y47330D2*
X4764D1*
X6111D2*
X6861D1*
X8013D2*
X9025D1*
X9763D2*
X9860D1*
X11806D2*
X12080D1*
X17013D2*
X17764D1*
X19111D2*
X19525D1*
X4347Y47081D2*
X4857D1*
X6017D2*
X6978D1*
X7896D2*
X9025D1*
X9763D2*
X9978D1*
X10896D2*
X11076D1*
X12818D2*
X12978D1*
X15810D2*
X15978D1*
X16896D2*
X17857D1*
X19017D2*
X19525D1*
X4347Y46832D2*
X4885D1*
X5989D2*
X7014D1*
X7861D2*
X9025D1*
X9763D2*
X10014D1*
X10861D2*
X11279D1*
X12818D2*
X13014D1*
X14614D2*
X14713D1*
X15747D2*
X16014D1*
X16861D2*
X17885D1*
X18989D2*
X19525D1*
X4347Y46584D2*
X4771D1*
X8001D2*
X9025D1*
X9763D2*
X9873D1*
X11001D2*
X11322D1*
X14614D2*
X15010D1*
X15747D2*
X15869D1*
X17001D2*
X17771D1*
X19103D2*
X19525D1*
X4347Y46335D2*
X4760D1*
X8013D2*
X9025D1*
X9763D2*
X9860D1*
X11013D2*
X11097D1*
X14614D2*
X15010D1*
X15747D2*
X15827D1*
X17013D2*
X17760D1*
X19114D2*
X19525D1*
X4347Y46086D2*
X4853D1*
X6599D2*
X6975D1*
X7900D2*
X9025D1*
X9763D2*
X9975D1*
X10900D2*
X11057D1*
X11849D2*
X12080D1*
X12818D2*
X12975D1*
X14614D2*
X15010D1*
X16900D2*
X17853D1*
X19021D2*
X19525D1*
X4347Y45838D2*
X4889D1*
X6349D2*
X7021D1*
X7853D2*
X9025D1*
X9763D2*
X10021D1*
X10853D2*
X11057D1*
X11794D2*
X12080D1*
X12818D2*
X13021D1*
X14614D2*
X15010D1*
X16853D2*
X17889D1*
X18986D2*
X19525D1*
X4347Y45589D2*
X4771D1*
X6103D2*
X6873D1*
X8001D2*
X9025D1*
X9763D2*
X9873D1*
X11794D2*
X12080D1*
X14614D2*
X15010D1*
X17001D2*
X17771D1*
X19103D2*
X19525D1*
X4347Y45340D2*
X4760D1*
X6114D2*
X6861D1*
X8013D2*
X9025D1*
X11794D2*
X12080D1*
X14614D2*
X15010D1*
X17013D2*
X17760D1*
X19114D2*
X19525D1*
X4347Y45092D2*
X4850D1*
X6021D2*
X6971D1*
X7903D2*
X9025D1*
X10903D2*
X11057D1*
X14614D2*
X15010D1*
X16903D2*
X17850D1*
X19021D2*
X19525D1*
X4347Y44843D2*
X4893D1*
X5982D2*
X7025D1*
X7849D2*
X9025D1*
X10849D2*
X11057D1*
X14614D2*
X15010D1*
X16849D2*
X17893D1*
X18982D2*
X19525D1*
X4347Y44594D2*
X4771D1*
X6103D2*
X6873D1*
X8001D2*
X9025D1*
X14614D2*
X15010D1*
X17001D2*
X17771D1*
X19103D2*
X19525D1*
X4347Y44345D2*
X4760D1*
X6114D2*
X6861D1*
X8013D2*
X9025D1*
X14614D2*
X15010D1*
X17040D2*
X17760D1*
X19114D2*
X19525D1*
X4347Y44097D2*
X4850D1*
X6025D2*
X6967D1*
X7907D2*
X9025D1*
X14614D2*
X15010D1*
X17286D2*
X17850D1*
X19025D2*
X19525D1*
X4347Y43848D2*
X5119D1*
X5755D2*
X9025D1*
X14614D2*
X15010D1*
X16157D2*
X16514D1*
X17536D2*
X18119D1*
X18755D2*
X19525D1*
X4347Y43599D2*
X9025D1*
X14614D2*
X15010D1*
X16157D2*
X16764D1*
X17786D2*
X19525D1*
X4347Y43351D2*
X9025D1*
X11794D2*
X12061D1*
X13314D2*
X13561D1*
X14614D2*
X15010D1*
X16157D2*
X17014D1*
X19169D2*
X19525D1*
X4347Y43102D2*
X9025D1*
X11794D2*
X13561D1*
X14614D2*
X15010D1*
X16157D2*
X17260D1*
X19388D2*
X19524D1*
X4347Y42853D2*
X4752D1*
X6122D2*
X6853D1*
X8021D2*
X9025D1*
X11794D2*
X12853D1*
X14614D2*
X15010D1*
X16837D2*
X17510D1*
X19396D2*
X19525D1*
X4347Y42605D2*
X4752D1*
X6122D2*
X6293D1*
X8021D2*
X9025D1*
X12165D2*
X12853D1*
X14614D2*
X15010D1*
X16997D2*
X17091D1*
X19396D2*
X19525D1*
X4347Y42356D2*
X4752D1*
X8021D2*
X9025D1*
X12462D2*
X12853D1*
X14614D2*
X15010D1*
X19396D2*
X19525D1*
X4347Y42107D2*
X4752D1*
X8021D2*
X9025D1*
X12540D2*
X12853D1*
X14614D2*
X15010D1*
X19396D2*
X19525D1*
X4347Y41859D2*
X4752D1*
X6568D2*
X7045D1*
X7829D2*
X9025D1*
X12650D2*
X13045D1*
X14614D2*
X15010D1*
X17368D2*
X17752D1*
X19396D2*
X19525D1*
X4347Y41610D2*
X4775D1*
X7993D2*
X9025D1*
X14614D2*
X15010D1*
X17122D2*
X17775D1*
X19396D2*
X19525D1*
X4347Y41361D2*
X4760D1*
X8017D2*
X9025D1*
X11841D2*
X12080D1*
X14614D2*
X15010D1*
X17017D2*
X17760D1*
X19396D2*
X19525D1*
X4347Y41113D2*
X4838D1*
X7919D2*
X9025D1*
X10919D2*
X11064D1*
X12818D2*
X12955D1*
X14614D2*
X15010D1*
X16919D2*
X17838D1*
X19396D2*
X19525D1*
X4347Y40864D2*
X4912D1*
X6376D2*
X7049D1*
X7825D2*
X9025D1*
X10825D2*
X11314D1*
X12818D2*
X13049D1*
X14614D2*
X15010D1*
X16825D2*
X17912D1*
X19396D2*
X19525D1*
X4347Y40615D2*
X4779D1*
X6126D2*
X6881D1*
X7993D2*
X9025D1*
X10993D2*
X11334D1*
X14614D2*
X15010D1*
X16993D2*
X17779D1*
X19396D2*
X19525D1*
X4347Y40366D2*
X4756D1*
X6118D2*
X6857D1*
X8017D2*
X9025D1*
X11017D2*
X11334D1*
X14614D2*
X15010D1*
X17017D2*
X17756D1*
X19396D2*
X19525D1*
X4347Y40118D2*
X4838D1*
X6036D2*
X6951D1*
X7923D2*
X9025D1*
X11251D2*
X11336D1*
X12818D2*
X12951D1*
X14614D2*
X15010D1*
X17267D2*
X17838D1*
X19396D2*
X19525D1*
X4347Y39869D2*
X4916D1*
X5958D2*
X7057D1*
X7818D2*
X9025D1*
X12818D2*
X13057D1*
X14614D2*
X15010D1*
X17517D2*
X17916D1*
X19396D2*
X19525D1*
X4347Y39620D2*
X4779D1*
X7989D2*
X9025D1*
X14614D2*
X15010D1*
X19396D2*
X19525D1*
X4347Y39372D2*
X4756D1*
X8017D2*
X9025D1*
X11759D2*
X12080D1*
X14614D2*
X15010D1*
X19396D2*
X19525D1*
X4347Y39123D2*
X4834D1*
X7927D2*
X9025D1*
X11571D2*
X12080D1*
X12818D2*
X12947D1*
X14614D2*
X15010D1*
X16927D2*
X17111D1*
X19396D2*
X19525D1*
X4347Y38874D2*
X4920D1*
X6384D2*
X7061D1*
X7814D2*
X9025D1*
X11571D2*
X12080D1*
X12818D2*
X13061D1*
X14614D2*
X15010D1*
X16814D2*
X17111D1*
X19396D2*
X19525D1*
X4347Y38626D2*
X4779D1*
X6138D2*
X6885D1*
X7989D2*
X9025D1*
X11571D2*
X12080D1*
X14614D2*
X15010D1*
X16989D2*
X17110D1*
X19396D2*
X19525D1*
X4347Y38377D2*
X4756D1*
X6118D2*
X6853D1*
X8021D2*
X9025D1*
X11571D2*
X12080D1*
X14614D2*
X14975D1*
X17021D2*
X17112D1*
X19396D2*
X19525D1*
X4347Y38128D2*
X4830D1*
X6044D2*
X6943D1*
X7931D2*
X9025D1*
X12810D2*
X12943D1*
X14614D2*
X15010D1*
X16931D2*
X17111D1*
X19396D2*
X19525D1*
X4347Y37880D2*
X4924D1*
X5950D2*
X7068D1*
X7806D2*
X9025D1*
X12642D2*
X13068D1*
X14614D2*
X14998D1*
X16806D2*
X17111D1*
X19396D2*
X19525D1*
X4347Y37631D2*
X4783D1*
X6091D2*
X6885D1*
X7986D2*
X9025D1*
X12540D2*
X12885D1*
X14614D2*
X14750D1*
X16986D2*
X17109D1*
X19396D2*
X19525D1*
X4347Y37382D2*
X4756D1*
X6118D2*
X6853D1*
X8021D2*
X9025D1*
X12751D2*
X12856D1*
X17021D2*
X17112D1*
X19396D2*
X19525D1*
X4347Y37134D2*
X4826D1*
X6048D2*
X6623D1*
X7931D2*
X9025D1*
X11571D2*
X11740D1*
X16931D2*
X17111D1*
X19396D2*
X19525D1*
X4347Y36885D2*
X4928D1*
X5946D2*
X6373D1*
X7798D2*
X9025D1*
X11571D2*
X12228D1*
X16798D2*
X17111D1*
X19396D2*
X19525D1*
X4347Y36636D2*
X4783D1*
X7986D2*
X9025D1*
X11571D2*
X12357D1*
X16986D2*
X17109D1*
X19396D2*
X19525D1*
X4347Y36387D2*
X4756D1*
X8021D2*
X9037D1*
X11747D2*
X12357D1*
X17021D2*
X17112D1*
X19396D2*
X19525D1*
X4347Y36139D2*
X4826D1*
X6634D2*
X6939D1*
X7935D2*
X9225D1*
X14614D2*
X14699D1*
X16935D2*
X17111D1*
X19396D2*
X19525D1*
X4347Y35890D2*
X4936D1*
X5939D2*
X7084D1*
X7790D2*
X9475D1*
X14614D2*
X14699D1*
X16790D2*
X17111D1*
X19396D2*
X19525D1*
X4347Y35641D2*
X4787D1*
X6087D2*
X6889D1*
X7982D2*
X9721D1*
X14614D2*
X14699D1*
X16982D2*
X17108D1*
X19396D2*
X19525D1*
X4347Y35393D2*
X4756D1*
X6118D2*
X6853D1*
X8021D2*
X9853D1*
X17021D2*
X17112D1*
X19396D2*
X19525D1*
X4347Y35144D2*
X4822D1*
X6052D2*
X6936D1*
X7939D2*
X9936D1*
X16939D2*
X17111D1*
X19396D2*
X19525D1*
X4347Y34895D2*
X5037D1*
X5837D2*
X7271D1*
X7603D2*
X10123D1*
X11146D2*
X11568D1*
X13091D2*
X13271D1*
X14388D2*
X14693D1*
X16841D2*
X17111D1*
X17849D2*
X18035D1*
X19396D2*
X19525D1*
X4347Y34647D2*
X9877D1*
X10900D2*
X11568D1*
X13091D2*
X13561D1*
X14407D2*
X14678D1*
X16790D2*
X17111D1*
X17849D2*
X18658D1*
X19396D2*
X19525D1*
X4347Y34398D2*
X9627D1*
X10650D2*
X11385D1*
X13091D2*
X13639D1*
X16157D2*
X17111D1*
X17849D2*
X18658D1*
X19396D2*
X19525D1*
X4347Y34149D2*
X9381D1*
X10400D2*
X11088D1*
X12157D2*
X12361D1*
X16193D2*
X17111D1*
X17849D2*
X18658D1*
X19396D2*
X19525D1*
X4347Y33901D2*
X4752D1*
X6122D2*
X6853D1*
X8021D2*
X9303D1*
X10775D2*
X11018D1*
X11907D2*
X12264D1*
X16775D2*
X17111D1*
X19396D2*
X19525D1*
X4347Y33652D2*
X4752D1*
X6122D2*
X6338D1*
X8021D2*
X9303D1*
X10978D2*
X11054D1*
X11794D2*
X12018D1*
X16978D2*
X17115D1*
X19396D2*
X19525D1*
X4347Y33403D2*
X4752D1*
X8021D2*
X9303D1*
X17021D2*
X17112D1*
X19396D2*
X19525D1*
X4347Y33155D2*
X4752D1*
X8021D2*
X9303D1*
X10946D2*
X11057D1*
X12540D2*
X12853D1*
X14302D2*
X14382D1*
X16946D2*
X17111D1*
X19396D2*
X19525D1*
X4347Y32906D2*
X4752D1*
X6614D2*
X6853D1*
X8021D2*
X9303D1*
X10767D2*
X11057D1*
X12603D2*
X12853D1*
X16767D2*
X17111D1*
X19396D2*
X19525D1*
X4347Y32657D2*
X4791D1*
X6364D2*
X6896D1*
X7978D2*
X9303D1*
X10978D2*
X11054D1*
X12802D2*
X12898D1*
X14263D2*
X14379D1*
X16978D2*
X17115D1*
X19396D2*
X19525D1*
X4347Y32408D2*
X4756D1*
X6118D2*
X6853D1*
X8021D2*
X9303D1*
X11794D2*
X12080D1*
X14021D2*
X14381D1*
X17021D2*
X17112D1*
X19396D2*
X19525D1*
X4347Y32160D2*
X4814D1*
X6060D2*
X6924D1*
X7950D2*
X9303D1*
X10950D2*
X11057D1*
X11794D2*
X12080D1*
X12818D2*
X12924D1*
X13950D2*
X14381D1*
X16950D2*
X17111D1*
X19396D2*
X19525D1*
X4347Y31911D2*
X4955D1*
X5919D2*
X7115D1*
X7759D2*
X9303D1*
X10759D2*
X11057D1*
X11794D2*
X12080D1*
X12818D2*
X13115D1*
X13759D2*
X14381D1*
X16759D2*
X17111D1*
X19396D2*
X19525D1*
X4347Y31662D2*
X4795D1*
X7974D2*
X9303D1*
X10974D2*
X11059D1*
X11849D2*
X12080D1*
X12818D2*
X12900D1*
X13974D2*
X14381D1*
X16974D2*
X17114D1*
X19396D2*
X19525D1*
X4347Y31414D2*
X4756D1*
X8021D2*
X9303D1*
X14021D2*
X14381D1*
X17021D2*
X17112D1*
X19396D2*
X19525D1*
X4347Y31165D2*
X4811D1*
X7950D2*
X9303D1*
X11216D2*
X11322D1*
X12818D2*
X12924D1*
X13950D2*
X14381D1*
X19396D2*
X19525D1*
X4347Y30916D2*
X4959D1*
X6427D2*
X7123D1*
X7751D2*
X9303D1*
X12818D2*
X13123D1*
X13751D2*
X14342D1*
X19396D2*
X19525D1*
X4347Y30668D2*
X4795D1*
X6177D2*
X6900D1*
X7974D2*
X9303D1*
X12818D2*
X12900D1*
X13974D2*
X14381D1*
X19396D2*
X19525D1*
X4347Y30419D2*
X4752D1*
X6118D2*
X6853D1*
X8021D2*
X9303D1*
X11298D2*
X11478D1*
X14021D2*
X14381D1*
X19396D2*
X19525D1*
X4347Y30170D2*
X4811D1*
X6064D2*
X6920D1*
X7954D2*
X9303D1*
X12818D2*
X12919D1*
X13954D2*
X14381D1*
X19396D2*
X19525D1*
X4347Y29922D2*
X4967D1*
X5907D2*
X7131D1*
X7743D2*
X9303D1*
X12005D2*
X12080D1*
X12818D2*
X13131D1*
X13743D2*
X14381D1*
X19396D2*
X19525D1*
X4347Y29673D2*
X4799D1*
X6075D2*
X6160D1*
X7970D2*
X9303D1*
X11755D2*
X12080D1*
X12818D2*
X12905D1*
X13970D2*
X14381D1*
X19396D2*
X19525D1*
X4347Y29424D2*
X4752D1*
X8021D2*
X9303D1*
X11571D2*
X12080D1*
X14021D2*
X14381D1*
X19396D2*
X19525D1*
X4347Y29176D2*
X4807D1*
X7958D2*
X9303D1*
X11571D2*
X11732D1*
X12818D2*
X12915D1*
X13958D2*
X14381D1*
X19396D2*
X19525D1*
X4347Y28927D2*
X4971D1*
X6439D2*
X7139D1*
X7732D2*
X9303D1*
X12818D2*
X13139D1*
X13732D2*
X14381D1*
X19396D2*
X19525D1*
X4347Y28678D2*
X4799D1*
X7966D2*
X9303D1*
X12818D2*
X12905D1*
X13966D2*
X14381D1*
X19396D2*
X19525D1*
X4347Y28429D2*
X4752D1*
X8021D2*
X9303D1*
X14021D2*
X14381D1*
X19396D2*
X19525D1*
X4347Y28181D2*
X4807D1*
X7958D2*
X9303D1*
X12818D2*
X12915D1*
X13958D2*
X14381D1*
X19396D2*
X19525D1*
X4347Y27932D2*
X4978D1*
X6443D2*
X7150D1*
X7724D2*
X9303D1*
X11571D2*
X12080D1*
X12818D2*
X13150D1*
X13724D2*
X14381D1*
X19396D2*
X19525D1*
X4347Y27683D2*
X4803D1*
X6193D2*
X6908D1*
X7966D2*
X9303D1*
X11571D2*
X12080D1*
X12818D2*
X12910D1*
X13966D2*
X14381D1*
X19396D2*
X19525D1*
X4347Y27435D2*
X4752D1*
X6122D2*
X6853D1*
X8021D2*
X9303D1*
X11638D2*
X12080D1*
X14021D2*
X14381D1*
X19396D2*
X19525D1*
X4347Y27186D2*
X4803D1*
X6071D2*
X6912D1*
X7962D2*
X9303D1*
X12818D2*
X12910D1*
X13962D2*
X14381D1*
X19396D2*
X19525D1*
X4347Y26937D2*
X4982D1*
X5892D2*
X7158D1*
X7716D2*
X9428D1*
X12818D2*
X13158D1*
X13716D2*
X14381D1*
X19396D2*
X19525D1*
X4347Y26689D2*
X4803D1*
X6071D2*
X6912D1*
X7962D2*
X9674D1*
X12818D2*
X12910D1*
X13962D2*
X14381D1*
X19396D2*
X19525D1*
X4347Y26440D2*
X4752D1*
X6122D2*
X6853D1*
X8021D2*
X9853D1*
X14021D2*
X14381D1*
X19396D2*
X19525D1*
X4347Y26191D2*
X4803D1*
X6071D2*
X6908D1*
X7966D2*
X9908D1*
X13966D2*
X14381D1*
X19396D2*
X19525D1*
X4347Y25943D2*
X4978D1*
X5896D2*
X7150D1*
X7724D2*
X10150D1*
X11298D2*
X12080D1*
X13724D2*
X14381D1*
X17849D2*
X17973D1*
X19396D2*
X19525D1*
X4347Y25694D2*
X10561D1*
X11298D2*
X12080D1*
X13204D2*
X14381D1*
X17884D2*
X18658D1*
X19396D2*
X19525D1*
X4347Y25445D2*
X10561D1*
X11298D2*
X12080D1*
X13091D2*
X14381D1*
X17919D2*
X18658D1*
X19396D2*
X19525D1*
X4347Y25197D2*
X10561D1*
X11298D2*
X12080D1*
X13091D2*
X14381D1*
X17751D2*
X18658D1*
X19396D2*
X19525D1*
X4347Y24948D2*
X4752D1*
X6122D2*
X6853D1*
X8021D2*
X10182D1*
X11298D2*
X12080D1*
X14021D2*
X14381D1*
X17571D2*
X17752D1*
X19396D2*
X19525D1*
X4347Y24699D2*
X4752D1*
X6122D2*
X6389D1*
X8021D2*
X9916D1*
X11298D2*
X12080D1*
X14021D2*
X14381D1*
X17571D2*
X17752D1*
X19396D2*
X19525D1*
X4347Y24450D2*
X4752D1*
X8021D2*
X9853D1*
X11298D2*
X11549D1*
X14021D2*
X14381D1*
X17571D2*
X17752D1*
X19396D2*
X19525D1*
X4347Y24202D2*
X4752D1*
X8021D2*
X9904D1*
X14021D2*
X14381D1*
X17571D2*
X17752D1*
X19396D2*
X19525D1*
X4347Y23953D2*
X4752D1*
X6661D2*
X6853D1*
X8021D2*
X10131D1*
X14021D2*
X14381D1*
X17571D2*
X17752D1*
X19396D2*
X19525D1*
X4347Y23704D2*
X4811D1*
X7954D2*
X9920D1*
X13954D2*
X14381D1*
X17571D2*
X17811D1*
X19396D2*
X19525D1*
X4347Y23456D2*
X4752D1*
X8021D2*
X9853D1*
X12161D2*
X12330D1*
X14021D2*
X14381D1*
X17571D2*
X17752D1*
X19396D2*
X19525D1*
X4347Y23207D2*
X4795D1*
X7974D2*
X9900D1*
X11653D2*
X12080D1*
X13974D2*
X14381D1*
X17571D2*
X17795D1*
X19396D2*
X19525D1*
X4347Y22958D2*
X4959D1*
X6470D2*
X7123D1*
X7751D2*
X10123D1*
X11571D2*
X11834D1*
X12857D2*
X13123D1*
X13751D2*
X14174D1*
X17646D2*
X17959D1*
X19396D2*
X19525D1*
X4347Y22710D2*
X4814D1*
X6220D2*
X6924D1*
X7950D2*
X9924D1*
X12607D2*
X12924D1*
X19396D2*
X19525D1*
X4347Y22461D2*
X4756D1*
X6118D2*
X6853D1*
X8021D2*
X9853D1*
X12540D2*
X12853D1*
X19396D2*
X19525D1*
X4347Y22212D2*
X4795D1*
X6079D2*
X6900D1*
X7974D2*
X9701D1*
X12540D2*
X12721D1*
X14446D2*
X14693D1*
X19396D2*
X19525D1*
X4347Y21964D2*
X4955D1*
X5919D2*
X7111D1*
X7763D2*
X9576D1*
X14200D2*
X14693D1*
X19396D2*
X19525D1*
X4347Y21715D2*
X4814D1*
X6060D2*
X6209D1*
X7946D2*
X9576D1*
X14290D2*
X14693D1*
X19396D2*
X19525D1*
X4347Y21466D2*
X4756D1*
X8021D2*
X9576D1*
X14298D2*
X14693D1*
X19396D2*
X19525D1*
X4347Y21218D2*
X4791D1*
X7978D2*
X9576D1*
X12786D2*
X12896D1*
X14298D2*
X14693D1*
X19396D2*
X19525D1*
X4347Y20969D2*
X4947D1*
X6478D2*
X7103D1*
X7771D2*
X9576D1*
X12306D2*
X13103D1*
X14298D2*
X14693D1*
X19396D2*
X19525D1*
X4347Y20720D2*
X4818D1*
X6232D2*
X6928D1*
X7946D2*
X9576D1*
X12458D2*
X12928D1*
X14298D2*
X14693D1*
X19396D2*
X19525D1*
X4347Y20471D2*
X4756D1*
X6118D2*
X6853D1*
X8021D2*
X9576D1*
X12708D2*
X12853D1*
X14298D2*
X14693D1*
X19396D2*
X19525D1*
X4347Y20223D2*
X4791D1*
X6083D2*
X6896D1*
X7978D2*
X9576D1*
X12818D2*
X12895D1*
X14298D2*
X14693D1*
X19396D2*
X19525D1*
X4347Y19974D2*
X4943D1*
X5931D2*
X7096D1*
X7778D2*
X9576D1*
X12818D2*
X13096D1*
X14298D2*
X14693D1*
X19396D2*
X19525D1*
X4347Y19725D2*
X4818D1*
X6056D2*
X6932D1*
X7943D2*
X9576D1*
X12818D2*
X12932D1*
X14298D2*
X14693D1*
X19396D2*
X19525D1*
X4347Y19477D2*
X4756D1*
X6118D2*
X6853D1*
X8021D2*
X9576D1*
X14298D2*
X14693D1*
X19396D2*
X19525D1*
X4347Y19228D2*
X4787D1*
X6087D2*
X6717D1*
X7982D2*
X9576D1*
X14298D2*
X14693D1*
X19396D2*
X19525D1*
X4347Y18979D2*
X4939D1*
X5935D2*
X6467D1*
X7786D2*
X9576D1*
X11739D2*
X12080D1*
X12818D2*
X13088D1*
X14298D2*
X14693D1*
X19396D2*
X19525D1*
X4347Y18731D2*
X4822D1*
X7939D2*
X9576D1*
X11571D2*
X12080D1*
X14298D2*
X14693D1*
X19396D2*
X19525D1*
X4347Y18482D2*
X4756D1*
X8021D2*
X9576D1*
X11571D2*
X12080D1*
X14298D2*
X14693D1*
X19396D2*
X19525D1*
X4347Y18233D2*
X4787D1*
X6743D2*
X6890D1*
X7986D2*
X9576D1*
X14298D2*
X14693D1*
X19396D2*
X19525D1*
X4347Y17985D2*
X4932D1*
X5939D2*
X7080D1*
X7790D2*
X9576D1*
X14298D2*
X14658D1*
X19396D2*
X19525D1*
X4347Y17736D2*
X4826D1*
X6048D2*
X6939D1*
X7935D2*
X9576D1*
X14361D2*
X14693D1*
X19396D2*
X19525D1*
X4347Y17487D2*
X4756D1*
X6118D2*
X6853D1*
X8021D2*
X9576D1*
X19396D2*
X19525D1*
X4347Y17239D2*
X4783D1*
X6091D2*
X6889D1*
X7986D2*
X9576D1*
X17634D2*
X17787D1*
X19396D2*
X19525D1*
X4347Y16990D2*
X4928D1*
X5946D2*
X7076D1*
X7798D2*
X9576D1*
X14564D2*
X14693D1*
X17630D2*
X17928D1*
X19396D2*
X19525D1*
X4347Y16741D2*
X9576D1*
X10314D2*
X10838D1*
X11689D2*
X11842D1*
X14263D2*
X14693D1*
X16157D2*
X16877D1*
X17614D2*
X18658D1*
X19396D2*
X19525D1*
X4347Y16492D2*
X9576D1*
X10314D2*
X10916D1*
X11939D2*
X12080D1*
X16157D2*
X16553D1*
X17614D2*
X18658D1*
X19396D2*
X19525D1*
X4347Y16244D2*
X9576D1*
X10314D2*
X11166D1*
X16157D2*
X16533D1*
X17614D2*
X18658D1*
X19396D2*
X19525D1*
X4347Y15995D2*
X4752D1*
X6122D2*
X6853D1*
X8021D2*
X9576D1*
X10509D2*
X11412D1*
X16157D2*
X16365D1*
X17614D2*
X17757D1*
X19396D2*
X19525D1*
X4347Y15746D2*
X4752D1*
X6122D2*
X6459D1*
X8021D2*
X9576D1*
X10927D2*
X11568D1*
X14337D2*
X14693D1*
X17614D2*
X17757D1*
X19396D2*
X19525D1*
X4347Y15498D2*
X4752D1*
X8021D2*
X9576D1*
X11021D2*
X11568D1*
X14337D2*
X14693D1*
X17614D2*
X17757D1*
X19396D2*
X19525D1*
X4347Y15249D2*
X4752D1*
X8021D2*
X9576D1*
X14337D2*
X14693D1*
X17614D2*
X17757D1*
X19396D2*
X19525D1*
X4347Y15000D2*
X4752D1*
X6708D2*
X6853D1*
X8021D2*
X9576D1*
X14337D2*
X14693D1*
X17614D2*
X17757D1*
X19396D2*
X19525D1*
X4347Y14752D2*
X4834D1*
X6458D2*
X6947D1*
X7927D2*
X9576D1*
X12818D2*
X12947D1*
X14337D2*
X14693D1*
X17614D2*
X17834D1*
X19396D2*
X19525D1*
X4347Y14503D2*
X4756D1*
X6212D2*
X6857D1*
X8017D2*
X9576D1*
X14337D2*
X14693D1*
X17614D2*
X17757D1*
X19396D2*
X19525D1*
X4347Y14254D2*
X4779D1*
X6095D2*
X6881D1*
X7993D2*
X9576D1*
X11767D2*
X11936D1*
X14337D2*
X14693D1*
X17614D2*
X17779D1*
X19396D2*
X19525D1*
X4347Y14006D2*
X4916D1*
X5958D2*
X7057D1*
X7818D2*
X9576D1*
X11571D2*
X11689D1*
X12708D2*
X13057D1*
X14337D2*
X14693D1*
X17614D2*
X17916D1*
X19396D2*
X19525D1*
X4347Y13757D2*
X4838D1*
X6036D2*
X6287D1*
X7923D2*
X9576D1*
X12462D2*
X12951D1*
X14337D2*
X14693D1*
X17614D2*
X17838D1*
X19396D2*
X19525D1*
X4347Y13508D2*
X4756D1*
X8017D2*
X9576D1*
X12540D2*
X12857D1*
X14337D2*
X14693D1*
X17614D2*
X17757D1*
X19396D2*
X19525D1*
X4347Y13260D2*
X4779D1*
X7993D2*
X9576D1*
X12540D2*
X12881D1*
X14337D2*
X14693D1*
X17614D2*
X17779D1*
X19396D2*
X19525D1*
X4347Y13011D2*
X4908D1*
X6521D2*
X7049D1*
X7825D2*
X9576D1*
X12540D2*
X13049D1*
X14337D2*
X14693D1*
X17614D2*
X17908D1*
X19396D2*
X19525D1*
X4347Y12762D2*
X4838D1*
X6275D2*
X6955D1*
X7919D2*
X8057D1*
X8509D2*
X9576D1*
X12622D2*
X12955D1*
X14337D2*
X14693D1*
X17614D2*
X17838D1*
X19396D2*
X19525D1*
X4347Y12513D2*
X4760D1*
X6114D2*
X6857D1*
X8685D2*
X9576D1*
X14368D2*
X14693D1*
X17614D2*
X17757D1*
X19396D2*
X19525D1*
X4347Y12265D2*
X4775D1*
X6099D2*
X6881D1*
X8653D2*
X9576D1*
X11571D2*
X12100D1*
X14337D2*
X14693D1*
X17614D2*
X17779D1*
X19396D2*
X19525D1*
X4347Y12016D2*
X4904D1*
X5970D2*
X7041D1*
X8653D2*
X9576D1*
X11571D2*
X12346D1*
X13833D2*
X14693D1*
X17614D2*
X17904D1*
X19396D2*
X19525D1*
X4347Y11767D2*
X4842D1*
X6032D2*
X6959D1*
X8653D2*
X9576D1*
X11571D2*
X12572D1*
X13915D2*
X14693D1*
X17614D2*
X17842D1*
X19396D2*
X19525D1*
X4347Y11519D2*
X4760D1*
X6114D2*
X6857D1*
X8653D2*
X9576D1*
X11571D2*
X12572D1*
X14017D2*
X14693D1*
X17614D2*
X17757D1*
X19396D2*
X19525D1*
X4347Y11270D2*
X4775D1*
X6099D2*
X6877D1*
X8653D2*
X9576D1*
X11802D2*
X12572D1*
X13997D2*
X14693D1*
X17614D2*
X17771D1*
X19396D2*
X19525D1*
X4347Y11021D2*
X4900D1*
X5974D2*
X7037D1*
X8653D2*
X9576D1*
X12384D2*
X12572D1*
X13837D2*
X14693D1*
X17614D2*
X17900D1*
X19396D2*
X19525D1*
X4347Y10773D2*
X4846D1*
X6028D2*
X6338D1*
X8653D2*
X9576D1*
X13911D2*
X14693D1*
X17614D2*
X17846D1*
X19396D2*
X19525D1*
X4347Y10524D2*
X4760D1*
X8653D2*
X9576D1*
X14017D2*
X14693D1*
X17614D2*
X17757D1*
X19396D2*
X19525D1*
X4347Y10275D2*
X4775D1*
X8653D2*
X9576D1*
X11298D2*
X11451D1*
X14111D2*
X14693D1*
X17614D2*
X17771D1*
X19396D2*
X19525D1*
X4347Y10027D2*
X4896D1*
X6536D2*
X7029D1*
X8653D2*
X9576D1*
X11298D2*
X12025D1*
X14357D2*
X14693D1*
X17614D2*
X17896D1*
X19396D2*
X19525D1*
X4347Y9778D2*
X4850D1*
X6290D2*
X6368D1*
X9013D2*
X9576D1*
X11298D2*
X12080D1*
X14607D2*
X14695D1*
X17614D2*
X17850D1*
X19396D2*
X19525D1*
X4347Y9529D2*
X4760D1*
X9208D2*
X9576D1*
X11298D2*
X12080D1*
X17614D2*
X17757D1*
X19396D2*
X19525D1*
X4347Y9281D2*
X4771D1*
X9185D2*
X9576D1*
X11298D2*
X12080D1*
X17614D2*
X17771D1*
X19396D2*
X19525D1*
X4347Y9032D2*
X4893D1*
X6544D2*
X7025D1*
X9181D2*
X9576D1*
X15353D2*
X16025D1*
X19396D2*
X19525D1*
X4347Y8783D2*
X4853D1*
X6294D2*
X6971D1*
X9181D2*
X9607D1*
X15603D2*
X15971D1*
X19396D2*
X19525D1*
X4347Y8534D2*
X4760D1*
X6114D2*
X6861D1*
X9181D2*
X9830D1*
X19396D2*
X19525D1*
X4347Y8286D2*
X4771D1*
X6103D2*
X6873D1*
X9181D2*
X9873D1*
X14001D2*
X14079D1*
X19396D2*
X19525D1*
X4347Y8037D2*
X4889D1*
X5986D2*
X7021D1*
X9353D2*
X10021D1*
X11298D2*
X12088D1*
X13853D2*
X14326D1*
X17548D2*
X17889D1*
X19396D2*
X19525D1*
X4347Y7788D2*
X5299D1*
X5577D2*
X7037D1*
X9614D2*
X10561D1*
X11298D2*
X12264D1*
X13282D2*
X14576D1*
X19396D2*
X19525D1*
X4347Y7540D2*
X6791D1*
X7810D2*
X7914D1*
X9861D2*
X10561D1*
X11298D2*
X12510D1*
X13845D2*
X14822D1*
X19396D2*
X19525D1*
X4347Y7291D2*
X6541D1*
X7564D2*
X7752D1*
X10107D2*
X10561D1*
X11298D2*
X12760D1*
X14001D2*
X15135D1*
X19396D2*
X19525D1*
X4347Y7042D2*
X6443D1*
X7314D2*
X7510D1*
X9181D2*
X9338D1*
X10181D2*
X10510D1*
X11298D2*
X12853D1*
X14021D2*
X17853D1*
X19396D2*
X19525D1*
X6208Y6794D2*
X6416D1*
X7208D2*
X7416D1*
X9208D2*
X9416D1*
X10208D2*
X10416D1*
X11255D2*
X11418D1*
X12208D2*
X12955D1*
X13919D2*
X17955D1*
X19396D2*
X19525D1*
X19396Y6545D2*
X19525D1*
X19310Y6296D2*
X19525D1*
X19060Y6048D2*
X19525D1*
X12318Y5799D2*
X19525D1*
X4347Y5550D2*
X19525D1*
X4347Y5302D2*
X19525D1*
X4347Y5053D2*
X19525D1*
X4347Y4804D2*
X19525D1*
X4347Y4555D2*
X19525D1*
X12503Y50938D2*
X12464Y50820D1*
X12400Y50713D1*
X12314Y50622D1*
X12211Y50551D1*
X12096Y50504D1*
X11973Y50483D1*
X11852Y50489D1*
X11768Y50407D1*
X11769Y49640D1*
X12517Y49642D1*
Y48966D1*
X12558Y48927D1*
X12561Y48976D1*
X12596Y49095D1*
X12667Y49197D1*
X12768Y49271D1*
X12890Y49308D1*
X12877Y49427D1*
X12889Y49551D1*
X12927Y49670D1*
X12992Y49777D1*
X13078Y49867D1*
X13186Y49937D1*
X13093Y49995D1*
X13004Y50082D1*
X12936Y50186D1*
X12893Y50303D1*
X12877Y50427D1*
X12889Y50551D1*
X12927Y50670D1*
X12992Y50777D1*
X13094Y50878D1*
X12877Y50877D1*
Y51997D1*
X13997D1*
Y51360D1*
X14086Y51274D1*
X15902Y51273D1*
X15877Y51427D1*
X15889Y51551D1*
X15927Y51670D1*
X15992Y51777D1*
X16078Y51867D1*
X16182Y51936D1*
X16299Y51980D1*
X16422Y51997D1*
X16546Y51986D1*
X16665Y51949D1*
X16773Y51885D1*
X16864Y51800D1*
X16933Y51697D1*
X16979Y51580D1*
X16997Y51437D1*
X16983Y51313D1*
X16969Y51273D1*
X17024Y51267D1*
X17139Y51221D1*
X17290Y51084D1*
X17591Y50783D1*
X17775Y50781D1*
X17778Y51903D1*
Y52096D1*
X19096D1*
Y50778D1*
X18998D1*
X19044Y50693D1*
X19081Y50574D1*
X19096Y50437D1*
X19084Y50313D1*
X19049Y50193D1*
X18992Y50082D1*
X18915Y49984D1*
X18865Y49940D1*
X18984Y49803D1*
X19044Y49693D1*
X19081Y49574D1*
X19096Y49437D1*
X19084Y49313D1*
X19049Y49193D1*
X18992Y49082D1*
X18915Y48984D1*
X18865Y48940D1*
X18984Y48803D1*
X19044Y48693D1*
X19081Y48574D1*
X19096Y48437D1*
X19084Y48313D1*
X19049Y48193D1*
X18992Y48082D1*
X18915Y47984D1*
X18865Y47940D1*
X18984Y47803D1*
X19044Y47693D1*
X19081Y47574D1*
X19096Y47437D1*
X19084Y47313D1*
X19049Y47193D1*
X18992Y47082D1*
X18915Y46984D1*
X18865Y46940D1*
X18984Y46803D1*
X19044Y46693D1*
X19081Y46574D1*
X19096Y46437D1*
X19084Y46313D1*
X19049Y46193D1*
X18992Y46082D1*
X18915Y45984D1*
X18865Y45940D1*
X18984Y45803D1*
X19044Y45693D1*
X19081Y45574D1*
X19096Y45437D1*
X19084Y45313D1*
X19049Y45193D1*
X18992Y45082D1*
X18915Y44984D1*
X18865Y44940D1*
X18984Y44803D1*
X19044Y44693D1*
X19081Y44574D1*
X19096Y44437D1*
X19084Y44313D1*
X19049Y44193D1*
X18992Y44082D1*
X18915Y43984D1*
X18821Y43902D1*
X18713Y43839D1*
X18595Y43798D1*
X18472Y43779D1*
X18347Y43785D1*
X18225Y43813D1*
X18112Y43864D1*
X18009Y43936D1*
X17923Y44026D1*
X17854Y44130D1*
X17807Y44246D1*
X17782Y44368D1*
X17781Y44493D1*
X17803Y44616D1*
X17848Y44732D1*
X17914Y44838D1*
X18009Y44936D1*
X17923Y45026D1*
X17854Y45130D1*
X17807Y45246D1*
X17782Y45368D1*
X17781Y45493D1*
X17803Y45616D1*
X17848Y45732D1*
X17914Y45838D1*
X18009Y45936D1*
X17923Y46026D1*
X17854Y46130D1*
X17807Y46246D1*
X17782Y46368D1*
X17781Y46493D1*
X17803Y46616D1*
X17848Y46732D1*
X17914Y46838D1*
X18009Y46936D1*
X17923Y47026D1*
X17854Y47130D1*
X17807Y47246D1*
X17782Y47368D1*
X17781Y47493D1*
X17798Y47589D1*
X17265Y48123D1*
X17195Y48225D1*
X17165Y48366D1*
Y49510D1*
X16997Y49457D1*
X16983Y49313D1*
X16942Y49195D1*
X16876Y49089D1*
X16788Y49001D1*
X16687Y48936D1*
X16773Y48885D1*
X16864Y48800D1*
X16933Y48697D1*
X16979Y48580D1*
X16997Y48437D1*
X16983Y48313D1*
X16942Y48195D1*
X16876Y48089D1*
X16788Y48001D1*
X16687Y47936D1*
X16773Y47885D1*
X16864Y47800D1*
X16933Y47697D1*
X16979Y47580D1*
X16997Y47437D1*
X16983Y47313D1*
X16942Y47195D1*
X16876Y47089D1*
X16788Y47001D1*
X16687Y46936D1*
X16773Y46885D1*
X16864Y46800D1*
X16933Y46697D1*
X16979Y46580D1*
X16997Y46437D1*
X16983Y46313D1*
X16942Y46195D1*
X16876Y46089D1*
X16788Y46001D1*
X16687Y45936D1*
X16773Y45885D1*
X16864Y45800D1*
X16933Y45697D1*
X16979Y45580D1*
X16997Y45437D1*
X16983Y45313D1*
X16942Y45195D1*
X16876Y45089D1*
X16788Y45001D1*
X16687Y44936D1*
X16773Y44885D1*
X16864Y44800D1*
X16933Y44697D1*
X16979Y44580D1*
X16997Y44437D1*
X16990Y44371D1*
X17987Y43374D1*
X19028Y43371D1*
X19150Y43349D1*
X19256Y43284D1*
X19332Y43186D1*
X19369Y43063D1*
X19371Y42028D1*
Y6525D1*
X19349Y6403D1*
X19271Y6282D1*
X18995Y6006D1*
X18893Y5936D1*
X18752Y5906D1*
X12373D1*
X12290Y5796D1*
X12196Y5714D1*
X12088Y5651D1*
X11970Y5610D1*
X11847Y5592D1*
X11722Y5597D1*
X11601Y5626D1*
X11487Y5677D1*
X11385Y5749D1*
X11311Y5824D1*
X11196Y5714D1*
X11088Y5651D1*
X10970Y5610D1*
X10847Y5592D1*
X10722Y5597D1*
X10601Y5626D1*
X10487Y5677D1*
X10385Y5749D1*
X10311Y5824D1*
X10196Y5714D1*
X10088Y5651D1*
X9970Y5610D1*
X9847Y5592D1*
X9722Y5597D1*
X9601Y5626D1*
X9487Y5677D1*
X9385Y5749D1*
X9311Y5824D1*
X9196Y5714D1*
X9088Y5651D1*
X8970Y5610D1*
X8847Y5592D1*
X8722Y5597D1*
X8601Y5626D1*
X8487Y5677D1*
X8385Y5749D1*
X8311Y5824D1*
X8196Y5714D1*
X8088Y5651D1*
X7970Y5610D1*
X7847Y5592D1*
X7722Y5597D1*
X7601Y5626D1*
X7487Y5677D1*
X7385Y5749D1*
X7311Y5824D1*
X7196Y5714D1*
X7088Y5651D1*
X6970Y5610D1*
X6847Y5592D1*
X6722Y5597D1*
X6601Y5626D1*
X6487Y5677D1*
X6385Y5749D1*
X6311Y5824D1*
X6196Y5714D1*
X6088Y5651D1*
X5970Y5610D1*
X5847Y5592D1*
X5722Y5597D1*
X5601Y5626D1*
X5471Y5688D1*
Y5591D1*
X4318D1*
X4322Y5052D1*
Y4322D1*
X19552D1*
Y52552D1*
X4322D1*
Y6908D1*
X5471D1*
X5475Y6815D1*
X5588Y6869D1*
X5709Y6900D1*
X5834Y6908D1*
X5957Y6892D1*
X6076Y6853D1*
X6185Y6792D1*
X6281Y6712D1*
X6313Y6673D1*
X6375Y6742D1*
X6466Y6809D1*
X6469Y7052D1*
X6491Y7174D1*
X6569Y7295D1*
X7200Y7930D1*
X7093Y7995D1*
X7004Y8082D1*
X6936Y8186D1*
X6893Y8303D1*
X6877Y8427D1*
X6889Y8551D1*
X6927Y8670D1*
X6992Y8777D1*
X7078Y8867D1*
X7186Y8937D1*
X7093Y8995D1*
X6998Y9091D1*
X6582Y9093D1*
X6075Y8589D1*
X6096Y8437D1*
X6084Y8313D1*
X6049Y8193D1*
X5992Y8082D1*
X5915Y7984D1*
X5821Y7902D1*
X5713Y7839D1*
X5595Y7798D1*
X5472Y7779D1*
X5347Y7785D1*
X5225Y7813D1*
X5112Y7864D1*
X5009Y7936D1*
X4923Y8026D1*
X4854Y8130D1*
X4807Y8246D1*
X4782Y8368D1*
X4781Y8493D1*
X4803Y8616D1*
X4848Y8732D1*
X4914Y8838D1*
X5009Y8936D1*
X4923Y9026D1*
X4854Y9130D1*
X4807Y9246D1*
X4782Y9368D1*
X4781Y9493D1*
X4803Y9616D1*
X4848Y9732D1*
X4914Y9838D1*
X5009Y9936D1*
X4923Y10026D1*
X4854Y10130D1*
X4807Y10246D1*
X4782Y10368D1*
X4781Y10493D1*
X4803Y10616D1*
X4848Y10732D1*
X4914Y10838D1*
X5009Y10936D1*
X4923Y11026D1*
X4854Y11130D1*
X4807Y11246D1*
X4782Y11368D1*
X4781Y11493D1*
X4803Y11616D1*
X4848Y11732D1*
X4914Y11838D1*
X5009Y11936D1*
X4923Y12026D1*
X4854Y12130D1*
X4807Y12246D1*
X4782Y12368D1*
X4781Y12493D1*
X4803Y12616D1*
X4848Y12732D1*
X4914Y12838D1*
X5009Y12936D1*
X4923Y13026D1*
X4854Y13130D1*
X4807Y13246D1*
X4782Y13368D1*
X4781Y13493D1*
X4803Y13616D1*
X4848Y13732D1*
X4914Y13838D1*
X5009Y13936D1*
X4923Y14026D1*
X4854Y14130D1*
X4807Y14246D1*
X4782Y14368D1*
X4781Y14493D1*
X4803Y14616D1*
X4848Y14732D1*
X4879Y14782D1*
X4778Y14778D1*
Y16096D1*
X6096D1*
X6098Y15387D1*
X6391Y15680D1*
X6493Y15751D1*
X6634Y15781D1*
X6880D1*
X6877Y15997D1*
X7997D1*
Y14877D1*
X7782D1*
X7864Y14800D1*
X7933Y14697D1*
X7979Y14580D1*
X7997Y14437D1*
X7983Y14313D1*
X7942Y14195D1*
X7876Y14089D1*
X7788Y14001D1*
X7687Y13936D1*
X7773Y13885D1*
X7864Y13800D1*
X7933Y13697D1*
X7979Y13580D1*
X7997Y13437D1*
X7983Y13313D1*
X7942Y13195D1*
X7876Y13089D1*
X7788Y13001D1*
X7687Y12936D1*
X7773Y12885D1*
X7864Y12800D1*
X7933Y12697D1*
X7957Y12635D1*
X8010Y12705D1*
X8110Y12779D1*
X8229Y12816D1*
X8353Y12814D1*
X8470Y12771D1*
X8568Y12694D1*
X8635Y12589D1*
X8666Y12437D1*
X8646Y12314D1*
X8626Y12276D1*
X8627Y9769D1*
X8757Y9816D1*
X8882Y9814D1*
X8999Y9771D1*
X9096Y9694D1*
X9164Y9589D1*
X9195Y9437D1*
X9175Y9314D1*
X9155Y9276D1*
X9156Y8050D1*
X9291Y8046D1*
X9408Y8004D1*
X9506Y7926D1*
X9573Y7822D1*
X9580Y7795D1*
X10055Y7322D1*
X10126Y7219D1*
X10156Y7079D1*
Y6809D1*
X10281Y6712D1*
X10313Y6673D1*
X10375Y6742D1*
X10466Y6809D1*
X10491Y6962D1*
X10569Y7083D1*
X10586Y7100D1*
X10585Y7898D1*
X10442Y7877D1*
X10318Y7890D1*
X10200Y7930D1*
X10093Y7995D1*
X10004Y8082D1*
X9936Y8186D1*
X9893Y8303D1*
X9877Y8427D1*
X9884Y8501D1*
X9702Y8686D1*
X9631Y8788D1*
X9601Y8929D1*
Y21945D1*
X9624Y22067D1*
X9702Y22188D1*
X9881Y22367D1*
X9877Y22427D1*
X9889Y22551D1*
X9927Y22670D1*
X9992Y22777D1*
X10078Y22867D1*
X10186Y22937D1*
X10093Y22995D1*
X10004Y23082D1*
X9936Y23186D1*
X9893Y23303D1*
X9877Y23427D1*
X9889Y23551D1*
X9927Y23670D1*
X9992Y23777D1*
X10078Y23867D1*
X10186Y23937D1*
X10093Y23995D1*
X10004Y24082D1*
X9936Y24186D1*
X9893Y24303D1*
X9877Y24427D1*
X9889Y24551D1*
X9927Y24670D1*
X9992Y24777D1*
X10078Y24867D1*
X10182Y24936D1*
X10299Y24980D1*
X10422Y24997D1*
X10546Y24986D1*
X10587Y24973D1*
X10585Y25894D1*
X10442Y25877D1*
X10318Y25890D1*
X10200Y25930D1*
X10093Y25995D1*
X10004Y26082D1*
X9936Y26186D1*
X9893Y26303D1*
X9877Y26427D1*
X9884Y26501D1*
X9426Y26962D1*
X9356Y27064D1*
X9326Y27205D1*
Y33929D1*
X9348Y34051D1*
X9426Y34172D1*
X10191Y34937D1*
X10093Y34995D1*
X10004Y35082D1*
X9936Y35186D1*
X9893Y35303D1*
X9877Y35427D1*
X9884Y35501D1*
X9151Y36237D1*
X9080Y36340D1*
X9050Y36480D1*
Y48394D1*
X9073Y48516D1*
X9151Y48637D1*
X9883Y49369D1*
X9877Y49427D1*
X9889Y49551D1*
X9927Y49670D1*
X9992Y49777D1*
X10078Y49867D1*
X10186Y49937D1*
X10093Y49995D1*
X10004Y50082D1*
X9936Y50186D1*
X9893Y50303D1*
X9877Y50427D1*
X9889Y50551D1*
X9927Y50670D1*
X9992Y50777D1*
X10078Y50867D1*
X10186Y50937D1*
X10093Y50995D1*
X10004Y51082D1*
X9936Y51186D1*
X9893Y51303D1*
X9877Y51427D1*
X9889Y51551D1*
X9927Y51670D1*
X9992Y51777D1*
X10078Y51867D1*
X10182Y51936D1*
X10299Y51980D1*
X10422Y51997D1*
X10546Y51986D1*
X10665Y51949D1*
X10773Y51885D1*
X10864Y51800D1*
X10933Y51697D1*
X10979Y51580D1*
X10997Y51437D1*
X10983Y51313D1*
X10942Y51195D1*
X10876Y51089D1*
X10788Y51001D1*
X10687Y50936D1*
X10773Y50885D1*
X10864Y50800D1*
X10933Y50697D1*
X10979Y50580D1*
X10997Y50437D1*
X10983Y50313D1*
X10942Y50195D1*
X10876Y50089D1*
X10788Y50001D1*
X10687Y49936D1*
X10773Y49885D1*
X10864Y49800D1*
X10933Y49697D1*
X10979Y49580D1*
X10997Y49437D1*
X10983Y49313D1*
X10942Y49195D1*
X10876Y49089D1*
X10788Y49001D1*
X10687Y48936D1*
X10773Y48885D1*
X10864Y48800D1*
X10933Y48697D1*
X10979Y48580D1*
X10997Y48437D1*
X10972Y48280D1*
X11082Y48198D1*
Y50550D1*
X11104Y50672D1*
X11182Y50793D1*
X11362Y50973D1*
X11360Y51115D1*
X11384Y51237D1*
X11435Y51352D1*
X11508Y51452D1*
X11602Y51535D1*
X11711Y51596D1*
X11830Y51632D1*
X11954Y51642D1*
X12078Y51625D1*
X12195Y51581D1*
X12300Y51514D1*
X12388Y51426D1*
X12456Y51321D1*
X12499Y51204D1*
X12517Y51062D1*
X12503Y50938D1*
X12029Y48482D2*
X11771D1*
X11769Y47343D1*
X11848Y47262D1*
X11954Y47267D1*
X12104Y47240D1*
X12105Y48406D1*
X12107Y46134D2*
X11973Y46108D1*
X11852Y46114D1*
X11768Y46032D1*
X11769Y45265D1*
X12033Y45267D1*
X12106Y45342D1*
X12105Y46132D1*
X11364Y46604D2*
X11360Y46740D1*
X11367Y46775D1*
X11182Y46956D1*
X11112Y47058D1*
X11082Y47199D1*
Y47656D1*
X11026Y47611D1*
X10973Y47587D1*
X10997Y47457D1*
X10983Y47313D1*
X10942Y47195D1*
X10876Y47089D1*
X10788Y47001D1*
X10687Y46936D1*
X10773Y46885D1*
X10864Y46800D1*
X10933Y46697D1*
X10979Y46580D1*
X10997Y46437D1*
X10983Y46313D1*
X10942Y46195D1*
X10876Y46089D1*
X10788Y46001D1*
X10687Y45936D1*
X10773Y45885D1*
X10864Y45800D1*
X10933Y45697D1*
X10979Y45580D1*
X10997Y45437D1*
X10983Y45313D1*
X10942Y45195D1*
X10876Y45089D1*
X10788Y45001D1*
X10687Y44936D1*
X10773Y44885D1*
X10864Y44800D1*
X10933Y44697D1*
X10979Y44580D1*
X10997Y44437D1*
X10985Y44325D1*
X11083Y44291D1*
X11082Y46175D1*
X11104Y46297D1*
X11182Y46418D1*
X11362Y46598D1*
X12023Y41492D2*
X11973Y41483D1*
X11848Y41489D1*
X11728Y41521D1*
X11617Y41578D1*
X11521Y41658D1*
X11444Y41757D1*
X11390Y41869D1*
X11362Y41990D1*
X11367Y42150D1*
X11271Y42242D1*
X11273Y41902D1*
X12105Y41074D1*
Y41406D1*
X12026Y41487D1*
X11849Y42633D2*
X11954Y42642D1*
X12078Y42625D1*
X12195Y42581D1*
X12300Y42514D1*
X12388Y42426D1*
X12456Y42321D1*
X12499Y42204D1*
X12517Y42062D1*
X12508Y41981D1*
X12692Y41793D1*
X12762Y41691D1*
X12792Y41550D1*
Y38199D1*
X12770Y38077D1*
X12692Y37956D1*
X12512Y37776D1*
X12517Y37687D1*
X12508Y37606D1*
X12950Y37160D1*
X12893Y37303D1*
X12877Y37427D1*
X12889Y37551D1*
X12927Y37670D1*
X12992Y37777D1*
X13078Y37867D1*
X13186Y37937D1*
X13093Y37995D1*
X13004Y38082D1*
X12936Y38186D1*
X12893Y38303D1*
X12877Y38427D1*
X12889Y38551D1*
X12927Y38670D1*
X12992Y38777D1*
X13078Y38867D1*
X13186Y38937D1*
X13093Y38995D1*
X13004Y39082D1*
X12936Y39186D1*
X12893Y39303D1*
X12877Y39427D1*
X12889Y39551D1*
X12927Y39670D1*
X12992Y39777D1*
X13078Y39867D1*
X13186Y39937D1*
X13093Y39995D1*
X13004Y40082D1*
X12936Y40186D1*
X12893Y40303D1*
X12877Y40427D1*
X12889Y40551D1*
X12927Y40670D1*
X12992Y40777D1*
X13078Y40867D1*
X13186Y40937D1*
X13093Y40995D1*
X13004Y41082D1*
X12936Y41186D1*
X12893Y41303D1*
X12877Y41427D1*
X12889Y41551D1*
X12927Y41670D1*
X12992Y41777D1*
X13094Y41878D1*
X12877Y41877D1*
Y42997D1*
X13584D1*
X13585Y43605D1*
X13404Y43426D1*
X13302Y43356D1*
X13161Y43326D1*
X12213D1*
X12090Y43348D1*
X11970Y43426D1*
X11768Y43628D1*
X11769Y42718D1*
X11848Y42637D1*
X11482Y40642D2*
X11564D1*
X10962Y41242D1*
X10876Y41089D1*
X10788Y41001D1*
X10687Y40936D1*
X10773Y40885D1*
X10864Y40800D1*
X10933Y40697D1*
X10979Y40580D1*
X10997Y40437D1*
X10990Y40371D1*
X11172Y40188D1*
X11243Y40086D1*
X11273Y39945D1*
Y39886D1*
X11357Y39968D1*
Y40642D1*
X11482D1*
X12107Y39482D2*
X11841D1*
X11547Y39186D1*
X11548Y38115D1*
X11602Y38160D1*
X11711Y38221D1*
X11830Y38257D1*
X11954Y38267D1*
X12020Y38258D1*
X12106Y38342D1*
X12105Y39484D1*
X12023Y37117D2*
X11973Y37108D1*
X11848Y37114D1*
X11728Y37146D1*
X11617Y37203D1*
X11548Y37261D1*
Y36560D1*
X11843Y36267D1*
X12384D1*
X12381Y36756D1*
X12026Y37112D1*
X11591Y35107D2*
X11357D1*
Y35783D1*
X11271Y35867D1*
X11273Y35189D1*
X11250Y35067D1*
X11172Y34946D1*
X10136Y33910D1*
X10299Y33980D1*
X10422Y33997D1*
X10546Y33986D1*
X10665Y33949D1*
X10773Y33885D1*
X10864Y33800D1*
X10933Y33697D1*
X10979Y33580D1*
X10997Y33437D1*
X10983Y33313D1*
X10942Y33195D1*
X10876Y33089D1*
X10788Y33001D1*
X10687Y32936D1*
X10773Y32885D1*
X10864Y32800D1*
X10933Y32697D1*
X10979Y32580D1*
X10997Y32437D1*
X10983Y32313D1*
X10942Y32195D1*
X10876Y32089D1*
X10788Y32001D1*
X10687Y31936D1*
X10773Y31885D1*
X10864Y31800D1*
X10933Y31697D1*
X10979Y31580D1*
X10997Y31437D1*
X10990Y31371D1*
X11172Y31188D1*
X11243Y31086D1*
X11273Y30945D1*
Y30183D1*
X11567Y30481D1*
X11357Y30482D1*
Y31158D1*
X11182Y31331D1*
X11112Y31433D1*
X11082Y31574D1*
Y33757D1*
X11050Y33851D1*
X11045Y33976D1*
X11080Y34095D1*
X11151Y34197D1*
X11252Y34271D1*
X11293Y34284D1*
X11594Y34584D1*
X11593Y35109D1*
X12023Y32492D2*
X11973Y32483D1*
X11848Y32489D1*
X11769Y32510D1*
Y31714D1*
X11857Y31642D1*
X12103D1*
X12105Y32410D1*
X12026Y32487D1*
X11767Y33613D2*
X11830Y33632D1*
X11954Y33642D1*
X12020Y33633D1*
X12426Y34037D1*
X12411Y34064D1*
X12381Y34205D1*
Y35107D1*
X12281Y35062D1*
Y34441D1*
X12258Y34319D1*
X12180Y34198D1*
X11785Y33803D1*
X11769Y33621D1*
X12507Y33146D2*
X12517Y33062D1*
X12508Y32981D1*
X12692Y32793D1*
X12762Y32691D1*
X12792Y32550D1*
Y26277D1*
X12882Y26368D1*
X12877Y26427D1*
X12889Y26551D1*
X12927Y26670D1*
X12992Y26777D1*
X13078Y26867D1*
X13186Y26937D1*
X13093Y26995D1*
X13004Y27082D1*
X12936Y27186D1*
X12893Y27303D1*
X12877Y27427D1*
X12889Y27551D1*
X12927Y27670D1*
X12992Y27777D1*
X13078Y27867D1*
X13186Y27937D1*
X13093Y27995D1*
X13004Y28082D1*
X12936Y28186D1*
X12893Y28303D1*
X12877Y28427D1*
X12889Y28551D1*
X12927Y28670D1*
X12992Y28777D1*
X13078Y28867D1*
X13186Y28937D1*
X13093Y28995D1*
X13004Y29082D1*
X12936Y29186D1*
X12893Y29303D1*
X12877Y29427D1*
X12889Y29551D1*
X12927Y29670D1*
X12992Y29777D1*
X13078Y29867D1*
X13186Y29937D1*
X13093Y29995D1*
X13004Y30082D1*
X12936Y30186D1*
X12893Y30303D1*
X12877Y30427D1*
X12889Y30551D1*
X12927Y30670D1*
X12992Y30777D1*
X13078Y30867D1*
X13186Y30937D1*
X13093Y30995D1*
X13004Y31082D1*
X12936Y31186D1*
X12893Y31303D1*
X12877Y31427D1*
X12889Y31551D1*
X12927Y31670D1*
X12992Y31777D1*
X13078Y31867D1*
X13186Y31937D1*
X13093Y31995D1*
X13004Y32082D1*
X12936Y32186D1*
X12893Y32303D1*
X12877Y32427D1*
X12889Y32551D1*
X12927Y32670D1*
X12992Y32777D1*
X13094Y32878D1*
X12877Y32877D1*
Y33514D1*
X12509Y33148D1*
X12107Y28071D2*
X11973Y28046D1*
X11848Y28051D1*
X11728Y28084D1*
X11617Y28141D1*
X11548Y28198D1*
Y27496D1*
X11843Y27205D1*
X12103Y27204D1*
X12105Y28070D1*
X11546Y29048D2*
X11602Y29098D1*
X11711Y29158D1*
X11830Y29194D1*
X11954Y29204D1*
X12104Y29178D1*
X12105Y30050D1*
X11547Y29490D1*
X11548Y29051D1*
X12107Y26045D2*
X11357D1*
Y26720D1*
X11271Y26804D1*
X11273Y23824D1*
X11362Y23911D1*
X11360Y24053D1*
X11384Y24175D1*
X11435Y24289D1*
X11508Y24390D1*
X11602Y24473D1*
X11711Y24533D1*
X11830Y24569D1*
X11954Y24579D1*
X12020Y24570D1*
X12106Y24654D1*
X12105Y26046D1*
X12381Y23630D2*
X12314Y23559D1*
X12211Y23489D1*
X12096Y23442D1*
X11973Y23421D1*
X11852Y23426D1*
X11547Y23124D1*
X11548Y22576D1*
X11600Y22616D1*
X11645Y22732D1*
X11782Y22883D1*
X12382Y23482D1*
X12381Y23624D1*
X12455Y22579D2*
X12517D1*
Y21990D1*
X12698Y22172D1*
X12804Y22244D1*
X12865Y22264D1*
X12893Y22303D1*
X12877Y22427D1*
X12889Y22551D1*
X12927Y22670D1*
X12992Y22777D1*
X13078Y22867D1*
X13186Y22937D1*
X13093Y22995D1*
X12985Y23111D1*
X12451Y22579D1*
X12107Y19134D2*
X11973Y19108D1*
X11852Y19114D1*
X11547Y18811D1*
X11548Y18263D1*
X12033Y18267D1*
X12106Y18342D1*
X12105Y19132D1*
X12084Y14377D2*
X11973Y14358D1*
X11852Y14364D1*
X11547Y14061D1*
X11548Y13513D1*
X11593Y13562D1*
Y13744D1*
X11616Y13866D1*
X11694Y13987D1*
X12083Y14377D1*
X11474Y15280D2*
X11508Y15327D1*
X11593Y15402D1*
Y15839D1*
X10962Y16472D1*
X10891Y16574D1*
X10861Y16715D1*
Y17070D1*
X10788Y17001D1*
X10683Y16934D1*
X10566Y16892D1*
X10442Y16877D1*
X10292Y16898D1*
X10289Y16195D1*
Y15980D1*
X10422Y15997D1*
X10546Y15986D1*
X10665Y15949D1*
X10773Y15885D1*
X10864Y15800D1*
X10933Y15697D1*
X10979Y15580D1*
X10997Y15437D1*
X10990Y15371D1*
X11081Y15280D1*
X11472Y15281D1*
X12283Y13517D2*
X12517D1*
Y12841D1*
X12879Y12481D1*
X12889Y12551D1*
X12927Y12670D1*
X12992Y12777D1*
X13078Y12867D1*
X13186Y12937D1*
X13093Y12995D1*
X13004Y13082D1*
X12936Y13186D1*
X12893Y13303D1*
X12877Y13427D1*
X12889Y13551D1*
X12927Y13670D1*
X12992Y13777D1*
X13078Y13867D1*
X13186Y13937D1*
X13093Y13995D1*
X13004Y14082D1*
X12936Y14186D1*
X12893Y14303D1*
X12877Y14427D1*
X12889Y14551D1*
X12927Y14670D1*
X12992Y14777D1*
X13094Y14878D1*
X12877Y14877D1*
X12871Y15679D1*
X12792Y15769D1*
Y14256D1*
X12770Y14134D1*
X12692Y14013D1*
X12280Y13601D1*
X12029Y12357D2*
X11552D1*
X11548Y11955D1*
Y11498D1*
X11848Y11199D1*
X11954Y11204D1*
X12078Y11187D1*
X12195Y11144D1*
X12300Y11077D1*
X12388Y10988D1*
X12456Y10884D1*
X12499Y10767D1*
X12517Y10625D1*
X12508Y10543D1*
X12597Y10450D1*
Y11789D1*
X12032Y12356D1*
X12023Y10054D2*
X11973Y10046D1*
X11848Y10051D1*
X11728Y10084D1*
X11617Y10141D1*
X11521Y10221D1*
X11444Y10319D1*
X11390Y10431D1*
X11362Y10553D1*
X11367Y10712D1*
X11271Y10804D1*
X11273Y6957D1*
X11248Y6831D1*
X11224Y6781D1*
X11313Y6673D1*
X11375Y6742D1*
X11475Y6815D1*
X11588Y6869D1*
X11709Y6900D1*
X11834Y6908D1*
X11957Y6892D1*
X12076Y6853D1*
X12185Y6792D1*
X12281Y6712D1*
X12373Y6592D1*
X13246Y6593D1*
X13099Y6672D1*
X13008Y6757D1*
X12938Y6860D1*
X12892Y6976D1*
X12873Y7100D1*
X12879Y7197D1*
X12206Y7870D1*
X12134Y7976D1*
X12114Y8036D1*
X11892Y8045D1*
X11357D1*
Y9204D1*
X12103D1*
X12105Y9968D1*
X12026Y10049D1*
X6093Y14410D2*
X6084Y14313D1*
X6049Y14193D1*
X5992Y14082D1*
X5915Y13984D1*
X5865Y13940D1*
X5984Y13803D1*
X6044Y13693D1*
X6082Y13570D1*
X6194Y13680D1*
X6296Y13751D1*
X6437Y13781D1*
X6996D1*
X7078Y13867D1*
X7186Y13937D1*
X7093Y13995D1*
X7004Y14082D1*
X6936Y14186D1*
X6893Y14303D1*
X6877Y14427D1*
X6889Y14551D1*
X6927Y14670D1*
X6992Y14777D1*
X7094Y14878D1*
X6877Y14877D1*
Y15092D1*
X6777Y15093D1*
X6095Y14412D1*
X6084Y12313D2*
X6049Y12193D1*
X5992Y12082D1*
X5915Y11984D1*
X5865Y11940D1*
X5984Y11803D1*
X6044Y11693D1*
X6081Y11574D1*
X6096Y11437D1*
X6084Y11313D1*
X6049Y11193D1*
X5992Y11082D1*
X5915Y10984D1*
X5865Y10940D1*
X5984Y10803D1*
X6044Y10693D1*
X6082Y10570D1*
X6194Y10680D1*
X6296Y10751D1*
X6437Y10781D1*
X6996D1*
X7078Y10867D1*
X7186Y10937D1*
X7093Y10995D1*
X7004Y11082D1*
X6936Y11186D1*
X6893Y11303D1*
X6877Y11427D1*
X6889Y11551D1*
X6927Y11670D1*
X6992Y11777D1*
X7078Y11867D1*
X7186Y11937D1*
X7093Y11995D1*
X7004Y12082D1*
X6936Y12186D1*
X6893Y12303D1*
X6877Y12427D1*
X6889Y12551D1*
X6927Y12670D1*
X6992Y12777D1*
X7078Y12867D1*
X7186Y12937D1*
X7093Y12995D1*
X6998Y13091D1*
X6582Y13093D1*
X6075Y12589D1*
X6096Y12437D1*
X6084Y12313D1*
X6075Y9593D2*
X6082Y9570D1*
X6150Y9664D1*
X6075Y9589D1*
X6194Y9680D1*
X6296Y9751D1*
X6437Y9781D1*
X6996D1*
X7078Y9867D1*
X7186Y9937D1*
X7093Y9995D1*
X6998Y10091D1*
X6582Y10093D1*
X6150Y9664D1*
X4903Y25096D2*
X6096D1*
X6098Y24387D1*
X6391Y24680D1*
X6493Y24751D1*
X6634Y24781D1*
X6880D1*
X6877Y24997D1*
X7997D1*
Y23877D1*
X7782D1*
X7864Y23800D1*
X7933Y23697D1*
X7979Y23580D1*
X7997Y23437D1*
X7983Y23313D1*
X7942Y23195D1*
X7876Y23089D1*
X7788Y23001D1*
X7687Y22936D1*
X7773Y22885D1*
X7864Y22800D1*
X7933Y22697D1*
X7979Y22580D1*
X7997Y22437D1*
X7983Y22313D1*
X7942Y22195D1*
X7876Y22089D1*
X7788Y22001D1*
X7687Y21936D1*
X7773Y21885D1*
X7864Y21800D1*
X7933Y21697D1*
X7979Y21580D1*
X7997Y21437D1*
X7983Y21313D1*
X7942Y21195D1*
X7876Y21089D1*
X7788Y21001D1*
X7687Y20936D1*
X7773Y20885D1*
X7864Y20800D1*
X7933Y20697D1*
X7979Y20580D1*
X7997Y20437D1*
X7983Y20313D1*
X7942Y20195D1*
X7876Y20089D1*
X7788Y20001D1*
X7687Y19936D1*
X7773Y19885D1*
X7864Y19800D1*
X7933Y19697D1*
X7979Y19580D1*
X7997Y19437D1*
X7983Y19313D1*
X7942Y19195D1*
X7876Y19089D1*
X7788Y19001D1*
X7687Y18936D1*
X7773Y18885D1*
X7864Y18800D1*
X7933Y18697D1*
X7979Y18580D1*
X7997Y18437D1*
X7983Y18313D1*
X7942Y18195D1*
X7876Y18089D1*
X7788Y18001D1*
X7687Y17936D1*
X7773Y17885D1*
X7864Y17800D1*
X7933Y17697D1*
X7979Y17580D1*
X7997Y17437D1*
X7983Y17313D1*
X7942Y17195D1*
X7876Y17089D1*
X7788Y17001D1*
X7683Y16934D1*
X7566Y16892D1*
X7442Y16877D1*
X7318Y16890D1*
X7200Y16930D1*
X7093Y16995D1*
X7004Y17082D1*
X6936Y17186D1*
X6893Y17303D1*
X6877Y17427D1*
X6889Y17551D1*
X6927Y17670D1*
X6992Y17777D1*
X7078Y17867D1*
X7186Y17937D1*
X7093Y17995D1*
X7004Y18082D1*
X6936Y18186D1*
X6893Y18303D1*
X6881Y18392D1*
X6680Y18194D1*
X6578Y18123D1*
X6437Y18093D1*
X5996D1*
X5915Y17984D1*
X5865Y17940D1*
X5984Y17803D1*
X6044Y17693D1*
X6081Y17574D1*
X6096Y17437D1*
X6084Y17313D1*
X6049Y17193D1*
X5992Y17082D1*
X5915Y16984D1*
X5821Y16902D1*
X5713Y16839D1*
X5595Y16798D1*
X5472Y16779D1*
X5347Y16785D1*
X5225Y16813D1*
X5112Y16864D1*
X5009Y16936D1*
X4923Y17026D1*
X4854Y17130D1*
X4807Y17246D1*
X4782Y17368D1*
X4781Y17493D1*
X4803Y17616D1*
X4848Y17732D1*
X4914Y17838D1*
X5009Y17936D1*
X4923Y18026D1*
X4854Y18130D1*
X4807Y18246D1*
X4782Y18368D1*
X4781Y18493D1*
X4803Y18616D1*
X4848Y18732D1*
X4914Y18838D1*
X5009Y18936D1*
X4923Y19026D1*
X4854Y19130D1*
X4807Y19246D1*
X4782Y19368D1*
X4781Y19493D1*
X4803Y19616D1*
X4848Y19732D1*
X4914Y19838D1*
X5009Y19936D1*
X4923Y20026D1*
X4854Y20130D1*
X4807Y20246D1*
X4782Y20368D1*
X4781Y20493D1*
X4803Y20616D1*
X4848Y20732D1*
X4914Y20838D1*
X5009Y20936D1*
X4923Y21026D1*
X4854Y21130D1*
X4807Y21246D1*
X4782Y21368D1*
X4781Y21493D1*
X4803Y21616D1*
X4848Y21732D1*
X4914Y21838D1*
X5009Y21936D1*
X4923Y22026D1*
X4854Y22130D1*
X4807Y22246D1*
X4782Y22368D1*
X4781Y22493D1*
X4803Y22616D1*
X4848Y22732D1*
X4914Y22838D1*
X5009Y22936D1*
X4923Y23026D1*
X4854Y23130D1*
X4807Y23246D1*
X4782Y23368D1*
X4781Y23493D1*
X4803Y23616D1*
X4848Y23732D1*
X4879Y23782D1*
X4778Y23778D1*
Y25096D1*
X4903D1*
X6084Y22313D2*
X6049Y22193D1*
X5992Y22082D1*
X5915Y21984D1*
X5865Y21940D1*
X5984Y21803D1*
X6044Y21693D1*
X6082Y21570D1*
X6194Y21680D1*
X6296Y21751D1*
X6437Y21781D1*
X6996D1*
X7078Y21867D1*
X7186Y21937D1*
X7093Y21995D1*
X7004Y22082D1*
X6936Y22186D1*
X6893Y22303D1*
X6877Y22427D1*
X6889Y22551D1*
X6927Y22670D1*
X6992Y22777D1*
X7078Y22867D1*
X7186Y22937D1*
X7093Y22995D1*
X6998Y23091D1*
X6582Y23093D1*
X6075Y22589D1*
X6096Y22437D1*
X6084Y22313D1*
Y20313D2*
X6049Y20193D1*
X5992Y20082D1*
X5915Y19984D1*
X5865Y19940D1*
X5984Y19803D1*
X6044Y19693D1*
X6081Y19574D1*
X6096Y19437D1*
X6084Y19313D1*
X6049Y19193D1*
X5992Y19082D1*
X5915Y18984D1*
X5865Y18940D1*
X5984Y18803D1*
X5997Y18779D1*
X6292Y18781D1*
X6882Y19368D1*
X6877Y19427D1*
X6889Y19551D1*
X6927Y19670D1*
X6992Y19777D1*
X7078Y19867D1*
X7186Y19937D1*
X7093Y19995D1*
X7004Y20082D1*
X6936Y20186D1*
X6893Y20303D1*
X6877Y20427D1*
X6889Y20551D1*
X6927Y20670D1*
X6992Y20777D1*
X7078Y20867D1*
X7186Y20937D1*
X7093Y20995D1*
X6998Y21091D1*
X6582Y21093D1*
X6075Y20589D1*
X6096Y20437D1*
X6084Y20313D1*
X4903Y34096D2*
X6096D1*
X6098Y33387D1*
X6391Y33680D1*
X6493Y33751D1*
X6634Y33781D1*
X6880D1*
X6877Y33997D1*
X7997D1*
Y32877D1*
X7782D1*
X7864Y32800D1*
X7933Y32697D1*
X7979Y32580D1*
X7997Y32437D1*
X7983Y32313D1*
X7942Y32195D1*
X7876Y32089D1*
X7788Y32001D1*
X7687Y31936D1*
X7773Y31885D1*
X7864Y31800D1*
X7933Y31697D1*
X7979Y31580D1*
X7997Y31437D1*
X7983Y31313D1*
X7942Y31195D1*
X7876Y31089D1*
X7788Y31001D1*
X7687Y30936D1*
X7773Y30885D1*
X7864Y30800D1*
X7933Y30697D1*
X7979Y30580D1*
X7997Y30437D1*
X7983Y30313D1*
X7942Y30195D1*
X7876Y30089D1*
X7788Y30001D1*
X7687Y29936D1*
X7773Y29885D1*
X7864Y29800D1*
X7933Y29697D1*
X7979Y29580D1*
X7997Y29437D1*
X7983Y29313D1*
X7942Y29195D1*
X7876Y29089D1*
X7788Y29001D1*
X7687Y28936D1*
X7773Y28885D1*
X7864Y28800D1*
X7933Y28697D1*
X7979Y28580D1*
X7997Y28437D1*
X7983Y28313D1*
X7942Y28195D1*
X7876Y28089D1*
X7788Y28001D1*
X7687Y27936D1*
X7773Y27885D1*
X7864Y27800D1*
X7933Y27697D1*
X7979Y27580D1*
X7997Y27437D1*
X7983Y27313D1*
X7942Y27195D1*
X7876Y27089D1*
X7788Y27001D1*
X7687Y26936D1*
X7773Y26885D1*
X7864Y26800D1*
X7933Y26697D1*
X7979Y26580D1*
X7997Y26437D1*
X7983Y26313D1*
X7942Y26195D1*
X7876Y26089D1*
X7788Y26001D1*
X7683Y25934D1*
X7566Y25892D1*
X7442Y25877D1*
X7318Y25890D1*
X7200Y25930D1*
X7093Y25995D1*
X7004Y26082D1*
X6936Y26186D1*
X6893Y26303D1*
X6877Y26427D1*
X6889Y26551D1*
X6927Y26670D1*
X6992Y26777D1*
X7078Y26867D1*
X7186Y26937D1*
X7093Y26995D1*
X7004Y27082D1*
X6936Y27186D1*
X6893Y27303D1*
X6877Y27427D1*
X6889Y27551D1*
X6927Y27670D1*
X6992Y27777D1*
X7078Y27867D1*
X7186Y27937D1*
X7093Y27995D1*
X6998Y28091D1*
X6582Y28093D1*
X6075Y27589D1*
X6096Y27437D1*
X6084Y27313D1*
X6049Y27193D1*
X5992Y27082D1*
X5915Y26984D1*
X5865Y26940D1*
X5984Y26803D1*
X6044Y26693D1*
X6081Y26574D1*
X6096Y26437D1*
X6084Y26313D1*
X6049Y26193D1*
X5992Y26082D1*
X5915Y25984D1*
X5821Y25902D1*
X5713Y25839D1*
X5595Y25798D1*
X5472Y25779D1*
X5347Y25785D1*
X5225Y25813D1*
X5112Y25864D1*
X5009Y25936D1*
X4923Y26026D1*
X4854Y26130D1*
X4807Y26246D1*
X4782Y26368D1*
X4781Y26493D1*
X4803Y26616D1*
X4848Y26732D1*
X4914Y26838D1*
X5009Y26936D1*
X4923Y27026D1*
X4854Y27130D1*
X4807Y27246D1*
X4782Y27368D1*
X4781Y27493D1*
X4803Y27616D1*
X4848Y27732D1*
X4914Y27838D1*
X5009Y27936D1*
X4923Y28026D1*
X4854Y28130D1*
X4807Y28246D1*
X4782Y28368D1*
X4781Y28493D1*
X4803Y28616D1*
X4848Y28732D1*
X4914Y28838D1*
X5009Y28936D1*
X4923Y29026D1*
X4854Y29130D1*
X4807Y29246D1*
X4782Y29368D1*
X4781Y29493D1*
X4803Y29616D1*
X4848Y29732D1*
X4914Y29838D1*
X5009Y29936D1*
X4923Y30026D1*
X4854Y30130D1*
X4807Y30246D1*
X4782Y30368D1*
X4781Y30493D1*
X4803Y30616D1*
X4848Y30732D1*
X4914Y30838D1*
X5009Y30936D1*
X4923Y31026D1*
X4854Y31130D1*
X4807Y31246D1*
X4782Y31368D1*
X4781Y31493D1*
X4803Y31616D1*
X4848Y31732D1*
X4914Y31838D1*
X5009Y31936D1*
X4923Y32026D1*
X4854Y32130D1*
X4807Y32246D1*
X4782Y32368D1*
X4781Y32493D1*
X4803Y32616D1*
X4848Y32732D1*
X4879Y32782D1*
X4778Y32778D1*
Y34096D1*
X4903D1*
X6093Y32410D2*
X6084Y32313D1*
X6049Y32193D1*
X5992Y32082D1*
X5915Y31984D1*
X5865Y31940D1*
X5984Y31803D1*
X6044Y31693D1*
X6082Y31570D1*
X6194Y31680D1*
X6296Y31751D1*
X6437Y31781D1*
X6996D1*
X7078Y31867D1*
X7186Y31937D1*
X7093Y31995D1*
X7004Y32082D1*
X6936Y32186D1*
X6893Y32303D1*
X6877Y32427D1*
X6889Y32551D1*
X6927Y32670D1*
X6992Y32777D1*
X7094Y32878D1*
X6877Y32877D1*
Y33092D1*
X6777Y33093D1*
X6095Y32412D1*
X6084Y30313D2*
X6049Y30193D1*
X5992Y30082D1*
X5915Y29984D1*
X5865Y29940D1*
X5984Y29803D1*
X6044Y29693D1*
X6082Y29570D1*
X6194Y29680D1*
X6296Y29751D1*
X6437Y29781D1*
X6996D1*
X7078Y29867D1*
X7186Y29937D1*
X7093Y29995D1*
X7004Y30082D1*
X6936Y30186D1*
X6893Y30303D1*
X6877Y30427D1*
X6889Y30551D1*
X6927Y30670D1*
X6992Y30777D1*
X7078Y30867D1*
X7186Y30937D1*
X7093Y30995D1*
X6998Y31091D1*
X6582Y31093D1*
X6075Y30589D1*
X6096Y30437D1*
X6084Y30313D1*
X6075Y28593D2*
X6082Y28570D1*
X6150Y28664D1*
X6075Y28589D1*
X6194Y28680D1*
X6296Y28751D1*
X6437Y28781D1*
X6996D1*
X7078Y28867D1*
X7186Y28937D1*
X7093Y28995D1*
X6998Y29091D1*
X6582Y29093D1*
X6150Y28664D1*
X4903Y43096D2*
X6096D1*
X6098Y42387D1*
X6391Y42680D1*
X6493Y42751D1*
X6634Y42781D1*
X6880D1*
X6877Y42997D1*
X7997D1*
Y41877D1*
X7782D1*
X7864Y41800D1*
X7933Y41697D1*
X7979Y41580D1*
X7997Y41437D1*
X7983Y41313D1*
X7942Y41195D1*
X7876Y41089D1*
X7788Y41001D1*
X7687Y40936D1*
X7773Y40885D1*
X7864Y40800D1*
X7933Y40697D1*
X7979Y40580D1*
X7997Y40437D1*
X7983Y40313D1*
X7942Y40195D1*
X7876Y40089D1*
X7788Y40001D1*
X7687Y39936D1*
X7773Y39885D1*
X7864Y39800D1*
X7933Y39697D1*
X7979Y39580D1*
X7997Y39437D1*
X7983Y39313D1*
X7942Y39195D1*
X7876Y39089D1*
X7788Y39001D1*
X7687Y38936D1*
X7773Y38885D1*
X7864Y38800D1*
X7933Y38697D1*
X7979Y38580D1*
X7997Y38437D1*
X7983Y38313D1*
X7942Y38195D1*
X7876Y38089D1*
X7788Y38001D1*
X7687Y37936D1*
X7773Y37885D1*
X7864Y37800D1*
X7933Y37697D1*
X7979Y37580D1*
X7997Y37437D1*
X7983Y37313D1*
X7942Y37195D1*
X7876Y37089D1*
X7788Y37001D1*
X7687Y36936D1*
X7773Y36885D1*
X7864Y36800D1*
X7933Y36697D1*
X7979Y36580D1*
X7997Y36437D1*
X7983Y36313D1*
X7942Y36195D1*
X7876Y36089D1*
X7788Y36001D1*
X7687Y35936D1*
X7773Y35885D1*
X7864Y35800D1*
X7933Y35697D1*
X7979Y35580D1*
X7997Y35437D1*
X7983Y35313D1*
X7942Y35195D1*
X7876Y35089D1*
X7788Y35001D1*
X7683Y34934D1*
X7566Y34892D1*
X7442Y34877D1*
X7318Y34890D1*
X7200Y34930D1*
X7093Y34995D1*
X7004Y35082D1*
X6936Y35186D1*
X6893Y35303D1*
X6877Y35427D1*
X6889Y35551D1*
X6927Y35670D1*
X6992Y35777D1*
X7078Y35867D1*
X7186Y35937D1*
X7093Y35995D1*
X7004Y36082D1*
X6936Y36186D1*
X6893Y36303D1*
X6881Y36392D1*
X6680Y36194D1*
X6578Y36123D1*
X6437Y36093D1*
X5996D1*
X5915Y35984D1*
X5865Y35940D1*
X5984Y35803D1*
X6044Y35693D1*
X6081Y35574D1*
X6096Y35437D1*
X6084Y35313D1*
X6049Y35193D1*
X5992Y35082D1*
X5915Y34984D1*
X5821Y34902D1*
X5713Y34839D1*
X5595Y34798D1*
X5472Y34779D1*
X5347Y34785D1*
X5225Y34813D1*
X5112Y34864D1*
X5009Y34936D1*
X4923Y35026D1*
X4854Y35130D1*
X4807Y35246D1*
X4782Y35368D1*
X4781Y35493D1*
X4803Y35616D1*
X4848Y35732D1*
X4914Y35838D1*
X5009Y35936D1*
X4923Y36026D1*
X4854Y36130D1*
X4807Y36246D1*
X4782Y36368D1*
X4781Y36493D1*
X4803Y36616D1*
X4848Y36732D1*
X4914Y36838D1*
X5009Y36936D1*
X4923Y37026D1*
X4854Y37130D1*
X4807Y37246D1*
X4782Y37368D1*
X4781Y37493D1*
X4803Y37616D1*
X4848Y37732D1*
X4914Y37838D1*
X5009Y37936D1*
X4923Y38026D1*
X4854Y38130D1*
X4807Y38246D1*
X4782Y38368D1*
X4781Y38493D1*
X4803Y38616D1*
X4848Y38732D1*
X4914Y38838D1*
X5009Y38936D1*
X4923Y39026D1*
X4854Y39130D1*
X4807Y39246D1*
X4782Y39368D1*
X4781Y39493D1*
X4803Y39616D1*
X4848Y39732D1*
X4914Y39838D1*
X5009Y39936D1*
X4923Y40026D1*
X4854Y40130D1*
X4807Y40246D1*
X4782Y40368D1*
X4781Y40493D1*
X4803Y40616D1*
X4848Y40732D1*
X4914Y40838D1*
X5009Y40936D1*
X4923Y41026D1*
X4854Y41130D1*
X4807Y41246D1*
X4782Y41368D1*
X4781Y41493D1*
X4803Y41616D1*
X4848Y41732D1*
X4879Y41782D1*
X4778Y41778D1*
Y43096D1*
X4903D1*
X6084Y40313D2*
X6049Y40193D1*
X5992Y40082D1*
X5915Y39984D1*
X5865Y39940D1*
X5984Y39803D1*
X6044Y39693D1*
X6082Y39570D1*
X6194Y39680D1*
X6296Y39751D1*
X6437Y39781D1*
X6996D1*
X7078Y39867D1*
X7186Y39937D1*
X7093Y39995D1*
X7004Y40082D1*
X6936Y40186D1*
X6893Y40303D1*
X6877Y40427D1*
X6889Y40551D1*
X6927Y40670D1*
X6992Y40777D1*
X7078Y40867D1*
X7186Y40937D1*
X7093Y40995D1*
X6998Y41091D1*
X6582Y41093D1*
X6075Y40589D1*
X6096Y40437D1*
X6084Y40313D1*
Y38313D2*
X6049Y38193D1*
X5992Y38082D1*
X5915Y37984D1*
X5865Y37940D1*
X5984Y37803D1*
X6044Y37693D1*
X6081Y37574D1*
X6096Y37437D1*
X6084Y37313D1*
X6049Y37193D1*
X5992Y37082D1*
X5915Y36984D1*
X5865Y36940D1*
X5984Y36803D1*
X5997Y36779D1*
X6292Y36781D1*
X6882Y37368D1*
X6877Y37427D1*
X6889Y37551D1*
X6927Y37670D1*
X6992Y37777D1*
X7078Y37867D1*
X7186Y37937D1*
X7093Y37995D1*
X7004Y38082D1*
X6936Y38186D1*
X6893Y38303D1*
X6877Y38427D1*
X6889Y38551D1*
X6927Y38670D1*
X6992Y38777D1*
X7078Y38867D1*
X7186Y38937D1*
X7093Y38995D1*
X6998Y39091D1*
X6582Y39093D1*
X6075Y38589D1*
X6096Y38437D1*
X6084Y38313D1*
X4903Y52096D2*
X6096D1*
X6098Y51387D1*
X6391Y51680D1*
X6493Y51751D1*
X6634Y51781D1*
X6880D1*
X6877Y51997D1*
X7997D1*
Y50877D1*
X7782D1*
X7864Y50800D1*
X7933Y50697D1*
X7979Y50580D1*
X7997Y50437D1*
X7983Y50313D1*
X7942Y50195D1*
X7876Y50089D1*
X7788Y50001D1*
X7687Y49936D1*
X7773Y49885D1*
X7864Y49800D1*
X7933Y49697D1*
X7979Y49580D1*
X7997Y49437D1*
X7983Y49313D1*
X7942Y49195D1*
X7876Y49089D1*
X7788Y49001D1*
X7687Y48936D1*
X7773Y48885D1*
X7864Y48800D1*
X7933Y48697D1*
X7979Y48580D1*
X7997Y48437D1*
X7983Y48313D1*
X7942Y48195D1*
X7876Y48089D1*
X7788Y48001D1*
X7687Y47936D1*
X7773Y47885D1*
X7864Y47800D1*
X7933Y47697D1*
X7979Y47580D1*
X7997Y47437D1*
X7983Y47313D1*
X7942Y47195D1*
X7876Y47089D1*
X7788Y47001D1*
X7687Y46936D1*
X7773Y46885D1*
X7864Y46800D1*
X7933Y46697D1*
X7979Y46580D1*
X7997Y46437D1*
X7983Y46313D1*
X7942Y46195D1*
X7876Y46089D1*
X7788Y46001D1*
X7687Y45936D1*
X7773Y45885D1*
X7864Y45800D1*
X7933Y45697D1*
X7979Y45580D1*
X7997Y45437D1*
X7983Y45313D1*
X7942Y45195D1*
X7876Y45089D1*
X7788Y45001D1*
X7687Y44936D1*
X7773Y44885D1*
X7864Y44800D1*
X7933Y44697D1*
X7979Y44580D1*
X7997Y44437D1*
X7983Y44313D1*
X7942Y44195D1*
X7876Y44089D1*
X7788Y44001D1*
X7683Y43934D1*
X7566Y43892D1*
X7442Y43877D1*
X7318Y43890D1*
X7200Y43930D1*
X7093Y43995D1*
X7004Y44082D1*
X6936Y44186D1*
X6893Y44303D1*
X6877Y44427D1*
X6889Y44551D1*
X6927Y44670D1*
X6992Y44777D1*
X7078Y44867D1*
X7186Y44937D1*
X7093Y44995D1*
X7004Y45082D1*
X6936Y45186D1*
X6893Y45303D1*
X6877Y45427D1*
X6889Y45551D1*
X6927Y45670D1*
X6992Y45777D1*
X7078Y45867D1*
X7186Y45937D1*
X7093Y45995D1*
X6998Y46091D1*
X6582Y46093D1*
X6075Y45589D1*
X6096Y45437D1*
X6084Y45313D1*
X6049Y45193D1*
X5992Y45082D1*
X5915Y44984D1*
X5865Y44940D1*
X5984Y44803D1*
X6044Y44693D1*
X6081Y44574D1*
X6096Y44437D1*
X6084Y44313D1*
X6049Y44193D1*
X5992Y44082D1*
X5915Y43984D1*
X5821Y43902D1*
X5713Y43839D1*
X5595Y43798D1*
X5472Y43779D1*
X5347Y43785D1*
X5225Y43813D1*
X5112Y43864D1*
X5009Y43936D1*
X4923Y44026D1*
X4854Y44130D1*
X4807Y44246D1*
X4782Y44368D1*
X4781Y44493D1*
X4803Y44616D1*
X4848Y44732D1*
X4914Y44838D1*
X5009Y44936D1*
X4923Y45026D1*
X4854Y45130D1*
X4807Y45246D1*
X4782Y45368D1*
X4781Y45493D1*
X4803Y45616D1*
X4848Y45732D1*
X4914Y45838D1*
X5009Y45936D1*
X4923Y46026D1*
X4854Y46130D1*
X4807Y46246D1*
X4782Y46368D1*
X4781Y46493D1*
X4803Y46616D1*
X4848Y46732D1*
X4914Y46838D1*
X5009Y46936D1*
X4923Y47026D1*
X4854Y47130D1*
X4807Y47246D1*
X4782Y47368D1*
X4781Y47493D1*
X4803Y47616D1*
X4848Y47732D1*
X4914Y47838D1*
X5009Y47936D1*
X4923Y48026D1*
X4854Y48130D1*
X4807Y48246D1*
X4782Y48368D1*
X4781Y48493D1*
X4803Y48616D1*
X4848Y48732D1*
X4914Y48838D1*
X5009Y48936D1*
X4923Y49026D1*
X4854Y49130D1*
X4807Y49246D1*
X4782Y49368D1*
X4781Y49493D1*
X4803Y49616D1*
X4848Y49732D1*
X4914Y49838D1*
X5009Y49936D1*
X4923Y50026D1*
X4854Y50130D1*
X4807Y50246D1*
X4782Y50368D1*
X4781Y50493D1*
X4803Y50616D1*
X4848Y50732D1*
X4879Y50782D1*
X4778Y50778D1*
Y52096D1*
X4903D1*
X6084Y49313D2*
X6049Y49193D1*
X5992Y49082D1*
X5915Y48984D1*
X5865Y48940D1*
X5984Y48803D1*
X6044Y48693D1*
X6082Y48570D1*
X6194Y48680D1*
X6296Y48751D1*
X6437Y48781D1*
X6996D1*
X7078Y48867D1*
X7186Y48937D1*
X7093Y48995D1*
X7004Y49082D1*
X6936Y49186D1*
X6893Y49303D1*
X6877Y49427D1*
X6889Y49551D1*
X6927Y49670D1*
X6992Y49777D1*
X7078Y49867D1*
X7186Y49937D1*
X7093Y49995D1*
X6998Y50091D1*
X6582Y50093D1*
X6075Y49589D1*
X6096Y49437D1*
X6084Y49313D1*
Y47313D2*
X6049Y47193D1*
X5992Y47082D1*
X5915Y46984D1*
X5865Y46940D1*
X5984Y46803D1*
X6044Y46693D1*
X6082Y46570D1*
X6194Y46680D1*
X6296Y46751D1*
X6437Y46781D1*
X6996D1*
X7078Y46867D1*
X7186Y46937D1*
X7093Y46995D1*
X7004Y47082D1*
X6936Y47186D1*
X6893Y47303D1*
X6877Y47427D1*
X6889Y47551D1*
X6927Y47670D1*
X6992Y47777D1*
X7078Y47867D1*
X7186Y47937D1*
X7093Y47995D1*
X6998Y48091D1*
X6582Y48093D1*
X6075Y47589D1*
X6096Y47437D1*
X6084Y47313D1*
X17903Y16096D2*
X18681D1*
X18684Y16826D1*
X18595Y16798D1*
X18472Y16779D1*
X18347Y16785D1*
X18225Y16813D1*
X18112Y16864D1*
X18009Y16936D1*
X17923Y17026D1*
X17854Y17130D1*
X17807Y17246D1*
X17782Y17368D1*
X17781Y17450D1*
X17600Y17268D1*
X17627Y17122D1*
X17607Y16999D1*
X17587Y16961D1*
X17588Y9244D1*
X17565Y9122D1*
X17487Y9001D1*
X16993Y8507D1*
X17008Y8494D1*
X17795Y9281D1*
X17782Y9368D1*
X17781Y9493D1*
X17803Y9616D1*
X17848Y9732D1*
X17914Y9838D1*
X18009Y9936D1*
X17923Y10026D1*
X17854Y10130D1*
X17807Y10246D1*
X17782Y10368D1*
X17781Y10493D1*
X17803Y10616D1*
X17848Y10732D1*
X17914Y10838D1*
X18009Y10936D1*
X17923Y11026D1*
X17854Y11130D1*
X17807Y11246D1*
X17782Y11368D1*
X17781Y11493D1*
X17803Y11616D1*
X17848Y11732D1*
X17914Y11838D1*
X18009Y11936D1*
X17923Y12026D1*
X17854Y12130D1*
X17807Y12246D1*
X17782Y12368D1*
X17781Y12493D1*
X17803Y12616D1*
X17848Y12732D1*
X17914Y12838D1*
X18009Y12936D1*
X17923Y13026D1*
X17854Y13130D1*
X17807Y13246D1*
X17782Y13368D1*
X17781Y13493D1*
X17803Y13616D1*
X17848Y13732D1*
X17914Y13838D1*
X18009Y13936D1*
X17923Y14026D1*
X17854Y14130D1*
X17807Y14246D1*
X17782Y14368D1*
X17781Y14493D1*
X17803Y14616D1*
X17848Y14732D1*
X17879Y14782D1*
X17778Y14778D1*
Y16096D1*
X17903D1*
X17980Y7967D2*
X17923Y8026D1*
X17854Y8130D1*
X17807Y8246D1*
X17794Y8311D1*
X17451Y7965D1*
X17975D1*
X17903Y25096D2*
X18681D1*
X18684Y25826D1*
X18595Y25798D1*
X18472Y25779D1*
X18347Y25785D1*
X18225Y25813D1*
X18112Y25864D1*
X18009Y25936D1*
X17923Y26026D1*
X17854Y26130D1*
X17823Y26206D1*
X17824Y25749D1*
X17871Y25672D1*
X17903Y25520D1*
X17883Y25397D1*
X17824Y25287D1*
X17733Y25202D1*
X17620Y25150D1*
X17547Y25143D1*
X17548Y23033D1*
X17844Y22728D1*
X17914Y22838D1*
X18009Y22936D1*
X17923Y23026D1*
X17854Y23130D1*
X17807Y23246D1*
X17782Y23368D1*
X17781Y23493D1*
X17803Y23616D1*
X17848Y23732D1*
X17879Y23782D1*
X17778Y23778D1*
Y25096D1*
X17903D1*
X17962Y34096D2*
X18681D1*
X18684Y34826D1*
X18595Y34798D1*
X18472Y34779D1*
X18347Y34785D1*
X18225Y34813D1*
X18112Y34864D1*
X18009Y34936D1*
X17923Y35026D1*
X17854Y35130D1*
X17823Y35206D1*
X17824Y34132D1*
X17865Y34129D1*
X17956Y34096D1*
X17873Y41778D2*
X17778D1*
Y42095D1*
X17582Y42093D1*
X16992Y41506D1*
X16997Y41437D1*
X16983Y41313D1*
X16942Y41195D1*
X16876Y41089D1*
X16788Y41001D1*
X16687Y40936D1*
X16773Y40885D1*
X16864Y40800D1*
X16933Y40697D1*
X16979Y40580D1*
X16997Y40437D1*
X16990Y40371D1*
X17726Y39634D1*
X17766Y39583D1*
X17803Y39616D1*
X17848Y39732D1*
X17914Y39838D1*
X18009Y39936D1*
X17923Y40026D1*
X17854Y40130D1*
X17807Y40246D1*
X17782Y40368D1*
X17781Y40493D1*
X17803Y40616D1*
X17848Y40732D1*
X17914Y40838D1*
X18009Y40936D1*
X17923Y41026D1*
X17854Y41130D1*
X17807Y41246D1*
X17782Y41368D1*
X17781Y41493D1*
X17803Y41616D1*
X17848Y41732D1*
X17879Y41782D1*
X18007Y49939D2*
X17923Y50026D1*
X17878Y50094D1*
X17552Y50093D1*
X17751Y49897D1*
X17823Y49790D1*
X17848Y49732D1*
X17914Y49838D1*
X18009Y49936D1*
X7154Y6809D2*
X7281Y6712D1*
X7313Y6673D1*
X7375Y6742D1*
X7466Y6809D1*
X7491Y6962D1*
X7569Y7083D1*
X7942Y7456D1*
X7940Y7690D1*
X7154Y6907D1*
X9154Y6809D2*
X9281Y6712D1*
X9313Y6673D1*
X9375Y6742D1*
X9466Y6809D1*
X9469Y6933D1*
X9158Y7247D1*
X9156Y6808D1*
X18255Y6593D2*
X18206Y6609D1*
X18099Y6672D1*
X18008Y6757D1*
X17938Y6860D1*
X17892Y6976D1*
X17873Y7100D1*
X17881Y7224D1*
X17898Y7280D1*
X16312Y7278D1*
X15253D1*
X15130Y7300D1*
X15010Y7378D1*
X13996Y8392D1*
X13983Y8313D1*
X13942Y8195D1*
X13876Y8089D1*
X13788Y8001D1*
X13683Y7934D1*
X13566Y7892D1*
X13442Y7877D1*
X13318Y7890D1*
X13200Y7930D1*
X13093Y7995D1*
X13004Y8082D1*
X12936Y8186D1*
X12893Y8303D1*
X12877Y8427D1*
X12884Y8501D1*
X12793Y8595D1*
X12792Y8257D1*
X13363Y7685D1*
X13525Y7683D1*
X13645Y7650D1*
X13755Y7591D1*
X13850Y7510D1*
X13924Y7410D1*
X13975Y7296D1*
X14002Y7125D1*
X13988Y7001D1*
X13948Y6883D1*
X13882Y6776D1*
X13795Y6687D1*
X13690Y6619D1*
X13621Y6594D1*
X18246Y6593D1*
X7087Y23877D2*
X6877D1*
Y24092D1*
X6777Y24093D1*
X6465Y23782D1*
X6996Y23781D1*
X7094Y23878D1*
X7087Y41877D2*
X6877D1*
Y42092D1*
X6777Y42093D1*
X6465Y41782D1*
X6996Y41781D1*
X7094Y41878D1*
X7087Y50877D2*
X6877D1*
Y51092D1*
X6777Y51093D1*
X6465Y50782D1*
X6996Y50781D1*
X7094Y50878D1*
X9884Y45369D2*
X9877Y45427D1*
X9889Y45551D1*
X9927Y45670D1*
X9992Y45777D1*
X10078Y45867D1*
X10186Y45937D1*
X10093Y45995D1*
X10004Y46082D1*
X9936Y46186D1*
X9893Y46303D1*
X9877Y46427D1*
X9889Y46551D1*
X9927Y46670D1*
X9992Y46777D1*
X10078Y46867D1*
X10186Y46937D1*
X10093Y46995D1*
X10004Y47082D1*
X9936Y47186D1*
X9893Y47303D1*
X9877Y47427D1*
X9889Y47551D1*
X9927Y47670D1*
X9992Y47777D1*
X10101Y47882D1*
X10118Y47937D1*
X10093Y47995D1*
X10004Y48082D1*
X9936Y48186D1*
X9893Y48303D1*
X9881Y48392D1*
X9738Y48252D1*
X9737Y45226D1*
X9881Y45367D1*
X15882Y8478D2*
X15889Y8551D1*
X15927Y8670D1*
X15992Y8777D1*
X16078Y8867D1*
X16186Y8937D1*
X16093Y8995D1*
X15998Y9091D1*
X15336Y9094D1*
X15271Y9101D1*
Y9089D1*
X15881Y8479D1*
X16133Y15903D2*
X16182Y15936D1*
X16299Y15980D1*
X16422Y15997D1*
X16546Y15986D1*
X16587Y15973D1*
X16585Y16175D1*
X16554Y16265D1*
X16549Y16389D1*
X16584Y16509D1*
X16655Y16610D1*
X16756Y16684D1*
X16874Y16722D1*
X16902Y16721D1*
X16900Y16951D1*
X16869Y17044D1*
X16868Y17079D1*
X16788Y17001D1*
X16683Y16934D1*
X16566Y16892D1*
X16442Y16877D1*
X16318Y16890D1*
X16200Y16930D1*
X16130Y16972D1*
X16131Y15908D1*
X13068Y24997D2*
X13997D1*
Y23877D1*
X13782D1*
X13864Y23800D1*
X13933Y23697D1*
X13979Y23580D1*
X13997Y23437D1*
X13983Y23313D1*
X13942Y23195D1*
X13876Y23089D1*
X13788Y23001D1*
X13687Y22936D1*
X13773Y22885D1*
X13864Y22800D1*
X13935Y22693D1*
X14408Y23169D1*
X14405Y25149D1*
Y30763D1*
X14374Y30851D1*
X14369Y30976D1*
X14406Y31098D1*
X14405Y33652D1*
X14312Y33679D1*
Y33605D1*
X14350Y33469D1*
X14331Y33314D1*
X14273Y33204D1*
X14253Y33186D1*
X14320Y33081D1*
X14352Y32929D1*
X14331Y32806D1*
X14273Y32697D1*
X14182Y32611D1*
X14069Y32560D1*
X13988Y32551D1*
X13997Y32437D1*
X13983Y32313D1*
X13942Y32195D1*
X13876Y32089D1*
X13788Y32001D1*
X13687Y31936D1*
X13773Y31885D1*
X13864Y31800D1*
X13933Y31697D1*
X13979Y31580D1*
X13997Y31437D1*
X13983Y31313D1*
X13942Y31195D1*
X13876Y31089D1*
X13788Y31001D1*
X13687Y30936D1*
X13773Y30885D1*
X13864Y30800D1*
X13933Y30697D1*
X13979Y30580D1*
X13997Y30437D1*
X13983Y30313D1*
X13942Y30195D1*
X13876Y30089D1*
X13788Y30001D1*
X13687Y29936D1*
X13773Y29885D1*
X13864Y29800D1*
X13933Y29697D1*
X13979Y29580D1*
X13997Y29437D1*
X13983Y29313D1*
X13942Y29195D1*
X13876Y29089D1*
X13788Y29001D1*
X13687Y28936D1*
X13773Y28885D1*
X13864Y28800D1*
X13933Y28697D1*
X13979Y28580D1*
X13997Y28437D1*
X13983Y28313D1*
X13942Y28195D1*
X13876Y28089D1*
X13788Y28001D1*
X13687Y27936D1*
X13773Y27885D1*
X13864Y27800D1*
X13933Y27697D1*
X13979Y27580D1*
X13997Y27437D1*
X13983Y27313D1*
X13942Y27195D1*
X13876Y27089D1*
X13788Y27001D1*
X13687Y26936D1*
X13773Y26885D1*
X13864Y26800D1*
X13933Y26697D1*
X13979Y26580D1*
X13997Y26437D1*
X13983Y26313D1*
X13942Y26195D1*
X13876Y26089D1*
X13788Y26001D1*
X13683Y25934D1*
X13566Y25892D1*
X13442Y25877D1*
X13368Y25884D1*
X13070Y25584D1*
X13068Y24994D1*
X13183Y20940D2*
X13093Y20995D1*
X13004Y21082D1*
X12936Y21186D1*
X12893Y21303D1*
X12882Y21385D1*
X12811Y21313D1*
X12753Y21204D1*
X12663Y21119D1*
X12549Y21067D1*
X12426Y21055D1*
X12304Y21082D1*
X12281Y21097D1*
Y20871D1*
X12692Y20462D1*
X12762Y20359D1*
X12792Y20219D1*
Y18816D1*
X12833Y18814D1*
X12950Y18771D1*
X12972Y18755D1*
X13078Y18867D1*
X13186Y18937D1*
X13093Y18995D1*
X13004Y19082D1*
X12936Y19186D1*
X12893Y19303D1*
X12877Y19427D1*
X12889Y19551D1*
X12927Y19670D1*
X12992Y19777D1*
X13078Y19867D1*
X13186Y19937D1*
X13093Y19995D1*
X13004Y20082D1*
X12936Y20186D1*
X12893Y20303D1*
X12877Y20427D1*
X12889Y20551D1*
X12927Y20670D1*
X12992Y20777D1*
X13078Y20867D1*
X13186Y20937D1*
X16140Y24908D2*
X16182Y24936D1*
X16299Y24980D1*
X16422Y24997D1*
X16511Y24989D1*
X16510Y25074D1*
X16530Y25145D1*
X16414Y25137D1*
X16292Y25165D1*
X16186Y25230D1*
X16129Y25299D1*
X16131Y24924D1*
X16689Y31935D2*
X16773Y31885D1*
X16864Y31800D1*
X16933Y31697D1*
X16979Y31580D1*
X16997Y31437D1*
X16990Y31371D1*
X17136Y31224D1*
X17137Y39250D1*
X16997Y39391D1*
X16983Y39313D1*
X16942Y39195D1*
X16876Y39089D1*
X16788Y39001D1*
X16687Y38936D1*
X16773Y38885D1*
X16864Y38800D1*
X16933Y38697D1*
X16979Y38580D1*
X16997Y38437D1*
X16983Y38313D1*
X16942Y38195D1*
X16876Y38089D1*
X16788Y38001D1*
X16687Y37936D1*
X16773Y37885D1*
X16864Y37800D1*
X16933Y37697D1*
X16979Y37580D1*
X16997Y37437D1*
X16983Y37313D1*
X16942Y37195D1*
X16876Y37089D1*
X16788Y37001D1*
X16687Y36936D1*
X16773Y36885D1*
X16864Y36800D1*
X16933Y36697D1*
X16979Y36580D1*
X16997Y36437D1*
X16983Y36313D1*
X16942Y36195D1*
X16876Y36089D1*
X16788Y36001D1*
X16687Y35936D1*
X16773Y35885D1*
X16864Y35800D1*
X16933Y35697D1*
X16979Y35580D1*
X16997Y35437D1*
X16983Y35313D1*
X16942Y35195D1*
X16876Y35089D1*
X16788Y34999D1*
X16820Y34846D1*
X16800Y34724D1*
X16741Y34614D1*
X16651Y34529D1*
X16537Y34477D1*
X16414Y34464D1*
X16292Y34492D1*
X16186Y34557D1*
X16129Y34626D1*
X16131Y34371D1*
X16169Y34236D1*
X16150Y34082D1*
X16130Y34044D1*
X16131Y33904D1*
X16182Y33936D1*
X16299Y33980D1*
X16422Y33997D1*
X16546Y33986D1*
X16665Y33949D1*
X16773Y33885D1*
X16864Y33800D1*
X16933Y33697D1*
X16979Y33580D1*
X16997Y33437D1*
X16983Y33313D1*
X16942Y33195D1*
X16876Y33089D1*
X16788Y33001D1*
X16687Y32936D1*
X16773Y32885D1*
X16864Y32800D1*
X16933Y32697D1*
X16979Y32580D1*
X16997Y32437D1*
X16983Y32313D1*
X16942Y32195D1*
X16876Y32089D1*
X16788Y32001D1*
X16687Y31936D1*
X13584Y34898D2*
X13442Y34877D1*
X13318Y34890D1*
X13200Y34930D1*
X13068Y35019D1*
Y34349D1*
X13145Y34273D1*
X13785D1*
X13686Y34372D1*
X13616Y34474D1*
X13585Y34615D1*
Y34900D1*
X16133Y42903D2*
X16182Y42936D1*
X16299Y42980D1*
X16422Y42997D1*
X16546Y42986D1*
X16665Y42949D1*
X16773Y42885D1*
X16864Y42800D1*
X16933Y42697D1*
X16979Y42580D1*
X16994Y42476D1*
X17194Y42680D1*
X17296Y42751D1*
X17437Y42781D1*
X17603Y42785D1*
X16507Y43881D1*
X16442Y43877D1*
X16318Y43890D1*
X16200Y43930D1*
X16130Y43972D1*
X16131Y42909D1*
X13183Y46940D2*
X13093Y46995D1*
X13004Y47082D1*
X12936Y47186D1*
X12893Y47303D1*
X12877Y47427D1*
X12889Y47551D1*
X12927Y47670D1*
X12950Y47707D1*
X12794Y47866D1*
X12792Y45278D1*
X12881Y45367D1*
X12877Y45427D1*
X12889Y45551D1*
X12927Y45670D1*
X12992Y45777D1*
X13078Y45867D1*
X13186Y45937D1*
X13093Y45995D1*
X13004Y46082D1*
X12936Y46186D1*
X12893Y46303D1*
X12877Y46427D1*
X12889Y46551D1*
X12927Y46670D1*
X12992Y46777D1*
X13078Y46867D1*
X13186Y46937D1*
X15884Y46369D2*
X15877Y46427D1*
X15889Y46551D1*
X15927Y46670D1*
X15992Y46777D1*
X16078Y46867D1*
X16186Y46937D1*
X16093Y46995D1*
X15998Y47091D1*
X15800Y47093D1*
X15722Y47017D1*
Y46411D1*
X15994Y47780D2*
X16078Y47867D1*
X16186Y47937D1*
X16093Y47995D1*
X16004Y48082D1*
X15936Y48186D1*
X15893Y48303D1*
X15877Y48427D1*
X15889Y48551D1*
X15927Y48670D1*
X15992Y48777D1*
X16078Y48867D1*
X16186Y48937D1*
X16093Y48995D1*
X15998Y49091D1*
X14660Y49093D1*
X14588Y49017D1*
X14586Y48622D1*
X14629Y48621D1*
X14746Y48579D1*
X14843Y48501D1*
X14910Y48396D1*
X14942Y48244D1*
X14922Y48121D1*
X14902Y48084D1*
X14903Y47576D1*
X14979Y47505D1*
X15237D1*
X15411Y47680D1*
X15514Y47751D1*
X15654Y47781D1*
X15994D1*
X14713Y36584D2*
X14660Y36560D1*
X14586Y36552D1*
X14588Y35431D1*
X14626Y35292D1*
X14607Y35137D1*
X14548Y35027D1*
X14458Y34942D1*
X14345Y34890D1*
X14271Y34883D1*
X14273Y34753D1*
X14722Y34308D1*
X14720Y34349D1*
X14689Y34442D1*
X14684Y34566D1*
X14721Y34689D1*
X14720Y36266D1*
X14689Y36359D1*
X14684Y36484D1*
X14711Y36577D1*
X15036Y38276D2*
X15004Y38359D1*
X14999Y38484D1*
X15036Y38606D1*
X15035Y46816D1*
X14835Y46818D1*
X14712Y46840D1*
X14589Y46921D1*
X14588Y37447D1*
X15037Y37893D1*
X15035Y38268D1*
X14721Y17768D2*
X14689Y17851D1*
X14684Y17976D1*
X14721Y18098D1*
X14720Y22511D1*
X14138Y21928D1*
X14172Y21897D1*
X14243Y21794D1*
X14273Y21654D1*
Y17798D1*
X14429Y17642D1*
X14484Y17622D1*
X14581Y17544D1*
X14648Y17440D1*
X14680Y17287D1*
X14660Y17165D1*
X14601Y17055D1*
X14511Y16970D1*
X14429Y16932D1*
X14145Y16649D1*
X14643Y16647D1*
X14720Y16723D1*
Y17762D1*
X12104Y16503D2*
X11694Y16913D1*
X11623Y17019D1*
X11602Y17079D1*
X11548Y17080D1*
Y16857D1*
X12108Y16297D1*
X12105Y16502D1*
X14330Y50273D2*
X15905Y50270D1*
X15877Y50427D1*
X15900Y50585D1*
X13977Y50584D1*
X13997Y50437D1*
X13983Y50313D1*
X13942Y50195D1*
X13876Y50089D1*
X13788Y50001D1*
X13687Y49936D1*
X13775Y49985D1*
X13962Y50172D1*
X14064Y50243D1*
X14205Y50273D1*
X14330D1*
X14312Y15957D2*
X14314Y12599D1*
X14350Y12469D1*
X14331Y12314D1*
X14273Y12204D1*
X14182Y12119D1*
X14069Y12067D1*
X13945Y12055D1*
X13857Y12070D1*
X13788Y12001D1*
X13687Y11936D1*
X13773Y11885D1*
X13864Y11800D1*
X13933Y11697D1*
X13979Y11580D1*
X13997Y11437D1*
X13983Y11313D1*
X13942Y11195D1*
X13876Y11089D1*
X13788Y11001D1*
X13687Y10936D1*
X13773Y10885D1*
X13864Y10800D1*
X13933Y10697D1*
X13979Y10580D1*
X13997Y10437D1*
X13990Y10371D1*
X14729Y9634D1*
X14720Y9838D1*
Y15888D1*
X14644Y15960D1*
X14316D1*
D17*
X11937Y51062D3*
D18*
Y49062D3*
D17*
Y46687D3*
D18*
Y44687D3*
D17*
Y42062D3*
D18*
Y40062D3*
D17*
Y37687D3*
D18*
Y35687D3*
D17*
Y33062D3*
D18*
Y31062D3*
D17*
Y28625D3*
D18*
Y26625D3*
D17*
Y24000D3*
D18*
Y22000D3*
D17*
Y19687D3*
D18*
Y17687D3*
D17*
Y14937D3*
D18*
Y12937D3*
D17*
Y10625D3*
D18*
Y8625D3*
D19*
X5437Y15437D3*
D20*
Y14437D3*
Y13437D3*
Y12437D3*
Y11437D3*
Y10437D3*
Y9437D3*
Y8437D3*
D19*
Y24437D3*
D20*
Y23437D3*
Y22437D3*
Y21437D3*
Y20437D3*
Y19437D3*
Y18437D3*
Y17437D3*
D19*
Y33437D3*
D20*
Y32437D3*
Y31437D3*
Y30437D3*
Y29437D3*
Y28437D3*
Y27437D3*
Y26437D3*
D19*
Y42437D3*
D20*
Y41437D3*
Y40437D3*
Y39437D3*
Y38437D3*
Y37437D3*
Y36437D3*
Y35437D3*
D19*
Y51437D3*
D20*
Y50437D3*
Y49437D3*
Y48437D3*
Y47437D3*
Y46437D3*
Y45437D3*
Y44437D3*
D19*
X18437Y15437D3*
D20*
Y14437D3*
Y13437D3*
Y12437D3*
Y11437D3*
Y10437D3*
Y9437D3*
Y8437D3*
D19*
Y24437D3*
D20*
Y23437D3*
Y22437D3*
Y21437D3*
Y20437D3*
Y19437D3*
Y18437D3*
Y17437D3*
D19*
Y33437D3*
D20*
Y32437D3*
Y31437D3*
Y30437D3*
Y29437D3*
Y28437D3*
Y27437D3*
Y26437D3*
D19*
Y42437D3*
D20*
Y41437D3*
Y40437D3*
Y39437D3*
Y38437D3*
Y37437D3*
Y36437D3*
Y35437D3*
D19*
Y51437D3*
D20*
Y50437D3*
Y49437D3*
Y48437D3*
Y47437D3*
Y46437D3*
Y45437D3*
Y44437D3*
D19*
X4812Y6250D3*
D20*
X5812D3*
X6812D3*
X7812D3*
X8812D3*
X9812D3*
X10812D3*
X11812D3*
D21*
X18437Y7125D3*
D22*
X13437D3*
D23*
X7437Y15437D3*
D24*
Y14437D3*
Y13437D3*
Y12437D3*
Y11437D3*
Y10437D3*
Y9437D3*
Y8437D3*
X10437D3*
Y9437D3*
Y10437D3*
Y11437D3*
Y12437D3*
Y13437D3*
Y14437D3*
Y15437D3*
D23*
X7437Y24437D3*
D24*
Y23437D3*
Y22437D3*
Y21437D3*
Y20437D3*
Y19437D3*
Y18437D3*
Y17437D3*
X10437D3*
Y18437D3*
Y19437D3*
Y20437D3*
Y21437D3*
Y22437D3*
Y23437D3*
Y24437D3*
D23*
X7437Y33437D3*
D24*
Y32437D3*
Y31437D3*
Y30437D3*
Y29437D3*
Y28437D3*
Y27437D3*
Y26437D3*
X10437D3*
Y27437D3*
Y28437D3*
Y29437D3*
Y30437D3*
Y31437D3*
Y32437D3*
Y33437D3*
D23*
X7437Y42437D3*
D24*
Y41437D3*
Y40437D3*
Y39437D3*
Y38437D3*
Y37437D3*
Y36437D3*
Y35437D3*
X10437D3*
Y36437D3*
Y37437D3*
Y38437D3*
Y39437D3*
Y40437D3*
Y41437D3*
Y42437D3*
D23*
X7437Y51437D3*
D24*
Y50437D3*
Y49437D3*
Y48437D3*
Y47437D3*
Y46437D3*
Y45437D3*
Y44437D3*
X10437D3*
Y45437D3*
Y46437D3*
Y47437D3*
Y48437D3*
Y49437D3*
Y50437D3*
Y51437D3*
D23*
X13437Y15437D3*
D24*
Y14437D3*
Y13437D3*
Y12437D3*
Y11437D3*
Y10437D3*
Y9437D3*
Y8437D3*
X16437D3*
Y9437D3*
Y10437D3*
Y11437D3*
Y12437D3*
Y13437D3*
Y14437D3*
Y15437D3*
D23*
X13437Y24437D3*
D24*
Y23437D3*
Y22437D3*
Y21437D3*
Y20437D3*
Y19437D3*
Y18437D3*
Y17437D3*
X16437D3*
Y18437D3*
Y19437D3*
Y20437D3*
Y21437D3*
Y22437D3*
Y23437D3*
Y24437D3*
D23*
X13437Y33437D3*
D24*
Y32437D3*
Y31437D3*
Y30437D3*
Y29437D3*
Y28437D3*
Y27437D3*
Y26437D3*
X16437D3*
Y27437D3*
Y28437D3*
Y29437D3*
Y30437D3*
Y31437D3*
Y32437D3*
Y33437D3*
D23*
X13437Y42437D3*
D24*
Y41437D3*
Y40437D3*
Y39437D3*
Y38437D3*
Y37437D3*
Y36437D3*
Y35437D3*
X16437D3*
Y36437D3*
Y37437D3*
Y38437D3*
Y39437D3*
Y40437D3*
Y41437D3*
Y42437D3*
D23*
X13437Y51437D3*
D24*
Y50437D3*
Y49437D3*
Y48437D3*
Y47437D3*
Y46437D3*
Y45437D3*
Y44437D3*
X16437D3*
Y45437D3*
Y46437D3*
Y47437D3*
Y48437D3*
Y49437D3*
Y50437D3*
Y51437D3*
M02*
