G04 DipTrace 2.4.0.2*
%INshift10.topsilkscreen.ger*%
%MOIN*%
%ADD10C,0.0098*%
%ADD16C,0.0118*%
%ADD46C,0.0046*%
%ADD47C,0.0062*%
%FSLAX44Y44*%
G04*
G70*
G90*
G75*
G01*
%LNTopSilk*%
%LPD*%
X11337Y48863D2*
D10*
Y51261D1*
X12537Y48863D2*
Y51261D1*
G03X11337Y51261I-600J1D01*
G01*
Y48863D2*
G03X12537Y48863I600J-1D01*
G01*
X11337Y44488D2*
Y46886D1*
X12537Y44488D2*
Y46886D1*
G03X11337Y46886I-600J1D01*
G01*
Y44488D2*
G03X12537Y44488I600J-1D01*
G01*
X11337Y39863D2*
Y42261D1*
X12537Y39863D2*
Y42261D1*
G03X11337Y42261I-600J1D01*
G01*
Y39863D2*
G03X12537Y39863I600J-1D01*
G01*
X11337Y35488D2*
Y37886D1*
X12537Y35488D2*
Y37886D1*
G03X11337Y37886I-600J1D01*
G01*
Y35488D2*
G03X12537Y35488I600J-1D01*
G01*
X11337Y30863D2*
Y33261D1*
X12537Y30863D2*
Y33261D1*
G03X11337Y33261I-600J1D01*
G01*
Y30863D2*
G03X12537Y30863I600J-1D01*
G01*
X11337Y26426D2*
Y28823D1*
X12537Y26426D2*
Y28823D1*
G03X11337Y28823I-600J1D01*
G01*
Y26426D2*
G03X12537Y26426I600J-1D01*
G01*
X11337Y21801D2*
Y24198D1*
X12537Y21801D2*
Y24198D1*
G03X11337Y24198I-600J1D01*
G01*
Y21801D2*
G03X12537Y21801I600J-1D01*
G01*
X11337Y17488D2*
Y19886D1*
X12537Y17488D2*
Y19886D1*
G03X11337Y19886I-600J1D01*
G01*
Y17488D2*
G03X12537Y17488I600J-1D01*
G01*
X11337Y12738D2*
Y15136D1*
X12537Y12738D2*
Y15136D1*
G03X11337Y15136I-600J1D01*
G01*
Y12738D2*
G03X12537Y12738I600J-1D01*
G01*
X11337Y8426D2*
Y10823D1*
X12537Y8426D2*
Y10823D1*
G03X11337Y10823I-600J1D01*
G01*
Y8426D2*
G03X12537Y8426I600J-1D01*
G01*
X4201Y16031D2*
X6673D1*
Y7843D1*
X4201D1*
Y16031D1*
Y25031D2*
X6673D1*
Y16843D1*
X4201D1*
Y25031D1*
Y34031D2*
X6673D1*
Y25843D1*
X4201D1*
Y34031D1*
Y43031D2*
X6673D1*
Y34843D1*
X4201D1*
Y43031D1*
Y52031D2*
X6673D1*
Y43843D1*
X4201D1*
Y52031D1*
X17201Y16031D2*
X19673D1*
Y7843D1*
X17201D1*
Y16031D1*
Y25031D2*
X19673D1*
Y16843D1*
X17201D1*
Y25031D1*
Y34031D2*
X19673D1*
Y25843D1*
X17201D1*
Y34031D1*
Y43031D2*
X19673D1*
Y34843D1*
X17201D1*
Y43031D1*
Y52031D2*
X19673D1*
Y43843D1*
X17201D1*
Y52031D1*
X4218Y5013D2*
X12407D1*
Y7486D1*
X4218D1*
Y5013D1*
X14436Y7625D2*
X17438D1*
Y6625D2*
Y7625D1*
X14436Y6625D2*
X17438D1*
X14436D2*
Y7625D1*
X9961Y15953D2*
Y7921D1*
X7913D2*
X9961D1*
X7913Y15953D2*
Y7921D1*
Y15953D2*
X8701D1*
X9961D2*
X9173D1*
X8701D2*
G03X9173Y15953I236J0D01*
G01*
X9961Y24953D2*
Y16921D1*
X7913D2*
X9961D1*
X7913Y24953D2*
Y16921D1*
Y24953D2*
X8701D1*
X9961D2*
X9173D1*
X8701D2*
G03X9173Y24953I236J0D01*
G01*
X9961Y33953D2*
Y25921D1*
X7913D2*
X9961D1*
X7913Y33953D2*
Y25921D1*
Y33953D2*
X8701D1*
X9961D2*
X9173D1*
X8701D2*
G03X9173Y33953I236J0D01*
G01*
X9961Y42953D2*
Y34921D1*
X7913D2*
X9961D1*
X7913Y42953D2*
Y34921D1*
Y42953D2*
X8701D1*
X9961D2*
X9173D1*
X8701D2*
G03X9173Y42953I236J0D01*
G01*
X9961Y51953D2*
Y43921D1*
X7913D2*
X9961D1*
X7913Y51953D2*
Y43921D1*
Y51953D2*
X8701D1*
X9961D2*
X9173D1*
X8701D2*
G03X9173Y51953I236J0D01*
G01*
X15961Y15953D2*
Y7921D1*
X13913D2*
X15961D1*
X13913Y15953D2*
Y7921D1*
Y15953D2*
X14701D1*
X15961D2*
X15173D1*
X14701D2*
G03X15173Y15953I236J0D01*
G01*
X15961Y24953D2*
Y16921D1*
X13913D2*
X15961D1*
X13913Y24953D2*
Y16921D1*
Y24953D2*
X14701D1*
X15961D2*
X15173D1*
X14701D2*
G03X15173Y24953I236J0D01*
G01*
X15961Y33953D2*
Y25921D1*
X13913D2*
X15961D1*
X13913Y33953D2*
Y25921D1*
Y33953D2*
X14701D1*
X15961D2*
X15173D1*
X14701D2*
G03X15173Y33953I236J0D01*
G01*
X15961Y42953D2*
Y34921D1*
X13913D2*
X15961D1*
X13913Y42953D2*
Y34921D1*
Y42953D2*
X14701D1*
X15961D2*
X15173D1*
X14701D2*
G03X15173Y42953I236J0D01*
G01*
X15961Y51953D2*
Y43921D1*
X13913D2*
X15961D1*
X13913Y51953D2*
Y43921D1*
Y51953D2*
X14701D1*
X15961D2*
X15173D1*
X14701D2*
G03X15173Y51953I236J0D01*
G01*
X13187Y6437D2*
D16*
X19312D1*
Y4250D1*
X13187D1*
Y6437D1*
X11962Y52230D2*
D46*
X11948Y52258D1*
X11919Y52287D1*
X11891Y52301D1*
X11833D1*
X11804Y52287D1*
X11776Y52258D1*
X11761Y52230D1*
X11747Y52187D1*
Y52115D1*
X11761Y52072D1*
X11776Y52043D1*
X11804Y52014D1*
X11833Y52000D1*
X11891D1*
X11919Y52014D1*
X11948Y52043D1*
X11962Y52072D1*
X12055Y52244D2*
X12084Y52258D1*
X12127Y52301D1*
Y52000D1*
X11898Y47855D2*
X11884Y47883D1*
X11855Y47912D1*
X11826Y47926D1*
X11769D1*
X11740Y47912D1*
X11711Y47883D1*
X11697Y47855D1*
X11683Y47812D1*
Y47740D1*
X11697Y47697D1*
X11711Y47668D1*
X11740Y47639D1*
X11769Y47625D1*
X11826D1*
X11855Y47639D1*
X11884Y47668D1*
X11898Y47697D1*
X12005Y47854D2*
Y47869D1*
X12019Y47897D1*
X12034Y47912D1*
X12062Y47926D1*
X12120D1*
X12148Y47912D1*
X12163Y47897D1*
X12177Y47869D1*
Y47840D1*
X12163Y47811D1*
X12134Y47768D1*
X11990Y47625D1*
X12191D1*
X11898Y43230D2*
X11884Y43258D1*
X11855Y43287D1*
X11826Y43301D1*
X11769D1*
X11740Y43287D1*
X11711Y43258D1*
X11697Y43230D1*
X11683Y43187D1*
Y43115D1*
X11697Y43072D1*
X11711Y43043D1*
X11740Y43014D1*
X11769Y43000D1*
X11826D1*
X11855Y43014D1*
X11884Y43043D1*
X11898Y43072D1*
X12019Y43301D2*
X12177D1*
X12091Y43186D1*
X12134D1*
X12163Y43172D1*
X12177Y43158D1*
X12191Y43115D1*
Y43086D1*
X12177Y43043D1*
X12148Y43014D1*
X12105Y43000D1*
X12062D1*
X12019Y43014D1*
X12005Y43029D1*
X11990Y43057D1*
X11891Y38855D2*
X11876Y38883D1*
X11848Y38912D1*
X11819Y38926D1*
X11762D1*
X11733Y38912D1*
X11704Y38883D1*
X11690Y38855D1*
X11675Y38812D1*
Y38740D1*
X11690Y38697D1*
X11704Y38668D1*
X11733Y38639D1*
X11762Y38625D1*
X11819D1*
X11848Y38639D1*
X11876Y38668D1*
X11891Y38697D1*
X12127Y38625D2*
Y38926D1*
X11983Y38725D1*
X12199D1*
X11898Y34230D2*
X11884Y34258D1*
X11855Y34287D1*
X11826Y34301D1*
X11769D1*
X11740Y34287D1*
X11711Y34258D1*
X11697Y34230D1*
X11683Y34187D1*
Y34115D1*
X11697Y34072D1*
X11711Y34043D1*
X11740Y34014D1*
X11769Y34000D1*
X11826D1*
X11855Y34014D1*
X11884Y34043D1*
X11898Y34072D1*
X12163Y34301D2*
X12019D1*
X12005Y34172D1*
X12019Y34186D1*
X12062Y34201D1*
X12105D1*
X12148Y34186D1*
X12177Y34158D1*
X12191Y34115D1*
Y34086D1*
X12177Y34043D1*
X12148Y34014D1*
X12105Y34000D1*
X12062D1*
X12019Y34014D1*
X12005Y34029D1*
X11990Y34057D1*
X11905Y29792D2*
X11891Y29821D1*
X11862Y29850D1*
X11833Y29864D1*
X11776D1*
X11747Y29850D1*
X11719Y29821D1*
X11704Y29792D1*
X11690Y29749D1*
Y29677D1*
X11704Y29634D1*
X11719Y29606D1*
X11747Y29577D1*
X11776Y29562D1*
X11833D1*
X11862Y29577D1*
X11891Y29606D1*
X11905Y29634D1*
X12170Y29821D2*
X12156Y29849D1*
X12112Y29864D1*
X12084D1*
X12041Y29849D1*
X12012Y29806D1*
X11998Y29735D1*
Y29663D1*
X12012Y29606D1*
X12041Y29577D1*
X12084Y29562D1*
X12098D1*
X12141Y29577D1*
X12170Y29606D1*
X12184Y29649D1*
Y29663D1*
X12170Y29706D1*
X12141Y29735D1*
X12098Y29749D1*
X12084D1*
X12041Y29735D1*
X12012Y29706D1*
X11998Y29663D1*
X11898Y25167D2*
X11884Y25196D1*
X11855Y25225D1*
X11826Y25239D1*
X11769D1*
X11740Y25225D1*
X11711Y25196D1*
X11697Y25167D1*
X11683Y25124D1*
Y25052D1*
X11697Y25009D1*
X11711Y24981D1*
X11740Y24952D1*
X11769Y24937D1*
X11826D1*
X11855Y24952D1*
X11884Y24981D1*
X11898Y25009D1*
X12048Y24937D2*
X12191Y25239D1*
X11990D1*
X11898Y20855D2*
X11884Y20883D1*
X11855Y20912D1*
X11826Y20926D1*
X11769D1*
X11740Y20912D1*
X11712Y20883D1*
X11697Y20855D1*
X11683Y20812D1*
Y20740D1*
X11697Y20697D1*
X11712Y20668D1*
X11740Y20639D1*
X11769Y20625D1*
X11826D1*
X11855Y20639D1*
X11884Y20668D1*
X11898Y20697D1*
X12062Y20926D2*
X12019Y20912D1*
X12005Y20883D1*
Y20854D1*
X12019Y20826D1*
X12048Y20811D1*
X12105Y20797D1*
X12148Y20783D1*
X12177Y20754D1*
X12191Y20725D1*
Y20682D1*
X12177Y20654D1*
X12163Y20639D1*
X12120Y20625D1*
X12062D1*
X12019Y20639D1*
X12005Y20654D1*
X11991Y20682D1*
Y20725D1*
X12005Y20754D1*
X12034Y20783D1*
X12077Y20797D1*
X12134Y20811D1*
X12163Y20826D1*
X12177Y20854D1*
Y20883D1*
X12163Y20912D1*
X12120Y20926D1*
X12062D1*
X11905Y16105D2*
X11891Y16133D1*
X11862Y16162D1*
X11833Y16176D1*
X11776D1*
X11747Y16162D1*
X11719Y16133D1*
X11704Y16105D1*
X11690Y16062D1*
Y15990D1*
X11704Y15947D1*
X11719Y15918D1*
X11747Y15889D1*
X11776Y15875D1*
X11833D1*
X11862Y15889D1*
X11891Y15918D1*
X11905Y15947D1*
X12184Y16076D2*
X12170Y16033D1*
X12141Y16004D1*
X12098Y15990D1*
X12084D1*
X12041Y16004D1*
X12012Y16033D1*
X11998Y16076D1*
Y16090D1*
X12012Y16133D1*
X12041Y16162D1*
X12084Y16176D1*
X12098D1*
X12141Y16162D1*
X12170Y16133D1*
X12184Y16076D1*
Y16004D1*
X12170Y15932D1*
X12141Y15889D1*
X12098Y15875D1*
X12070D1*
X12026Y15889D1*
X12012Y15918D1*
X11816Y11792D2*
X11801Y11821D1*
X11772Y11850D1*
X11744Y11864D1*
X11687D1*
X11658Y11850D1*
X11629Y11821D1*
X11615Y11792D1*
X11600Y11749D1*
Y11677D1*
X11615Y11634D1*
X11629Y11606D1*
X11658Y11577D1*
X11687Y11562D1*
X11744D1*
X11772Y11577D1*
X11801Y11606D1*
X11816Y11634D1*
X11908Y11806D2*
X11937Y11821D1*
X11980Y11864D1*
Y11562D1*
X12159Y11864D2*
X12116Y11849D1*
X12087Y11806D1*
X12073Y11735D1*
Y11691D1*
X12087Y11620D1*
X12116Y11577D1*
X12159Y11562D1*
X12187D1*
X12231Y11577D1*
X12259Y11620D1*
X12274Y11691D1*
Y11735D1*
X12259Y11806D1*
X12231Y11849D1*
X12187Y11864D1*
X12159D1*
X12259Y11806D2*
X12087Y11620D1*
X5197Y16399D2*
X5183Y16428D1*
X5154Y16457D1*
X5126Y16471D1*
X5068D1*
X5040Y16457D1*
X5011Y16428D1*
X4996Y16399D1*
X4982Y16356D1*
Y16284D1*
X4996Y16241D1*
X5011Y16213D1*
X5040Y16184D1*
X5068Y16169D1*
X5126D1*
X5154Y16184D1*
X5183Y16213D1*
X5197Y16241D1*
X5362Y16370D2*
X5333Y16356D1*
X5304Y16327D1*
X5290Y16284D1*
Y16256D1*
X5304Y16213D1*
X5333Y16184D1*
X5362Y16169D1*
X5405D1*
X5434Y16184D1*
X5462Y16213D1*
X5477Y16256D1*
Y16284D1*
X5462Y16327D1*
X5434Y16356D1*
X5405Y16370D1*
X5362D1*
X5569D2*
Y16169D1*
Y16313D2*
X5612Y16356D1*
X5641Y16370D1*
X5684D1*
X5713Y16356D1*
X5727Y16313D1*
Y16169D1*
X5820Y16413D2*
X5849Y16428D1*
X5892Y16471D1*
Y16169D1*
X5133Y25399D2*
X5119Y25428D1*
X5090Y25457D1*
X5061Y25471D1*
X5004D1*
X4975Y25457D1*
X4947Y25428D1*
X4932Y25399D1*
X4918Y25356D1*
Y25284D1*
X4932Y25241D1*
X4947Y25213D1*
X4975Y25184D1*
X5004Y25169D1*
X5061D1*
X5090Y25184D1*
X5119Y25213D1*
X5133Y25241D1*
X5297Y25370D2*
X5269Y25356D1*
X5240Y25327D1*
X5226Y25284D1*
Y25256D1*
X5240Y25213D1*
X5269Y25184D1*
X5297Y25169D1*
X5340D1*
X5369Y25184D1*
X5398Y25213D1*
X5412Y25256D1*
Y25284D1*
X5398Y25327D1*
X5369Y25356D1*
X5340Y25370D1*
X5297D1*
X5505D2*
Y25169D1*
Y25313D2*
X5548Y25356D1*
X5577Y25370D1*
X5620D1*
X5648Y25356D1*
X5663Y25313D1*
Y25169D1*
X5770Y25399D2*
Y25413D1*
X5784Y25442D1*
X5798Y25456D1*
X5827Y25471D1*
X5885D1*
X5913Y25456D1*
X5927Y25442D1*
X5942Y25413D1*
Y25385D1*
X5927Y25356D1*
X5899Y25313D1*
X5755Y25169D1*
X5956D1*
X5133Y34399D2*
X5119Y34428D1*
X5090Y34457D1*
X5061Y34471D1*
X5004D1*
X4975Y34457D1*
X4947Y34428D1*
X4932Y34399D1*
X4918Y34356D1*
Y34284D1*
X4932Y34241D1*
X4947Y34213D1*
X4975Y34184D1*
X5004Y34169D1*
X5061D1*
X5090Y34184D1*
X5119Y34213D1*
X5133Y34241D1*
X5297Y34370D2*
X5269Y34356D1*
X5240Y34327D1*
X5226Y34284D1*
Y34256D1*
X5240Y34213D1*
X5269Y34184D1*
X5297Y34169D1*
X5340D1*
X5369Y34184D1*
X5398Y34213D1*
X5412Y34256D1*
Y34284D1*
X5398Y34327D1*
X5369Y34356D1*
X5340Y34370D1*
X5297D1*
X5505D2*
Y34169D1*
Y34313D2*
X5548Y34356D1*
X5577Y34370D1*
X5620D1*
X5648Y34356D1*
X5663Y34313D1*
Y34169D1*
X5784Y34471D2*
X5942D1*
X5856Y34356D1*
X5899D1*
X5927Y34342D1*
X5942Y34327D1*
X5956Y34284D1*
Y34256D1*
X5942Y34213D1*
X5913Y34184D1*
X5870Y34169D1*
X5827D1*
X5784Y34184D1*
X5770Y34198D1*
X5755Y34227D1*
X5126Y43399D2*
X5112Y43428D1*
X5083Y43457D1*
X5054Y43471D1*
X4997D1*
X4968Y43457D1*
X4939Y43428D1*
X4925Y43399D1*
X4911Y43356D1*
Y43284D1*
X4925Y43241D1*
X4939Y43213D1*
X4968Y43184D1*
X4997Y43169D1*
X5054D1*
X5083Y43184D1*
X5112Y43213D1*
X5126Y43241D1*
X5290Y43370D2*
X5262Y43356D1*
X5233Y43327D1*
X5218Y43284D1*
Y43256D1*
X5233Y43213D1*
X5262Y43184D1*
X5290Y43169D1*
X5333D1*
X5362Y43184D1*
X5391Y43213D1*
X5405Y43256D1*
Y43284D1*
X5391Y43327D1*
X5362Y43356D1*
X5333Y43370D1*
X5290D1*
X5498D2*
Y43169D1*
Y43313D2*
X5541Y43356D1*
X5570Y43370D1*
X5612D1*
X5641Y43356D1*
X5656Y43313D1*
Y43169D1*
X5892D2*
Y43471D1*
X5748Y43270D1*
X5963D1*
X5133Y52399D2*
X5119Y52428D1*
X5090Y52457D1*
X5061Y52471D1*
X5004D1*
X4975Y52457D1*
X4947Y52428D1*
X4932Y52399D1*
X4918Y52356D1*
Y52284D1*
X4932Y52241D1*
X4947Y52213D1*
X4975Y52184D1*
X5004Y52169D1*
X5061D1*
X5090Y52184D1*
X5119Y52213D1*
X5133Y52241D1*
X5297Y52370D2*
X5269Y52356D1*
X5240Y52327D1*
X5226Y52284D1*
Y52256D1*
X5240Y52213D1*
X5269Y52184D1*
X5297Y52169D1*
X5340D1*
X5369Y52184D1*
X5398Y52213D1*
X5412Y52256D1*
Y52284D1*
X5398Y52327D1*
X5369Y52356D1*
X5340Y52370D1*
X5297D1*
X5505D2*
Y52169D1*
Y52313D2*
X5548Y52356D1*
X5577Y52370D1*
X5620D1*
X5648Y52356D1*
X5663Y52313D1*
Y52169D1*
X5927Y52471D2*
X5784D1*
X5770Y52342D1*
X5784Y52356D1*
X5827Y52370D1*
X5870D1*
X5913Y52356D1*
X5942Y52327D1*
X5956Y52284D1*
Y52256D1*
X5942Y52213D1*
X5913Y52184D1*
X5870Y52169D1*
X5827D1*
X5784Y52184D1*
X5770Y52198D1*
X5755Y52227D1*
X18140Y16399D2*
X18126Y16428D1*
X18097Y16457D1*
X18069Y16471D1*
X18011D1*
X17982Y16457D1*
X17954Y16428D1*
X17939Y16399D1*
X17925Y16356D1*
Y16284D1*
X17939Y16241D1*
X17954Y16213D1*
X17982Y16184D1*
X18011Y16169D1*
X18069D1*
X18097Y16184D1*
X18126Y16213D1*
X18140Y16241D1*
X18304Y16370D2*
X18276Y16356D1*
X18247Y16327D1*
X18233Y16284D1*
Y16256D1*
X18247Y16213D1*
X18276Y16184D1*
X18304Y16169D1*
X18348D1*
X18376Y16184D1*
X18405Y16213D1*
X18420Y16256D1*
Y16284D1*
X18405Y16327D1*
X18376Y16356D1*
X18348Y16370D1*
X18304D1*
X18512D2*
Y16169D1*
Y16313D2*
X18555Y16356D1*
X18584Y16370D1*
X18627D1*
X18656Y16356D1*
X18670Y16313D1*
Y16169D1*
X18935Y16428D2*
X18921Y16456D1*
X18877Y16471D1*
X18849D1*
X18806Y16456D1*
X18777Y16413D1*
X18763Y16342D1*
Y16270D1*
X18777Y16213D1*
X18806Y16184D1*
X18849Y16169D1*
X18863D1*
X18906Y16184D1*
X18935Y16213D1*
X18949Y16256D1*
Y16270D1*
X18935Y16313D1*
X18906Y16342D1*
X18863Y16356D1*
X18849D1*
X18806Y16342D1*
X18777Y16313D1*
X18763Y16270D1*
X18133Y25399D2*
X18119Y25428D1*
X18090Y25457D1*
X18061Y25471D1*
X18004D1*
X17975Y25457D1*
X17947Y25428D1*
X17932Y25399D1*
X17918Y25356D1*
Y25284D1*
X17932Y25241D1*
X17947Y25213D1*
X17975Y25184D1*
X18004Y25169D1*
X18061D1*
X18090Y25184D1*
X18119Y25213D1*
X18133Y25241D1*
X18297Y25370D2*
X18269Y25356D1*
X18240Y25327D1*
X18226Y25284D1*
Y25256D1*
X18240Y25213D1*
X18269Y25184D1*
X18297Y25169D1*
X18340D1*
X18369Y25184D1*
X18398Y25213D1*
X18412Y25256D1*
Y25284D1*
X18398Y25327D1*
X18369Y25356D1*
X18340Y25370D1*
X18297D1*
X18505D2*
Y25169D1*
Y25313D2*
X18548Y25356D1*
X18577Y25370D1*
X18620D1*
X18648Y25356D1*
X18663Y25313D1*
Y25169D1*
X18813D2*
X18956Y25471D1*
X18755D1*
X18133Y34399D2*
X18119Y34428D1*
X18090Y34457D1*
X18061Y34471D1*
X18004D1*
X17975Y34457D1*
X17947Y34428D1*
X17932Y34399D1*
X17918Y34356D1*
Y34284D1*
X17932Y34241D1*
X17947Y34213D1*
X17975Y34184D1*
X18004Y34169D1*
X18061D1*
X18090Y34184D1*
X18119Y34213D1*
X18133Y34241D1*
X18297Y34370D2*
X18269Y34356D1*
X18240Y34327D1*
X18226Y34284D1*
Y34256D1*
X18240Y34213D1*
X18269Y34184D1*
X18297Y34169D1*
X18340D1*
X18369Y34184D1*
X18398Y34213D1*
X18412Y34256D1*
Y34284D1*
X18398Y34327D1*
X18369Y34356D1*
X18340Y34370D1*
X18297D1*
X18505D2*
Y34169D1*
Y34313D2*
X18548Y34356D1*
X18577Y34370D1*
X18620D1*
X18649Y34356D1*
X18663Y34313D1*
Y34169D1*
X18827Y34471D2*
X18784Y34456D1*
X18770Y34428D1*
Y34399D1*
X18784Y34370D1*
X18813Y34356D1*
X18870Y34342D1*
X18913Y34327D1*
X18942Y34298D1*
X18956Y34270D1*
Y34227D1*
X18942Y34198D1*
X18928Y34184D1*
X18885Y34169D1*
X18827D1*
X18784Y34184D1*
X18770Y34198D1*
X18756Y34227D1*
Y34270D1*
X18770Y34298D1*
X18799Y34327D1*
X18841Y34342D1*
X18899Y34356D1*
X18928Y34370D1*
X18942Y34399D1*
Y34428D1*
X18928Y34456D1*
X18885Y34471D1*
X18827D1*
X18140Y43399D2*
X18126Y43428D1*
X18097Y43457D1*
X18068Y43471D1*
X18011D1*
X17982Y43457D1*
X17954Y43428D1*
X17939Y43399D1*
X17925Y43356D1*
Y43284D1*
X17939Y43241D1*
X17954Y43213D1*
X17982Y43184D1*
X18011Y43169D1*
X18068D1*
X18097Y43184D1*
X18126Y43213D1*
X18140Y43241D1*
X18304Y43370D2*
X18276Y43356D1*
X18247Y43327D1*
X18233Y43284D1*
Y43256D1*
X18247Y43213D1*
X18276Y43184D1*
X18304Y43169D1*
X18347D1*
X18376Y43184D1*
X18405Y43213D1*
X18419Y43256D1*
Y43284D1*
X18405Y43327D1*
X18376Y43356D1*
X18347Y43370D1*
X18304D1*
X18512D2*
Y43169D1*
Y43313D2*
X18555Y43356D1*
X18584Y43370D1*
X18627D1*
X18656Y43356D1*
X18670Y43313D1*
Y43169D1*
X18949Y43370D2*
X18935Y43327D1*
X18906Y43298D1*
X18863Y43284D1*
X18849D1*
X18806Y43298D1*
X18777Y43327D1*
X18762Y43370D1*
Y43385D1*
X18777Y43428D1*
X18806Y43456D1*
X18849Y43471D1*
X18863D1*
X18906Y43456D1*
X18935Y43428D1*
X18949Y43370D1*
Y43298D1*
X18935Y43227D1*
X18906Y43184D1*
X18863Y43169D1*
X18834D1*
X18791Y43184D1*
X18777Y43213D1*
X18051Y52399D2*
X18036Y52428D1*
X18008Y52457D1*
X17979Y52471D1*
X17922D1*
X17893Y52457D1*
X17864Y52428D1*
X17850Y52399D1*
X17835Y52356D1*
Y52284D1*
X17850Y52241D1*
X17864Y52213D1*
X17893Y52184D1*
X17922Y52169D1*
X17979D1*
X18008Y52184D1*
X18036Y52213D1*
X18051Y52241D1*
X18215Y52370D2*
X18186Y52356D1*
X18158Y52327D1*
X18143Y52284D1*
Y52256D1*
X18158Y52213D1*
X18186Y52184D1*
X18215Y52169D1*
X18258D1*
X18287Y52184D1*
X18315Y52213D1*
X18330Y52256D1*
Y52284D1*
X18315Y52327D1*
X18287Y52356D1*
X18258Y52370D1*
X18215D1*
X18423D2*
Y52169D1*
Y52313D2*
X18466Y52356D1*
X18495Y52370D1*
X18537D1*
X18566Y52356D1*
X18580Y52313D1*
Y52169D1*
X18673Y52413D2*
X18702Y52428D1*
X18745Y52471D1*
Y52169D1*
X18924Y52471D2*
X18881Y52456D1*
X18852Y52413D1*
X18838Y52342D1*
Y52298D1*
X18852Y52227D1*
X18881Y52184D1*
X18924Y52169D1*
X18952D1*
X18996Y52184D1*
X19024Y52227D1*
X19039Y52298D1*
Y52342D1*
X19024Y52413D1*
X18996Y52456D1*
X18952Y52471D1*
X18924D1*
X19024Y52413D2*
X18852Y52227D1*
X12580Y5928D2*
X12552Y5913D1*
X12523Y5884D1*
X12508Y5856D1*
Y5799D1*
X12523Y5770D1*
X12552Y5741D1*
X12580Y5727D1*
X12623Y5712D1*
X12695D1*
X12738Y5727D1*
X12767Y5741D1*
X12795Y5770D1*
X12810Y5799D1*
Y5856D1*
X12795Y5884D1*
X12767Y5913D1*
X12738Y5928D1*
X12609Y6092D2*
X12623Y6063D1*
X12652Y6034D1*
X12695Y6020D1*
X12724D1*
X12767Y6034D1*
X12795Y6063D1*
X12810Y6092D1*
Y6135D1*
X12795Y6164D1*
X12767Y6192D1*
X12724Y6207D1*
X12695D1*
X12652Y6192D1*
X12623Y6164D1*
X12609Y6135D1*
Y6092D1*
Y6300D2*
X12810D1*
X12666D2*
X12623Y6343D1*
X12609Y6372D1*
Y6414D1*
X12623Y6443D1*
X12666Y6457D1*
X12810D1*
X12566Y6550D2*
X12552Y6579D1*
X12509Y6622D1*
X12810D1*
X12566Y6715D2*
X12552Y6744D1*
X12509Y6787D1*
X12810D1*
X15754Y7150D2*
X15883D1*
X15926Y7164D1*
X15941Y7179D1*
X15955Y7207D1*
Y7236D1*
X15941Y7264D1*
X15926Y7279D1*
X15883Y7293D1*
X15754D1*
Y6992D1*
X15855Y7150D2*
X15955Y6992D1*
X16048Y7236D2*
X16077Y7250D1*
X16120Y7293D1*
Y6992D1*
X8754Y16392D2*
Y16177D1*
X8768Y16134D1*
X8797Y16105D1*
X8840Y16091D1*
X8869D1*
X8912Y16105D1*
X8941Y16134D1*
X8955Y16177D1*
Y16392D1*
X9048Y16334D2*
X9077Y16349D1*
X9120Y16392D1*
Y16091D1*
X8690Y25392D2*
Y25177D1*
X8704Y25134D1*
X8733Y25105D1*
X8776Y25091D1*
X8804D1*
X8848Y25105D1*
X8876Y25134D1*
X8891Y25177D1*
Y25392D1*
X8998Y25320D2*
Y25334D1*
X9012Y25363D1*
X9026Y25378D1*
X9055Y25392D1*
X9113D1*
X9141Y25378D1*
X9155Y25363D1*
X9170Y25334D1*
Y25306D1*
X9155Y25277D1*
X9127Y25234D1*
X8983Y25091D1*
X9184D1*
X8690Y34392D2*
Y34177D1*
X8704Y34134D1*
X8733Y34105D1*
X8776Y34091D1*
X8804D1*
X8848Y34105D1*
X8876Y34134D1*
X8891Y34177D1*
Y34392D1*
X9012D2*
X9170D1*
X9084Y34277D1*
X9127D1*
X9155Y34263D1*
X9170Y34249D1*
X9184Y34205D1*
Y34177D1*
X9170Y34134D1*
X9141Y34105D1*
X9098Y34091D1*
X9055D1*
X9012Y34105D1*
X8998Y34120D1*
X8983Y34148D1*
X8683Y43392D2*
Y43177D1*
X8697Y43134D1*
X8726Y43105D1*
X8769Y43091D1*
X8797D1*
X8840Y43105D1*
X8869Y43134D1*
X8884Y43177D1*
Y43392D1*
X9120Y43091D2*
Y43392D1*
X8976Y43191D1*
X9191D1*
X8690Y52392D2*
Y52177D1*
X8704Y52134D1*
X8733Y52105D1*
X8776Y52091D1*
X8804D1*
X8848Y52105D1*
X8876Y52134D1*
X8891Y52177D1*
Y52392D1*
X9155D2*
X9012D1*
X8998Y52263D1*
X9012Y52277D1*
X9055Y52292D1*
X9098D1*
X9141Y52277D1*
X9170Y52249D1*
X9184Y52205D1*
Y52177D1*
X9170Y52134D1*
X9141Y52105D1*
X9098Y52091D1*
X9055D1*
X9012Y52105D1*
X8998Y52120D1*
X8983Y52148D1*
X14697Y16392D2*
Y16177D1*
X14711Y16134D1*
X14740Y16105D1*
X14783Y16091D1*
X14812D1*
X14855Y16105D1*
X14884Y16134D1*
X14898Y16177D1*
Y16392D1*
X15163Y16349D2*
X15148Y16378D1*
X15105Y16392D1*
X15077D1*
X15034Y16378D1*
X15005Y16334D1*
X14991Y16263D1*
Y16191D1*
X15005Y16134D1*
X15034Y16105D1*
X15077Y16091D1*
X15091D1*
X15134Y16105D1*
X15163Y16134D1*
X15177Y16177D1*
Y16191D1*
X15163Y16234D1*
X15134Y16263D1*
X15091Y16277D1*
X15077D1*
X15034Y16263D1*
X15005Y16234D1*
X14991Y16191D1*
X14690Y25392D2*
Y25177D1*
X14704Y25134D1*
X14733Y25105D1*
X14776Y25091D1*
X14804D1*
X14848Y25105D1*
X14876Y25134D1*
X14891Y25177D1*
Y25392D1*
X15041Y25091D2*
X15184Y25392D1*
X14983D1*
X14690Y34392D2*
Y34177D1*
X14704Y34134D1*
X14733Y34105D1*
X14776Y34091D1*
X14805D1*
X14848Y34105D1*
X14877Y34134D1*
X14891Y34177D1*
Y34392D1*
X15055D2*
X15012Y34378D1*
X14998Y34349D1*
Y34320D1*
X15012Y34292D1*
X15041Y34277D1*
X15098Y34263D1*
X15141Y34249D1*
X15170Y34220D1*
X15184Y34191D1*
Y34148D1*
X15170Y34120D1*
X15156Y34105D1*
X15112Y34091D1*
X15055D1*
X15012Y34105D1*
X14998Y34120D1*
X14983Y34148D1*
Y34191D1*
X14998Y34220D1*
X15027Y34249D1*
X15069Y34263D1*
X15127Y34277D1*
X15156Y34292D1*
X15170Y34320D1*
Y34349D1*
X15156Y34378D1*
X15112Y34392D1*
X15055D1*
X14697Y43392D2*
Y43177D1*
X14711Y43134D1*
X14740Y43105D1*
X14783Y43091D1*
X14812D1*
X14855Y43105D1*
X14884Y43134D1*
X14898Y43177D1*
Y43392D1*
X15177Y43292D2*
X15163Y43249D1*
X15134Y43220D1*
X15091Y43205D1*
X15077D1*
X15034Y43220D1*
X15005Y43249D1*
X14990Y43292D1*
Y43306D1*
X15005Y43349D1*
X15034Y43378D1*
X15077Y43392D1*
X15091D1*
X15134Y43378D1*
X15163Y43349D1*
X15177Y43292D1*
Y43220D1*
X15163Y43148D1*
X15134Y43105D1*
X15091Y43091D1*
X15062D1*
X15019Y43105D1*
X15005Y43134D1*
X14607Y52392D2*
Y52177D1*
X14622Y52134D1*
X14651Y52105D1*
X14694Y52091D1*
X14722D1*
X14765Y52105D1*
X14794Y52134D1*
X14808Y52177D1*
Y52392D1*
X14901Y52334D2*
X14930Y52349D1*
X14973Y52392D1*
Y52091D1*
X15152Y52392D2*
X15109Y52378D1*
X15080Y52334D1*
X15066Y52263D1*
Y52220D1*
X15080Y52148D1*
X15109Y52105D1*
X15152Y52091D1*
X15180D1*
X15223Y52105D1*
X15252Y52148D1*
X15267Y52220D1*
Y52263D1*
X15252Y52334D1*
X15223Y52378D1*
X15180Y52392D1*
X15152D1*
X15252Y52334D2*
X15080Y52148D1*
X13537Y4657D2*
D47*
X13939Y4810D1*
X13537Y4963D1*
Y5086D2*
X13939D1*
Y5220D1*
X13920Y5278D1*
X13882Y5316D1*
X13843Y5335D1*
X13786Y5354D1*
X13690D1*
X13633Y5335D1*
X13595Y5316D1*
X13556Y5278D1*
X13537Y5220D1*
Y5086D1*
Y5478D2*
X13939D1*
Y5612D1*
X13920Y5669D1*
X13882Y5708D1*
X13843Y5727D1*
X13786Y5746D1*
X13690D1*
X13633Y5727D1*
X13595Y5708D1*
X13556Y5669D1*
X13537Y5612D1*
Y5478D1*
X14320Y4944D2*
X14282Y4925D1*
X14244Y4886D1*
X14225Y4848D1*
Y4772D1*
X14244Y4733D1*
X14282Y4695D1*
X14320Y4676D1*
X14378Y4657D1*
X14474D1*
X14531Y4676D1*
X14569Y4695D1*
X14607Y4733D1*
X14627Y4772D1*
Y4848D1*
X14607Y4886D1*
X14569Y4925D1*
X14531Y4944D1*
X14225Y5067D2*
X14627D1*
X14359Y5286D2*
X14378Y5248D1*
X14416Y5210D1*
X14474Y5191D1*
X14512D1*
X14569Y5210D1*
X14607Y5248D1*
X14627Y5286D1*
Y5344D1*
X14607Y5382D1*
X14569Y5420D1*
X14512Y5440D1*
X14474D1*
X14416Y5420D1*
X14378Y5382D1*
X14359Y5344D1*
Y5286D1*
X14416Y5793D2*
X14378Y5755D1*
X14359Y5716D1*
Y5659D1*
X14378Y5621D1*
X14416Y5583D1*
X14474Y5563D1*
X14512D1*
X14569Y5583D1*
X14607Y5621D1*
X14627Y5659D1*
Y5716D1*
X14607Y5755D1*
X14569Y5793D1*
X14225Y5917D2*
X14627D1*
X14359Y6108D2*
X14550Y5917D1*
X14474Y5993D2*
X14627Y6127D1*
X16541Y4657D2*
Y4829D1*
X16522Y4886D1*
X16503Y4906D1*
X16465Y4925D1*
X16426D1*
X16388Y4906D1*
X16369Y4886D1*
X16350Y4829D1*
Y4657D1*
X16752D1*
X16541Y4791D2*
X16752Y4925D1*
X16407Y5316D2*
X16369Y5278D1*
X16350Y5221D1*
Y5144D1*
X16369Y5087D1*
X16407Y5048D1*
X16445D1*
X16484Y5068D1*
X16503Y5087D1*
X16522Y5125D1*
X16560Y5240D1*
X16579Y5278D1*
X16599Y5297D1*
X16637Y5316D1*
X16694D1*
X16732Y5278D1*
X16752Y5221D1*
Y5144D1*
X16732Y5087D1*
X16694Y5048D1*
X16350Y5574D2*
X16752D1*
X16350Y5440D2*
Y5708D1*
X16551Y5831D2*
Y6052D1*
X15600Y4772D2*
X15619Y4733D1*
X15657Y4695D1*
X15695Y4676D1*
X15753Y4657D1*
X15849D1*
X15906Y4676D1*
X15944Y4695D1*
X15982Y4733D1*
X16002Y4772D1*
Y4848D1*
X15982Y4886D1*
X15944Y4925D1*
X15906Y4944D1*
X15849Y4963D1*
X15753D1*
X15695Y4944D1*
X15657Y4925D1*
X15619Y4886D1*
X15600Y4848D1*
Y4772D1*
Y5335D2*
Y5086D1*
X16002D1*
Y5335D1*
X15791Y5086D2*
Y5239D1*
X15801Y5458D2*
Y5679D1*
X14912Y4657D2*
X15314D1*
Y4886D1*
X15046Y5239D2*
X15314D1*
X15104D2*
X15065Y5201D1*
X15046Y5163D1*
Y5106D1*
X15065Y5067D1*
X15104Y5029D1*
X15161Y5010D1*
X15199D1*
X15257Y5029D1*
X15295Y5067D1*
X15314Y5106D1*
Y5163D1*
X15295Y5201D1*
X15257Y5239D1*
X14912Y5420D2*
X15238D1*
X15295Y5439D1*
X15314Y5478D1*
Y5516D1*
X15046Y5363D2*
Y5497D1*
X15104Y5869D2*
X15065Y5831D1*
X15046Y5792D1*
Y5735D1*
X15065Y5697D1*
X15104Y5659D1*
X15161Y5639D1*
X15199D1*
X15257Y5659D1*
X15295Y5697D1*
X15314Y5735D1*
Y5792D1*
X15295Y5831D1*
X15257Y5869D1*
X14912Y5993D2*
X15314D1*
X15123D2*
X15065Y6050D1*
X15046Y6089D1*
Y6146D1*
X15065Y6184D1*
X15123Y6203D1*
X15314D1*
X17258Y4944D2*
X17220Y4925D1*
X17181Y4886D1*
X17162Y4848D1*
Y4772D1*
X17181Y4733D1*
X17220Y4695D1*
X17258Y4676D1*
X17315Y4657D1*
X17411D1*
X17468Y4676D1*
X17507Y4695D1*
X17545Y4733D1*
X17564Y4772D1*
Y4848D1*
X17545Y4886D1*
X17507Y4925D1*
X17468Y4944D1*
X17411D1*
Y4848D1*
X17162Y5335D2*
X17564D1*
X17162Y5067D1*
X17564D1*
X17162Y5459D2*
X17564D1*
Y5593D1*
X17545Y5650D1*
X17507Y5689D1*
X17468Y5708D1*
X17411Y5727D1*
X17315D1*
X17258Y5708D1*
X17220Y5689D1*
X17181Y5650D1*
X17162Y5593D1*
Y5459D1*
X17850Y4657D2*
X18252D1*
Y4791D1*
X18232Y4848D1*
X18194Y4887D1*
X18156Y4906D1*
X18099Y4925D1*
X18003D1*
X17945Y4906D1*
X17907Y4887D1*
X17869Y4848D1*
X17850Y4791D1*
Y4657D1*
X18051Y5048D2*
Y5269D1*
X17850Y5393D2*
X18252D1*
X17984Y5516D2*
X18252D1*
X18060D2*
X18003Y5574D1*
X17984Y5612D1*
Y5669D1*
X18003Y5708D1*
X18060Y5727D1*
X18252D1*
X18537Y4657D2*
X18939D1*
Y4791D1*
X18920Y4848D1*
X18882Y4887D1*
X18843Y4906D1*
X18786Y4925D1*
X18690D1*
X18633Y4906D1*
X18595Y4887D1*
X18556Y4848D1*
X18537Y4791D1*
Y4657D1*
X18738Y5048D2*
Y5269D1*
X18537Y5508D2*
X18556Y5469D1*
X18595Y5431D1*
X18633Y5412D1*
X18690Y5393D1*
X18786D1*
X18843Y5412D1*
X18882Y5431D1*
X18920Y5469D1*
X18939Y5508D1*
Y5584D1*
X18920Y5622D1*
X18882Y5661D1*
X18843Y5680D1*
X18786Y5699D1*
X18690D1*
X18633Y5680D1*
X18595Y5661D1*
X18556Y5622D1*
X18537Y5584D1*
Y5508D1*
X18671Y5822D2*
X18863D1*
X18920Y5841D1*
X18939Y5880D1*
Y5937D1*
X18920Y5975D1*
X18863Y6033D1*
X18671D2*
X18939D1*
X18537Y6214D2*
X18863D1*
X18920Y6233D1*
X18939Y6271D1*
Y6309D1*
X18671Y6156D2*
Y6290D1*
X9665Y4528D2*
X9886D1*
X4774Y4700D2*
Y4356D1*
X4602Y4528D2*
X4947D1*
X5827Y4634D2*
X5808Y4672D1*
X5769Y4710D1*
X5731Y4729D1*
X5655D1*
X5616Y4710D1*
X5578Y4672D1*
X5559Y4634D1*
X5540Y4576D1*
Y4480D1*
X5559Y4423D1*
X5578Y4385D1*
X5616Y4347D1*
X5655Y4327D1*
X5731D1*
X5769Y4347D1*
X5808Y4385D1*
X5827Y4423D1*
X6790Y4729D2*
Y4327D1*
X7019D1*
X7913Y4729D2*
X7665D1*
Y4327D1*
X7913D1*
X7665Y4538D2*
X7818D1*
X8665D2*
X8837D1*
X8894Y4557D1*
X8914Y4576D1*
X8933Y4614D1*
Y4653D1*
X8914Y4691D1*
X8894Y4710D1*
X8837Y4729D1*
X8665D1*
Y4327D1*
X8799Y4538D2*
X8933Y4327D1*
X10852Y4729D2*
Y4327D1*
X11842Y4729D2*
X11804Y4710D1*
X11766Y4672D1*
X11746Y4634D1*
X11727Y4576D1*
Y4480D1*
X11746Y4423D1*
X11766Y4385D1*
X11804Y4347D1*
X11842Y4327D1*
X11919D1*
X11957Y4347D1*
X11995Y4385D1*
X12014Y4423D1*
X12033Y4480D1*
Y4576D1*
X12014Y4634D1*
X11995Y4672D1*
X11957Y4710D1*
X11919Y4729D1*
X11842D1*
M02*
